<?xml version="1.0" encoding="UTF-8"?>
<svg id="edge_cuts" xmlns="http://www.w3.org/2000/svg" width="121.92mm" height="128.5mm" viewBox="0 0 345.6 364.25">
  <defs>
    <style>
      .cls-1 {
        fill: none;
        stroke: #000;
        stroke-linecap: round;
      }
    </style>
  </defs>
  <path id="path1969" class="cls-1" d="M345.27,0v363.97"/>
  <path id="path1971" class="cls-1" d="M345.27,363.97H.58"/>
  <path id="path1973" class="cls-1" d="M.58,363.97V0"/>
  <path id="path1975" class="cls-1" d="M.58,0h344.69"/>
  <path id="path1977" class="cls-1" d="M13.44,352.89c-.52,1.67-.52,3.47,0,5.14"/>
  <path id="path1979" class="cls-1" d="M13.44,358.04c.44,1.42,1.76,2.39,3.25,2.39"/>
  <path id="path1981" class="cls-1" d="M16.69,360.43h10.01"/>
  <path id="path1983" class="cls-1" d="M26.7,360.43c1.49,0,2.81-.97,3.25-2.39"/>
  <path id="path1985" class="cls-1" d="M29.95,358.04c.52-1.67.52-3.47,0-5.14"/>
  <path id="path1987" class="cls-1" d="M29.95,352.89c-.44-1.42-1.76-2.39-3.25-2.39"/>
  <path id="path1989" class="cls-1" d="M26.7,350.51h-10.01"/>
  <path id="path1991" class="cls-1" d="M16.69,350.5c-1.49,0-2.81.97-3.25,2.39"/>
  <path id="path1993" class="cls-1" d="M13.44,5.93c-.52,1.67-.52,3.47,0,5.14"/>
  <path id="path1995" class="cls-1" d="M13.44,11.08c.44,1.42,1.76,2.39,3.25,2.39"/>
  <path id="path1997" class="cls-1" d="M16.69,13.46h10.01"/>
  <path id="path1999" class="cls-1" d="M26.7,13.46c1.49,0,2.81-.97,3.25-2.39"/>
  <path id="path2001" class="cls-1" d="M29.95,11.08c.52-1.67.52-3.47,0-5.14"/>
  <path id="path2003" class="cls-1" d="M29.95,5.93c-.44-1.42-1.76-2.39-3.25-2.39"/>
  <path id="path2005" class="cls-1" d="M26.7,3.54h-10.01"/>
  <path id="path2007" class="cls-1" d="M16.69,3.54c-1.49,0-2.81.97-3.25,2.39"/>
  <path id="path2009" class="cls-1" d="M315.9,352.89c-.52,1.67-.52,3.47,0,5.14"/>
  <path id="path2011" class="cls-1" d="M315.9,358.04c.44,1.42,1.76,2.39,3.25,2.39"/>
  <path id="path2013" class="cls-1" d="M319.15,360.43h10.01"/>
  <path id="path2015" class="cls-1" d="M329.16,360.43c1.49,0,2.81-.97,3.25-2.39"/>
  <path id="path2017" class="cls-1" d="M332.41,358.04c.52-1.67.52-3.47,0-5.14"/>
  <path id="path2019" class="cls-1" d="M332.41,352.89c-.44-1.42-1.76-2.39-3.25-2.39"/>
  <path id="path2021" class="cls-1" d="M329.16,350.51h-10.01"/>
  <path id="path2023" class="cls-1" d="M319.15,350.5c-1.49,0-2.81.97-3.25,2.39"/>
  <path id="path2025" class="cls-1" d="M315.9,5.93c-.52,1.67-.52,3.47,0,5.14"/>
  <path id="path2027" class="cls-1" d="M315.9,11.08c.44,1.42,1.76,2.39,3.25,2.39"/>
  <path id="path2029" class="cls-1" d="M319.15,13.46h10.01"/>
  <path id="path2031" class="cls-1" d="M329.16,13.46c1.49,0,2.81-.97,3.25-2.39"/>
  <path id="path2033" class="cls-1" d="M332.41,11.08c.52-1.67.52-3.47,0-5.14"/>
  <path id="path2035" class="cls-1" d="M332.41,5.93c-.44-1.42-1.76-2.39-3.25-2.39"/>
  <path id="path2037" class="cls-1" d="M329.16,3.54h-10.01"/>
  <path id="path2039" class="cls-1" d="M319.15,3.54c-1.49,0-2.81.97-3.25,2.39"/>
  <path id="path2041" class="cls-1" d="M48.97,257.74c0-6.11-4.95-11.06-11.05-11.06-6.11,0-11.06,4.95-11.06,11.05h0c0,6.11,4.95,11.06,11.05,11.06,6.11,0,11.06-4.95,11.06-11.05h0Z"/>
  <path id="path2043" class="cls-1" d="M116.47,257.74c0-6.11-4.94-11.06-11.05-11.06s-11.06,4.94-11.06,11.05c0,0,0,.01,0,.02,0,6.11,4.94,11.06,11.05,11.06s11.06-4.94,11.06-11.05h0Z"/>
  <path id="path2045" class="cls-1" d="M183.97,257.74c0-6.11-4.95-11.06-11.05-11.06-6.11,0-11.06,4.95-11.06,11.05h0c0,6.11,4.95,11.06,11.05,11.06,6.11,0,11.06-4.95,11.06-11.05h0Z"/>
  <path id="path2047" class="cls-1" d="M251.47,257.74c0-6.11-4.95-11.06-11.05-11.06-6.11,0-11.06,4.95-11.06,11.05h0c0,6.11,4.95,11.06,11.06,11.06s11.06-4.95,11.06-11.06Z"/>
  <path id="path2049" class="cls-1" d="M318.97,257.74c0-6.11-4.95-11.06-11.05-11.06-6.11,0-11.06,4.95-11.06,11.05h0c0,6.11,4.95,11.06,11.06,11.06s11.06-4.95,11.06-11.06Z"/>
  <path id="path2051" class="cls-1" d="M19.97,184.19c-.55.55-.55,1.45,0,2,.55.55,1.45.55,2,0"/>
  <path id="path2053" class="cls-1" d="M21.97,186.19h3.08"/>
  <path id="path2055" class="cls-1" d="M25.05,186.19c.55.55,1.45.55,2,0,.55-.55.55-1.45,0-2"/>
  <path id="path2057" class="cls-1" d="M27.06,184.19v-102.29"/>
  <path id="path2059" class="cls-1" d="M27.06,81.9c.55-.55.55-1.45,0-2-.55-.55-1.45-.55-2,0h0"/>
  <path id="path2061" class="cls-1" d="M25.05,79.89h-3.08"/>
  <path id="path2063" class="cls-1" d="M21.97,79.89c-.55-.55-1.45-.55-2,0-.55.55-.55,1.45,0,2"/>
  <path id="path2065" class="cls-1" d="M19.97,81.9v102.29"/>
  <path id="path2067" class="cls-1" d="M32.73,214.16c0-5.09-4.12-9.21-9.21-9.21s-9.21,4.12-9.21,9.21,4.12,9.21,9.21,9.21,9.21-4.12,9.21-9.21Z"/>
  <path id="path2069" class="cls-1" d="M70.07,214.16c0-5.09-4.12-9.21-9.21-9.21s-9.21,4.12-9.21,9.21c0,5.09,4.12,9.22,9.21,9.22,5.09,0,9.22-4.12,9.22-9.21,0,0,0,0,0-.01Z"/>
  <path id="path2071" class="cls-1" d="M107.43,214.16c0-5.09-4.12-9.21-9.21-9.21s-9.21,4.12-9.21,9.21,4.12,9.21,9.21,9.21,9.21-4.12,9.21-9.21Z"/>
  <path id="path2073" class="cls-1" d="M144.78,214.16c0-5.09-4.12-9.22-9.21-9.22-5.09,0-9.22,4.12-9.22,9.21h0c0,5.1,4.12,9.23,9.21,9.23,5.09,0,9.22-4.12,9.22-9.21h0Z"/>
  <path id="path2075" class="cls-1" d="M182.13,214.16c0-5.09-4.12-9.22-9.21-9.22-5.09,0-9.22,4.12-9.22,9.21h0c0,5.1,4.12,9.23,9.21,9.23,5.09,0,9.22-4.12,9.22-9.21h0Z"/>
  <path id="path2077" class="cls-1" d="M219.47,214.16c0-5.09-4.12-9.22-9.21-9.22s-9.22,4.12-9.22,9.21h0c0,5.1,4.12,9.23,9.21,9.23s9.22-4.12,9.22-9.21h0Z"/>
  <path id="path2079" class="cls-1" d="M256.83,214.16c0-5.09-4.12-9.22-9.21-9.22s-9.22,4.12-9.22,9.21h0c0,5.1,4.12,9.23,9.21,9.23s9.22-4.12,9.22-9.21h0Z"/>
  <path id="path2081" class="cls-1" d="M294.18,214.16c0-5.09-4.12-9.22-9.21-9.22s-9.22,4.12-9.22,9.21h0c0,5.1,4.12,9.23,9.21,9.23s9.22-4.12,9.22-9.21h0Z"/>
  <path id="path2083" class="cls-1" d="M331.53,214.16c0-5.09-4.12-9.22-9.21-9.22s-9.22,4.12-9.22,9.21h0c0,5.1,4.12,9.23,9.21,9.23s9.22-4.12,9.22-9.21h0Z"/>
  <path id="path2085" class="cls-1" d="M57.32,184.19c-.55.55-.55,1.45,0,2,.55.55,1.45.55,2,0"/>
  <path id="path2087" class="cls-1" d="M59.32,186.19h3.08"/>
  <path id="path2089" class="cls-1" d="M62.4,186.19c.55.55,1.45.55,2,0,.55-.55.55-1.45,0-2h0"/>
  <path id="path2091" class="cls-1" d="M64.41,184.19v-102.29"/>
  <path id="path2093" class="cls-1" d="M64.41,81.9c.55-.55.55-1.45,0-2-.55-.55-1.45-.55-2,0"/>
  <path id="path2095" class="cls-1" d="M62.4,79.89h-3.08"/>
  <path id="path2097" class="cls-1" d="M59.32,79.89c-.55-.55-1.45-.55-2,0-.55.55-.55,1.45,0,2"/>
  <path id="path2099" class="cls-1" d="M57.32,81.9v102.29"/>
  <path id="path2101" class="cls-1" d="M94.67,184.19c-.55.55-.55,1.45,0,2,.55.55,1.45.55,2,0"/>
  <path id="path2103" class="cls-1" d="M96.68,186.19h3.08"/>
  <path id="path2105" class="cls-1" d="M99.75,186.19c.55.55,1.45.55,2,0,.55-.55.55-1.45,0-2"/>
  <path id="path2107" class="cls-1" d="M101.76,184.19v-102.29"/>
  <path id="path2109" class="cls-1" d="M101.76,81.9c.55-.55.55-1.45,0-2-.55-.55-1.45-.55-2,0h0"/>
  <path id="path2111" class="cls-1" d="M99.75,79.89h-3.08"/>
  <path id="path2113" class="cls-1" d="M96.68,79.89c-.55-.55-1.45-.55-2,0-.55.55-.55,1.45,0,2"/>
  <path id="path2115" class="cls-1" d="M94.67,81.9v102.29"/>
  <path id="path2117" class="cls-1" d="M132.02,184.19c-.55.55-.55,1.45,0,2,.55.55,1.45.55,2,0h0"/>
  <path id="path2119" class="cls-1" d="M134.02,186.19h3.08"/>
  <path id="path2121" class="cls-1" d="M137.1,186.19c.55.55,1.45.55,2,0,.55-.55.55-1.45,0-2"/>
  <path id="path2123" class="cls-1" d="M139.11,184.19v-102.29"/>
  <path id="path2125" class="cls-1" d="M139.11,81.9c.55-.55.55-1.45,0-2-.55-.55-1.45-.55-2,0"/>
  <path id="path2127" class="cls-1" d="M137.1,79.89h-3.08"/>
  <path id="path2129" class="cls-1" d="M134.02,79.89c-.55-.55-1.45-.55-2,0-.55.55-.55,1.45,0,2h0"/>
  <path id="path2131" class="cls-1" d="M132.02,81.9v102.29"/>
  <path id="path2133" class="cls-1" d="M169.37,184.19c-.55.55-.55,1.45,0,2,.55.55,1.45.55,2,0"/>
  <path id="path2135" class="cls-1" d="M171.37,186.19h3.08"/>
  <path id="path2137" class="cls-1" d="M174.45,186.19c.55.55,1.45.55,2,0,.55-.55.55-1.45,0-2"/>
  <path id="path2139" class="cls-1" d="M176.46,184.19v-102.29"/>
  <path id="path2141" class="cls-1" d="M176.46,81.9c.55-.55.55-1.45,0-2-.55-.55-1.45-.55-2,0"/>
  <path id="path2143" class="cls-1" d="M174.45,79.89h-3.08"/>
  <path id="path2145" class="cls-1" d="M171.37,79.89c-.55-.55-1.45-.55-2,0-.55.55-.55,1.45,0,2h0"/>
  <path id="path2147" class="cls-1" d="M169.37,81.9v102.29"/>
  <path id="path2149" class="cls-1" d="M206.72,184.19c-.55.55-.55,1.45,0,2,.55.55,1.45.55,2,0h0"/>
  <path id="path2151" class="cls-1" d="M208.72,186.19h3.08"/>
  <path id="path2153" class="cls-1" d="M211.8,186.19c.55.55,1.45.55,2,0,.55-.55.55-1.45,0-2h0"/>
  <path id="path2155" class="cls-1" d="M213.81,184.19v-102.29"/>
  <path id="path2157" class="cls-1" d="M213.81,81.9c.55-.55.55-1.45,0-2-.55-.55-1.45-.55-2,0"/>
  <path id="path2159" class="cls-1" d="M211.8,79.89h-3.08"/>
  <path id="path2161" class="cls-1" d="M208.72,79.89c-.55-.55-1.45-.55-2,0-.55.55-.55,1.45,0,2"/>
  <path id="path2163" class="cls-1" d="M206.72,81.9v102.29"/>
  <path id="path2165" class="cls-1" d="M244.07,184.19c-.55.55-.55,1.45,0,2,.55.55,1.45.55,2,0h0"/>
  <path id="path2167" class="cls-1" d="M246.08,186.19h3.08"/>
  <path id="path2169" class="cls-1" d="M249.15,186.19c.55.55,1.45.55,2,0,.55-.55.55-1.45,0-2h0"/>
  <path id="path2171" class="cls-1" d="M251.16,184.19v-102.29"/>
  <path id="path2173" class="cls-1" d="M251.16,81.9c.55-.55.55-1.45,0-2-.55-.55-1.45-.55-2,0"/>
  <path id="path2175" class="cls-1" d="M249.15,79.89h-3.08"/>
  <path id="path2177" class="cls-1" d="M246.08,79.89c-.55-.55-1.45-.55-2,0-.55.55-.55,1.45,0,2"/>
  <path id="path2179" class="cls-1" d="M244.07,81.9v102.29"/>
  <path id="path2181" class="cls-1" d="M281.42,184.19c-.55.55-.55,1.45,0,2,.55.55,1.45.55,2,0h0"/>
  <path id="path2183" class="cls-1" d="M283.42,186.19h3.08"/>
  <path id="path2185" class="cls-1" d="M286.5,186.19c.55.55,1.45.55,2,0,.55-.55.55-1.45,0-2"/>
  <path id="path2187" class="cls-1" d="M288.51,184.19v-102.29"/>
  <path id="path2189" class="cls-1" d="M288.51,81.9c.55-.55.55-1.45,0-2-.55-.55-1.45-.55-2,0"/>
  <path id="path2191" class="cls-1" d="M286.5,79.89h-3.08"/>
  <path id="path2193" class="cls-1" d="M283.42,79.89c-.55-.55-1.45-.55-2,0-.55.55-.55,1.45,0,2"/>
  <path id="path2195" class="cls-1" d="M281.42,81.9v102.29"/>
  <path id="path2197" class="cls-1" d="M318.77,184.19c-.55.55-.55,1.45,0,2,.55.55,1.45.55,2,0"/>
  <path id="path2199" class="cls-1" d="M320.77,186.19h3.08"/>
  <path id="path2201" class="cls-1" d="M323.85,186.19c.55.55,1.45.55,2,0,.55-.55.55-1.45,0-2h0"/>
  <path id="path2203" class="cls-1" d="M325.86,184.19v-102.29"/>
  <path id="path2205" class="cls-1" d="M325.86,81.9c.55-.55.55-1.45,0-2-.55-.55-1.45-.55-2,0"/>
  <path id="path2207" class="cls-1" d="M323.85,79.89h-3.08"/>
  <path id="path2209" class="cls-1" d="M320.77,79.89c-.55-.55-1.45-.55-2,0-.55.55-.55,1.45,0,2"/>
  <path id="path2211" class="cls-1" d="M318.77,81.9v102.29"/>
  <path id="path2213" class="cls-1" d="M66.63,312.32c0-5.48-4.44-9.92-9.92-9.92s-9.92,4.44-9.92,9.92,4.44,9.92,9.92,9.92,9.92-4.44,9.92-9.92Z"/>
  <path id="path2215" class="cls-1" d="M99.83,312.32c0-5.48-4.44-9.92-9.92-9.93-5.48,0-9.92,4.44-9.93,9.92h0c0,5.49,4.44,9.94,9.92,9.94,5.48,0,9.92-4.44,9.93-9.92h0Z"/>
  <path id="path2217" class="cls-1" d="M133.04,312.32c0-5.48-4.44-9.92-9.92-9.92s-9.92,4.44-9.92,9.92,4.44,9.92,9.92,9.92,9.92-4.44,9.92-9.92Z"/>
  <path id="path2219" class="cls-1" d="M166.23,312.32c0-5.48-4.44-9.92-9.92-9.92s-9.92,4.44-9.92,9.92,4.44,9.92,9.92,9.92,9.92-4.44,9.92-9.92Z"/>
  <path id="path2221" class="cls-1" d="M199.43,312.32c0-5.48-4.44-9.92-9.92-9.93-5.48,0-9.92,4.44-9.93,9.92h0c0,5.49,4.44,9.94,9.92,9.94,5.48,0,9.92-4.44,9.93-9.92h0Z"/>
  <path id="path2223" class="cls-1" d="M232.63,312.32c0-5.48-4.44-9.92-9.92-9.92s-9.92,4.44-9.92,9.92,4.44,9.92,9.92,9.92,9.92-4.44,9.92-9.92Z"/>
  <path id="path2225" class="cls-1" d="M265.84,312.32c0-5.48-4.44-9.92-9.92-9.92s-9.92,4.44-9.92,9.92,4.44,9.92,9.92,9.92,9.92-4.44,9.92-9.92Z"/>
  <path id="path2227" class="cls-1" d="M33.43,312.32c0-5.48-4.44-9.92-9.92-9.92-5.48,0-9.92,4.44-9.92,9.92h0c0,5.48,4.44,9.93,9.92,9.93,5.48,0,9.92-4.44,9.92-9.92h0Z"/>
  <path id="path2229" class="cls-1" d="M332.23,312.32c0-5.48-4.44-9.92-9.92-9.92s-9.92,4.44-9.92,9.92,4.44,9.92,9.92,9.92,9.92-4.44,9.92-9.92Z"/>
  <path id="path2231" class="cls-1" d="M299.03,312.32c0-5.48-4.44-9.92-9.92-9.92s-9.92,4.44-9.92,9.92,4.44,9.92,9.92,9.92,9.92-4.44,9.92-9.92Z"/>
  <path id="path2233" class="cls-1" d="M70.78,48.44c0-5.48-4.44-9.92-9.92-9.92s-9.92,4.44-9.92,9.92h0c0,5.48,4.44,9.92,9.92,9.92s9.92-4.44,9.92-9.92Z"/>
  <path id="path2235" class="cls-1" d="M108.14,48.44c0-5.48-4.44-9.92-9.92-9.93-5.48,0-9.92,4.44-9.93,9.92h0c0,5.49,4.44,9.94,9.91,9.94,5.48,0,9.92-4.44,9.93-9.91h0Z"/>
  <path id="path2237" class="cls-1" d="M145.49,48.44c0-5.48-4.44-9.92-9.92-9.92s-9.92,4.44-9.92,9.92,4.44,9.92,9.92,9.92,9.92-4.44,9.92-9.92Z"/>
  <path id="path2239" class="cls-1" d="M182.83,48.44c0-5.48-4.44-9.92-9.92-9.92s-9.92,4.44-9.92,9.92,4.44,9.92,9.92,9.92,9.92-4.44,9.92-9.92Z"/>
  <path id="path2241" class="cls-1" d="M220.18,48.44c0-5.48-4.44-9.92-9.92-9.92s-9.92,4.44-9.92,9.92,4.44,9.92,9.92,9.92,9.92-4.44,9.92-9.92Z"/>
  <path id="path2243" class="cls-1" d="M257.54,48.44c0-5.48-4.44-9.92-9.92-9.92s-9.92,4.44-9.92,9.92,4.44,9.92,9.92,9.92,9.92-4.44,9.92-9.92Z"/>
  <path id="path2245" class="cls-1" d="M294.89,48.44c0-5.48-4.44-9.92-9.92-9.92s-9.92,4.44-9.92,9.92,4.44,9.92,9.92,9.92,9.92-4.44,9.92-9.92Z"/>
  <path id="path2247" class="cls-1" d="M33.43,48.44c0-5.48-4.44-9.92-9.92-9.92-5.48,0-9.92,4.44-9.92,9.92h0c0,5.48,4.44,9.93,9.92,9.93,5.48,0,9.92-4.44,9.92-9.92h0Z"/>
  <path id="path2249" class="cls-1" d="M332.23,48.44c0-5.48-4.44-9.92-9.92-9.92s-9.92,4.44-9.92,9.92,4.44,9.92,9.92,9.92,9.92-4.44,9.92-9.92Z"/>
  <circle class="cls-1" cx="71.32" cy="272.95" r="9.07"/>
  <circle class="cls-1" cx="274.19" cy="272.95" r="9.07"/>
</svg>