<?xml version="1.0" encoding="UTF-8"?>
<svg id="f_mask" xmlns="http://www.w3.org/2000/svg" width="121.92mm" height="128.5mm" viewBox="0 0 345.6 364.25">
  <defs>
    <style>
      .cls-1 {
        isolation: isolate;
      }
    </style>
  </defs>
  <g id="path9558-57">
    <polygon points="162.83 228.21 23.16 228.21 23.24 223.16 24.24 223.18 24.18 227.21 162.83 227.21 162.83 228.21"/>
  </g>
  <g id="path9558-8-6">
    <polygon points="323.49 228.21 182.63 228.21 182.63 227.21 322.48 227.21 322.42 223.16 323.42 223.14 323.49 228.21"/>
  </g>
  <g id="path9558">
    <polygon points="36.04 343.34 24.16 343.34 24.24 339.29 25.24 339.31 25.18 342.34 36.04 342.34 36.04 343.34"/>
  </g>
  <g id="path9558-8">
    <polygon points="57.62 343.34 45.74 343.34 45.74 342.34 56.59 342.34 56.53 339.31 57.53 339.29 57.62 343.34"/>
  </g>
  <g id="path9558-6">
    <polygon points="297.45 343.34 289.01 343.34 289.09 339.29 290.09 339.31 290.03 342.34 297.45 342.34 297.45 343.34"/>
  </g>
  <g id="path9558-8-67">
    <polygon points="323.22 343.34 313.99 343.34 313.99 342.34 322.19 342.34 322.13 339.31 323.13 339.29 323.22 343.34"/>
  </g>
  <path d="M280.59,261.46v.78s-5.4.01-5.4.01v2.59s-.65,0-.65,0v-3.37s6.05-.02,6.05-.02Z"/>
  <g id="path2842-2-2">
    <rect x="274.03" y="279.96" width="1" height="4.89" transform="translate(-.87 .85) rotate(-.18)"/>
  </g>
  <g id="path2842">
    <rect x="71.32" y="260.81" width="1" height="5" transform="translate(-.77 .21) rotate(-.17)"/>
  </g>
  <g id="path2842-2">
    <rect x="71.32" y="279.98" width="1" height="4.87" transform="translate(-.85 .22) rotate(-.17)"/>
  </g>
  <g class="cls-1">
    <path d="M136.45,18.17h1.74c.31.01.6.08.87.2s.5.29.71.5c.2.21.36.45.47.72.11.27.17.56.17.86s-.06.58-.18.85c-.12.27-.27.51-.48.72s-.44.37-.71.49-.56.18-.87.18h-1.74s.03-4.53.03-4.53ZM137.61,21.71h.27c.2,0,.39-.03.55-.09.16-.06.3-.15.41-.26.11-.11.2-.24.25-.4.06-.15.09-.32.09-.51s-.03-.35-.09-.5c-.06-.16-.14-.29-.25-.4-.11-.11-.24-.2-.4-.27s-.34-.1-.54-.1h-.27s-.01,2.53-.01,2.53Z"/>
    <path d="M142.34,18.21l-.03,4.52h-1.18s.03-4.53.03-4.53h1.18Z"/>
    <path d="M144.09,18.22l1.08,2.76,1.11-2.75h1.28s-1.93,4.52-1.93,4.52h-.94s-1.88-4.54-1.88-4.54h1.28Z"/>
    <path d="M149.2,20.12l1.44-1.86h1.45s-1.81,2.14-1.81,2.14l1.95,2.39h-1.52s-1.52-1.98-1.52-1.98v1.96s-1.19,0-1.19,0l.03-4.52h1.18s-.01,1.87-.01,1.87Z"/>
    <path d="M153.96,18.28l-.03,4.52h-1.18s.03-4.53.03-4.53h1.18Z"/>
    <path d="M154.91,18.28h1.74c.31.01.6.08.87.2.27.13.5.29.71.5s.36.45.47.72c.11.27.17.56.17.86s-.06.58-.18.85c-.11.27-.27.51-.48.72s-.44.37-.71.49c-.27.12-.56.18-.87.18h-1.74s.03-4.53.03-4.53ZM156.07,21.82h.27c.2,0,.39-.03.55-.09s.3-.15.41-.26.2-.24.25-.4c.06-.15.09-.32.09-.51s-.03-.35-.09-.5c-.06-.16-.14-.29-.25-.4-.11-.11-.24-.2-.4-.27s-.34-.1-.54-.1h-.27s-.01,2.53-.01,2.53Z"/>
    <path d="M161.67,18.32h1.74c.31.01.6.08.87.2.27.13.5.29.71.5s.36.45.47.72c.11.27.17.56.17.86s-.06.58-.18.85c-.11.27-.27.51-.48.72s-.44.37-.71.49c-.27.12-.56.18-.87.18h-1.74s.03-4.53.03-4.53ZM162.82,21.86h.27c.2,0,.39-.03.55-.09s.3-.15.41-.26.2-.24.25-.4c.06-.15.09-.32.09-.51s-.03-.35-.09-.5c-.06-.16-.14-.29-.25-.4-.11-.11-.24-.2-.4-.27s-.34-.1-.54-.1h-.27s-.01,2.53-.01,2.53Z"/>
    <path d="M167.56,18.36l-.03,4.52h-1.18s.03-4.53.03-4.53h1.18Z"/>
    <path d="M170.99,19.54c-.13-.1-.25-.18-.38-.23-.13-.05-.25-.08-.37-.08-.15,0-.28.03-.37.11-.1.07-.15.17-.15.28,0,.08.02.15.07.2.05.05.11.1.19.14.08.04.17.07.26.1.1.03.19.06.29.09.38.13.66.3.84.52s.26.49.26.84c0,.23-.04.44-.12.63s-.19.35-.34.48c-.15.13-.34.24-.55.31-.22.07-.47.11-.74.11-.57,0-1.1-.18-1.59-.52l.51-.95c.17.16.35.27.52.35.17.08.34.12.51.12.19,0,.34-.04.43-.13.09-.09.14-.19.14-.3,0-.07-.01-.13-.04-.18-.02-.05-.06-.1-.12-.14-.06-.04-.13-.08-.22-.12-.09-.04-.2-.08-.33-.12-.15-.05-.3-.1-.45-.16-.15-.06-.27-.14-.39-.23-.11-.1-.2-.22-.27-.36-.07-.15-.1-.33-.1-.56s.04-.43.11-.61c.07-.18.18-.34.31-.47.13-.13.3-.23.49-.3s.41-.11.65-.1c.22,0,.46.03.7.1s.48.16.7.28l-.47.92Z"/>
    <path d="M175.63,19.92c-.27-.33-.61-.5-1.01-.5-.18,0-.34.03-.49.09-.15.06-.28.15-.39.26-.11.11-.19.24-.26.39-.06.15-.09.32-.1.49s.03.35.09.5c.06.15.15.29.26.4.11.11.24.2.39.27.15.06.31.1.48.1.38,0,.71-.16,1.02-.47v1.39s-.13.04-.13.04c-.18.06-.35.11-.5.14-.16.03-.31.04-.46.04-.31,0-.61-.06-.9-.18-.29-.12-.54-.29-.75-.5s-.39-.47-.52-.77-.19-.62-.19-.96.07-.67.2-.96.31-.54.53-.75c.22-.21.47-.37.76-.49.29-.12.59-.17.91-.17.18,0,.36.02.53.06.17.04.36.1.55.18v1.4Z"/>
    <path d="M176.23,20.67c0-.34.07-.65.19-.94s.3-.54.52-.76c.22-.21.49-.38.79-.5.31-.12.64-.18,1.01-.18s.7.07,1.01.19c.31.12.57.29.79.51.22.22.39.47.51.76s.18.6.18.94-.07.65-.19.94c-.13.29-.3.54-.52.76-.22.21-.49.38-.8.5-.31.12-.65.18-1.01.18s-.7-.07-1.01-.19c-.3-.12-.57-.29-.79-.51-.22-.22-.39-.47-.51-.76-.12-.29-.18-.6-.18-.94ZM177.46,20.68c0,.18.03.35.1.5.07.15.16.29.27.4.12.11.25.2.4.26.15.06.32.09.49.1s.34-.03.49-.09c.15-.06.29-.15.41-.26.12-.11.21-.24.28-.39.07-.15.1-.32.1-.5s-.03-.35-.1-.5c-.07-.15-.16-.29-.28-.4-.12-.11-.25-.2-.41-.26-.15-.06-.32-.09-.49-.1s-.34.03-.49.09c-.15.06-.29.15-.41.26-.12.11-.21.24-.28.39-.07.15-.1.32-.1.5Z"/>
    <path d="M185.74,22.99h-1.46s-1.11-1.76-1.11-1.76v1.74s-1.19,0-1.19,0l.03-4.52h1.83c.25.01.47.05.66.13.19.08.34.18.46.31s.21.28.27.45c.06.17.09.35.09.54,0,.34-.09.62-.25.84s-.41.36-.74.43l1.41,1.86ZM183.17,20.47h.22c.23,0,.41-.04.54-.14s.19-.23.19-.41-.06-.32-.18-.42c-.12-.1-.3-.15-.53-.15h-.22s0,1.11,0,1.11Z"/>
    <path d="M186.26,18.47h1.74c.31.01.6.08.87.2.27.13.5.29.71.5s.36.45.47.72c.11.27.17.56.17.86s-.06.58-.18.85c-.11.27-.27.51-.48.72s-.44.37-.71.49c-.27.12-.56.18-.87.18h-1.74s.03-4.53.03-4.53ZM187.41,22h.27c.2,0,.39-.03.55-.09s.3-.15.41-.26.2-.24.25-.4c.06-.15.09-.32.09-.51s-.03-.35-.09-.5c-.06-.16-.14-.29-.25-.4-.11-.11-.24-.2-.4-.27s-.34-.1-.54-.1h-.27s-.01,2.53-.01,2.53Z"/>
    <path d="M193.82,18.51l1.08,2.76,1.11-2.75h1.28s-1.93,4.52-1.93,4.52h-.94s-1.88-4.54-1.88-4.54h1.28Z"/>
    <path d="M200.33,19.55h-1.4s0,.75,0,.75h1.32s0,1,0,1h-1.32s0,.77,0,.77h1.4s0,1,0,1l-2.57-.02.03-4.52,2.57.02v1Z"/>
    <path d="M204.91,23.1h-1.46s-1.11-1.76-1.11-1.76v1.74s-1.19,0-1.19,0l.03-4.52h1.83c.25.01.47.05.66.13.19.08.34.18.46.31s.21.28.27.45c.06.17.09.35.09.54,0,.34-.09.62-.25.84s-.41.36-.74.43l1.41,1.86ZM202.34,20.58h.22c.23,0,.41-.04.54-.14s.19-.23.19-.41-.06-.32-.18-.42c-.12-.1-.3-.15-.53-.15h-.22s0,1.11,0,1.11Z"/>
    <path d="M207.91,19.75c-.13-.1-.25-.18-.38-.23-.13-.05-.25-.08-.37-.08-.15,0-.28.03-.37.11-.1.07-.15.17-.15.28,0,.08.02.15.07.2.05.05.11.1.19.14.08.04.17.07.26.1.1.03.19.06.29.09.38.13.66.3.84.52s.26.49.26.84c0,.23-.04.44-.12.63s-.19.35-.34.48c-.15.13-.34.24-.55.31-.22.07-.47.11-.74.11-.57,0-1.1-.18-1.59-.52l.51-.95c.17.16.35.27.52.35.17.08.34.12.51.12.19,0,.34-.04.43-.13.09-.09.14-.19.14-.3,0-.07-.01-.13-.04-.18-.02-.05-.06-.1-.12-.14-.06-.04-.13-.08-.22-.12-.09-.04-.2-.08-.33-.12-.15-.05-.3-.1-.45-.16-.15-.06-.27-.14-.39-.23-.11-.1-.2-.22-.27-.36-.07-.15-.1-.33-.1-.56s.04-.43.11-.61c.07-.18.18-.34.31-.47.13-.13.3-.23.49-.3s.41-.11.65-.1c.22,0,.46.03.7.1s.48.16.7.28l-.47.92Z"/>
    <path d="M210.48,18.61l-.03,4.52h-1.18s.03-4.53.03-4.53h1.18Z"/>
    <path d="M211.21,20.88c0-.34.07-.65.19-.94s.3-.54.52-.76c.22-.21.49-.38.79-.5.31-.12.64-.18,1.01-.18s.7.07,1.01.19c.31.12.57.29.79.51.22.22.39.47.51.76s.18.6.18.94-.07.65-.19.94c-.13.29-.3.54-.52.76-.22.21-.49.38-.8.5-.31.12-.65.18-1.01.18s-.7-.07-1.01-.19c-.3-.12-.57-.29-.79-.51-.22-.22-.39-.47-.51-.76-.12-.29-.18-.6-.18-.94ZM212.44,20.88c0,.18.03.35.1.5.07.15.16.29.27.4.12.11.25.2.4.26.15.06.32.09.49.1s.34-.03.49-.09c.15-.06.29-.15.41-.26.12-.11.21-.24.28-.39.07-.15.1-.32.1-.5s-.03-.35-.1-.5c-.07-.15-.16-.29-.28-.4-.12-.11-.25-.2-.41-.26-.15-.06-.32-.09-.49-.1s-.34.03-.49.09c-.15.06-.29.15-.41.26-.12.11-.21.24-.28.39-.07.15-.1.32-.1.5Z"/>
    <path d="M216.95,23.17l.03-4.52h1.18s2.16,2.79,2.16,2.79l.02-2.77h1.17s-.03,4.53-.03,4.53h-1.17s-2.16-2.79-2.16-2.79l-.02,2.77h-1.18Z"/>
  </g>
  <g class="cls-1">
    <path d="M85.03,352h.81v2.36h1.19v-2.36h.81v6.03h-.81v-2.98h-1.19v2.98h-.81v-6.03Z"/>
    <path d="M89.63,352h.63l1.29,6.03h-.8l-.23-1.18h-1.2l-.23,1.18h-.78l1.31-6.03ZM90.41,356.23l-.18-.96c-.12-.65-.22-1.35-.29-2.09-.04.36-.08.73-.14,1.1s-.12.77-.2,1.18l-.15.77h.96Z"/>
    <path d="M92.04,352h1.07c.44,0,.77.11.99.32.27.27.41.69.41,1.25,0,.43-.07.78-.22,1.04s-.35.42-.62.49l1.11,2.93h-.82l-1.11-2.95v2.95h-.81v-6.03ZM92.85,354.68c.31,0,.54-.07.67-.22s.2-.39.2-.74c0-.19-.01-.35-.04-.48s-.07-.24-.13-.32-.13-.14-.23-.18-.2-.06-.33-.06h-.14v2Z"/>
    <path d="M95.41,352h1.07c.44,0,.77.11.99.32.27.27.41.69.41,1.25,0,.43-.07.78-.22,1.04s-.35.42-.62.49l1.11,2.93h-.82l-1.11-2.95v2.95h-.81v-6.03ZM96.22,354.68c.31,0,.54-.07.67-.22s.2-.39.2-.74c0-.19-.01-.35-.04-.48s-.07-.24-.13-.32-.13-.14-.23-.18-.2-.06-.33-.06h-.14v2Z"/>
    <path d="M98.24,352h.86l.4,1.31s.03.08.04.13.03.1.05.15c.15.47.25.87.3,1.2.05-.32.09-.55.12-.68l.12-.54.05-.21.34-1.36h.85l-1.05,3.44v2.59h-.81v-2.59l-1.26-3.44Z"/>
    <path d="M103.47,352h1.07c.44,0,.77.11.99.32.27.27.41.69.41,1.25,0,.43-.07.78-.22,1.04s-.35.42-.62.49l1.11,2.93h-.82l-1.11-2.95v2.95h-.81v-6.03ZM104.28,354.68c.31,0,.54-.07.67-.22s.2-.39.2-.74c0-.19-.01-.35-.04-.48s-.07-.24-.13-.32-.13-.14-.23-.18-.2-.06-.33-.06h-.14v2Z"/>
    <path d="M106.84,352h.81v6.03h-.81v-6.03Z"/>
    <path d="M110.95,352.1v.73c-.21-.1-.38-.15-.52-.15-.19,0-.36.05-.5.14s-.25.24-.34.44-.16.45-.2.75-.06.66-.06,1.08c0,1.49.38,2.23,1.14,2.23.13,0,.29-.04.48-.12v.75c-.2.11-.41.16-.66.16-1.22,0-1.83-1-1.83-2.99,0-1.08.15-1.88.45-2.41s.75-.79,1.37-.79c.23,0,.45.06.67.18Z"/>
    <path d="M111.63,352h.81v2.36h1.19v-2.36h.81v6.03h-.81v-2.98h-1.19v2.98h-.81v-6.03Z"/>
    <path d="M116.24,352h.63l1.29,6.03h-.8l-.23-1.18h-1.2l-.23,1.18h-.78l1.31-6.03ZM117.02,356.23l-.18-.96c-.12-.65-.22-1.35-.29-2.09-.04.36-.08.73-.14,1.1s-.12.77-.2,1.18l-.15.77h.96Z"/>
    <path d="M118.64,352h1.07c.44,0,.77.11.99.32.27.27.41.69.41,1.25,0,.43-.07.78-.22,1.04s-.35.42-.62.49l1.11,2.93h-.82l-1.11-2.95v2.95h-.81v-6.03ZM119.45,354.68c.32,0,.54-.07.67-.22s.2-.39.2-.74c0-.19-.01-.35-.04-.48s-.07-.24-.13-.32-.13-.14-.23-.18-.2-.06-.33-.06h-.14v2Z"/>
    <path d="M122.01,352h1c.3,0,.56.03.77.1.19.06.36.18.52.35.23.25.39.58.48.98.1.39.14.94.14,1.67,0,.66-.05,1.21-.16,1.62-.1.4-.28.71-.52.92-.29.26-.82.39-1.58.39h-.66v-6.03ZM122.83,357.33c.5,0,.83-.15.99-.45.17-.3.26-.88.26-1.75,0-.93-.08-1.57-.25-1.92s-.46-.52-.9-.52h-.1v4.64Z"/>
    <path d="M127.75,352.13v.79c-.25-.18-.47-.27-.67-.27-.21,0-.39.08-.52.23-.14.14-.2.33-.2.57,0,.21.05.39.14.54.05.08.13.19.24.31s.26.28.44.46c.33.34.56.63.68.87.12.24.18.53.18.87,0,.47-.13.85-.39,1.15-.26.29-.6.44-1.01.44-.35,0-.64-.1-.89-.29v-.8c.29.21.55.32.79.32.22,0,.39-.07.52-.22s.19-.35.19-.6c0-.22-.05-.42-.14-.59-.05-.08-.12-.18-.21-.29s-.2-.23-.33-.36c-.21-.2-.38-.38-.51-.54s-.24-.29-.3-.41c-.12-.23-.19-.52-.19-.87,0-.47.12-.85.37-1.12.25-.28.58-.42,1-.42.29,0,.57.07.83.21Z"/>
    <path d="M131.74,355.17c0,1.06-.12,1.82-.36,2.27s-.63.67-1.19.67c-.59,0-1-.24-1.24-.72-.24-.47-.36-1.31-.36-2.51,0-1.07.12-1.83.35-2.28.24-.45.64-.67,1.2-.67.5,0,.88.17,1.12.52.16.23.28.56.35.99.07.4.11.97.11,1.73ZM130.89,355.25c0-1.04-.05-1.74-.14-2.08-.09-.34-.29-.52-.57-.52s-.48.16-.58.47c-.09.32-.14.96-.14,1.91,0,.88.05,1.49.15,1.84.1.32.29.48.57.48s.46-.15.56-.45c.1-.3.15-.85.15-1.66Z"/>
    <path d="M132.54,352h.76l.81,2.41c.23.68.44,1.4.62,2.18-.07-.47-.11-.89-.14-1.27s-.05-.73-.05-1.07v-2.25h.82v6.03h-.76l-.91-2.71c-.08-.25-.16-.51-.24-.78s-.14-.54-.21-.84c0-.04-.01-.08-.03-.13s-.03-.11-.04-.18c0,.07.01.13.02.17s0,.09.01.12l.04.61.04.75s0,.09,0,.15,0,.13,0,.2l.04,2.63h-.8v-6.03Z"/>
    <path d="M138.66,353.97h-.8v-.24c0-.66.09-1.12.29-1.39.2-.27.54-.41,1.01-.41.89,0,1.33.49,1.33,1.48,0,.66-.33,1.62-1,2.87l-.48.9s-.01.02-.02.05-.03.06-.05.11h1.49v.7h-2.65c.04-.1.14-.3.28-.59s.33-.69.57-1.19c.21-.44.38-.81.52-1.11s.24-.55.31-.75c.14-.39.21-.73.21-1.01,0-.5-.17-.75-.52-.75s-.5.31-.5.93v.34s0,.06,0,.06Z"/>
    <path d="M143.81,355.07c0,1.08-.1,1.86-.31,2.34-.21.46-.56.7-1.05.7s-.85-.23-1.05-.7c-.21-.45-.31-1.25-.31-2.39s.1-1.93.31-2.39c.21-.47.56-.7,1.05-.7.46,0,.8.21,1.02.62.23.44.35,1.27.35,2.52ZM142.98,355.07c0-.91-.04-1.54-.12-1.89-.08-.35-.22-.52-.43-.52s-.35.17-.43.52c-.08.34-.12.96-.12,1.86s.04,1.51.12,1.86c.08.34.22.52.43.52s.34-.17.42-.51c.08-.33.12-.93.12-1.82Z"/>
    <path d="M145.28,353.97h-.8v-.24c0-.66.09-1.12.29-1.39.2-.27.54-.41,1.01-.41.89,0,1.33.49,1.33,1.48,0,.66-.33,1.62-1,2.87l-.48.9s-.01.02-.02.05-.03.06-.05.11h1.49v.7h-2.65c.04-.1.14-.3.28-.59s.33-.69.57-1.19c.21-.44.38-.81.52-1.11s.24-.55.31-.75c.14-.39.21-.73.21-1.01,0-.5-.17-.75-.52-.75s-.5.31-.5.93v.34s0,.06,0,.06Z"/>
    <path d="M149,352h.75v3.76h.39v.62h-.39v1.65h-.75v-1.65h-1.65v-.69l1.65-3.69ZM149,355.76v-2.53l-1.02,2.53h1.02Z"/>
    <path d="M151.08,357.19l.65.19-.77,2.12-.41-.11.54-2.2Z"/>
    <path d="M154.21,352h1.1c.86,0,1.29.54,1.29,1.61,0,.41-.06.71-.17.91s-.31.35-.59.45c.33.13.55.3.67.5.12.2.18.5.18.91,0,1.11-.47,1.66-1.42,1.66h-1.06v-6.03ZM154.97,354.66c.32,0,.53-.07.66-.22.12-.15.18-.42.18-.81,0-.65-.23-.98-.7-.98h-.1s-.03,0-.04,0v2ZM154.97,357.34c.33,0,.56-.07.69-.21s.19-.4.19-.78-.07-.65-.2-.81c-.13-.16-.36-.23-.68-.23v2.04Z"/>
    <path d="M158.38,352h.63l1.29,6.03h-.8l-.23-1.18h-1.2l-.23,1.18h-.78l1.31-6.03ZM159.16,356.23l-.18-.96c-.12-.65-.22-1.35-.29-2.09-.04.36-.08.73-.14,1.1s-.12.77-.2,1.18l-.15.77h.96Z"/>
    <path d="M162.8,352.13v.79c-.25-.18-.47-.27-.67-.27-.21,0-.39.08-.52.23-.14.14-.2.33-.2.57,0,.21.05.39.14.54.05.08.13.19.24.31s.26.28.44.46c.33.34.56.63.68.87.12.24.18.53.18.87,0,.47-.13.85-.39,1.15-.26.29-.6.44-1.01.44-.35,0-.64-.1-.89-.29v-.8c.29.21.55.32.79.32.22,0,.39-.07.52-.22s.19-.35.19-.6c0-.22-.05-.42-.14-.59-.05-.08-.12-.18-.21-.29s-.2-.23-.33-.36c-.21-.2-.38-.38-.51-.54s-.24-.29-.3-.41c-.12-.23-.19-.52-.19-.87,0-.47.12-.85.37-1.12.25-.28.58-.42,1-.42.29,0,.57.07.83.21Z"/>
    <path d="M163.77,352h2.16v.69h-1.35v1.91h1.2v.69h-1.2v2.06h1.35v.69h-2.16v-6.03Z"/>
    <path d="M166.68,352h1c.3,0,.56.03.77.1.19.06.36.18.52.35.23.25.39.58.48.98.1.39.14.94.14,1.67,0,.66-.05,1.21-.16,1.62-.1.4-.28.71-.52.92-.29.26-.82.39-1.58.39h-.66v-6.03ZM167.49,357.33c.5,0,.83-.15.99-.45.17-.3.26-.88.26-1.75,0-.93-.08-1.57-.25-1.92s-.46-.52-.9-.52h-.1v4.64Z"/>
    <path d="M175.08,355.17c0,1.06-.12,1.82-.36,2.27s-.63.67-1.19.67c-.59,0-1-.24-1.24-.72-.24-.47-.36-1.31-.36-2.51,0-1.07.12-1.83.35-2.28.24-.45.64-.67,1.2-.67.5,0,.88.17,1.12.52.16.23.28.56.35.99.07.4.11.97.11,1.73ZM174.22,355.25c0-1.04-.05-1.74-.14-2.08-.09-.34-.29-.52-.57-.52s-.48.16-.58.47c-.09.32-.14.96-.14,1.91,0,.88.05,1.49.15,1.84.1.32.29.48.57.48s.46-.15.56-.45c.1-.3.15-.85.15-1.66Z"/>
    <path d="M175.88,352h.76l.81,2.41c.23.68.44,1.4.62,2.18-.07-.47-.11-.89-.14-1.27s-.05-.73-.05-1.07v-2.25h.82v6.03h-.76l-.91-2.71c-.08-.25-.16-.51-.24-.78s-.14-.54-.21-.84c0-.04-.01-.08-.03-.13s-.03-.11-.04-.18c0,.07.01.13.02.17s0,.09.01.12l.04.61.04.75s0,.09,0,.15,0,.13,0,.2l.04,2.63h-.8v-6.03Z"/>
    <path d="M180.8,352h2.64v.71h-.91v5.32h-.8v-5.32h-.94v-.71Z"/>
    <path d="M183.89,352h.81v2.36h1.19v-2.36h.81v6.03h-.81v-2.98h-1.19v2.98h-.81v-6.03Z"/>
    <path d="M187.64,352h2.16v.69h-1.35v1.91h1.2v.69h-1.2v2.06h1.35v.69h-2.16v-6.03Z"/>
    <path d="M195.22,355.17c0,1.06-.12,1.82-.36,2.27s-.63.67-1.19.67c-.59,0-1-.24-1.24-.72-.24-.47-.36-1.31-.36-2.51,0-1.07.12-1.83.35-2.28.24-.45.64-.67,1.2-.67.5,0,.88.17,1.12.52.16.23.28.56.35.99.07.4.11.97.11,1.73ZM194.37,355.25c0-1.04-.05-1.74-.14-2.08-.09-.34-.29-.52-.57-.52s-.48.16-.58.47c-.09.32-.14.96-.14,1.91,0,.88.05,1.49.15,1.84.1.32.29.48.57.48s.46-.15.56-.45c.1-.3.15-.85.15-1.66Z"/>
    <path d="M196.4,357.13c.13,0,.24.05.33.14.09.09.14.21.14.34s-.05.25-.14.34c-.1.09-.21.14-.34.14-.07,0-.13-.01-.19-.04s-.11-.06-.15-.1-.08-.09-.1-.15-.04-.12-.04-.19c0-.13.05-.25.14-.34.1-.09.21-.14.35-.14Z"/>
    <path d="M198.54,352h.63l1.29,6.03h-.8l-.23-1.18h-1.2l-.23,1.18h-.78l1.31-6.03ZM199.32,356.23l-.18-.96c-.12-.65-.22-1.35-.29-2.09-.04.36-.08.73-.14,1.1s-.12.77-.2,1.18l-.15.77h.96Z"/>
    <path d="M201.46,357.13c.13,0,.24.05.33.14.09.09.14.21.14.34s-.05.25-.14.34c-.1.09-.21.14-.34.14-.07,0-.13-.01-.19-.04s-.11-.06-.15-.1-.08-.09-.1-.15-.04-.12-.04-.19c0-.13.05-.25.14-.34.1-.09.21-.14.35-.14Z"/>
    <path d="M204.68,352h.7l.53,2.46c.07.31.12.62.18.92s.1.63.15.97c0-.04,0-.08.01-.1s0-.04,0-.05l.11-.69.1-.66.09-.43.47-2.42h.7l.55,6.03h-.78l-.14-2.05c0-.1,0-.19-.01-.27s0-.14,0-.19l-.04-.81-.02-.74s0-.02,0-.03,0-.04,0-.07l-.02.12c-.02.14-.04.27-.06.38s-.03.2-.04.27l-.1.55-.04.21-.51,2.63h-.55l-.48-2.27c-.07-.3-.12-.6-.17-.91s-.1-.63-.14-.97l-.23,4.16h-.77l.5-6.03Z"/>
    <path d="M211.98,355.17c0,1.06-.12,1.82-.36,2.27s-.63.67-1.19.67c-.59,0-1-.24-1.24-.72-.24-.47-.36-1.31-.36-2.51,0-1.07.12-1.83.35-2.28.24-.45.64-.67,1.2-.67.5,0,.88.17,1.12.52.16.23.28.56.35.99.07.4.11.97.11,1.73ZM211.13,355.25c0-1.04-.05-1.74-.14-2.08-.09-.34-.29-.52-.57-.52s-.48.16-.58.47c-.09.32-.14.96-.14,1.91,0,.88.05,1.49.15,1.84.1.32.29.48.57.48s.46-.15.56-.45c.1-.3.15-.85.15-1.66Z"/>
    <path d="M212.79,352h1c.3,0,.56.03.77.1.19.06.36.18.52.35.23.25.39.58.48.98.1.39.14.94.14,1.67,0,.66-.05,1.21-.16,1.62-.1.4-.28.71-.52.92-.29.26-.82.39-1.58.39h-.66v-6.03ZM213.6,357.33c.5,0,.83-.15.99-.45.17-.3.26-.88.26-1.75,0-.93-.08-1.57-.25-1.92s-.46-.52-.9-.52h-.1v4.64Z"/>
    <path d="M216.51,352h.8v4.26c0,.44.04.72.12.87.08.14.24.21.48.21s.39-.06.47-.19c.08-.13.12-.39.12-.78v-4.38h.8v4.38c0,.66-.1,1.1-.3,1.33-.24.26-.61.39-1.1.39-.54,0-.92-.17-1.14-.51-.15-.23-.23-.68-.23-1.34v-4.26Z"/>
    <path d="M220.21,352h.81v5.34h1.33v.69h-2.14v-6.03Z"/>
    <path d="M224.04,352h.63l1.29,6.03h-.8l-.23-1.18h-1.2l-.23,1.18h-.78l1.31-6.03ZM224.82,356.23l-.18-.96c-.12-.65-.22-1.35-.29-2.09-.04.36-.08.73-.14,1.1s-.12.77-.2,1.18l-.15.77h.96Z"/>
    <path d="M226.44,352h1.07c.44,0,.77.11.99.32.27.27.41.69.41,1.25,0,.43-.07.78-.22,1.04s-.35.42-.62.49l1.11,2.93h-.82l-1.11-2.95v2.95h-.81v-6.03ZM227.25,354.68c.32,0,.54-.07.67-.22s.2-.39.2-.74c0-.19-.01-.35-.04-.48s-.07-.24-.13-.32-.13-.14-.23-.18-.2-.06-.33-.06h-.14v2Z"/>
    <path d="M230.99,352h2.64v.71h-.91v5.32h-.8v-5.32h-.94v-.71Z"/>
    <path d="M234.08,352h.81v6.03h-.81v-6.03Z"/>
    <path d="M236.11,352h.7l.53,2.46c.07.31.12.62.18.92s.1.63.15.97c0-.04,0-.08.01-.1s0-.04,0-.05l.11-.69.1-.66.09-.43.47-2.42h.7l.55,6.03h-.78l-.14-2.05c0-.1,0-.19-.01-.27s0-.14,0-.19l-.04-.81-.02-.74s0-.02,0-.03,0-.04,0-.07l-.02.12c-.02.14-.04.27-.06.38s-.03.2-.04.27l-.1.55-.04.21-.51,2.63h-.55l-.48-2.27c-.07-.3-.12-.6-.17-.91s-.1-.63-.14-.97l-.23,4.16h-.77l.5-6.03Z"/>
    <path d="M240.39,352h2.16v.69h-1.35v1.91h1.2v.69h-1.2v2.06h1.35v.69h-2.16v-6.03Z"/>
    <path d="M245.24,352h.7l.53,2.46c.07.31.12.62.18.92s.1.63.15.97c0-.04,0-.08.01-.1s0-.04,0-.05l.11-.69.1-.66.09-.43.47-2.42h.7l.55,6.03h-.78l-.14-2.05c0-.1,0-.19-.01-.27s0-.14,0-.19l-.04-.81-.02-.74s0-.02,0-.03,0-.04,0-.07l-.02.12c-.02.14-.04.27-.06.38s-.03.2-.04.27l-.1.55-.04.21-.51,2.63h-.55l-.48-2.27c-.07-.3-.12-.6-.17-.91s-.1-.63-.14-.97l-.23,4.16h-.77l.5-6.03Z"/>
    <path d="M250.37,352h.63l1.29,6.03h-.8l-.23-1.18h-1.2l-.23,1.18h-.78l1.31-6.03ZM251.15,356.23l-.18-.96c-.12-.65-.22-1.35-.29-2.09-.04.36-.08.73-.14,1.1s-.12.77-.2,1.18l-.15.77h.96Z"/>
    <path d="M255.09,352.1v.73c-.21-.1-.38-.15-.52-.15-.19,0-.36.05-.5.14s-.25.24-.34.44-.16.45-.2.75-.06.66-.06,1.08c0,1.49.38,2.23,1.14,2.23.13,0,.29-.04.48-.12v.75c-.2.11-.41.16-.66.16-1.22,0-1.83-1-1.83-2.99,0-1.08.15-1.88.45-2.41s.75-.79,1.37-.79c.23,0,.45.06.67.18Z"/>
    <path d="M255.77,352h.81v2.36h1.19v-2.36h.81v6.03h-.81v-2.98h-1.19v2.98h-.81v-6.03Z"/>
    <path d="M259.52,352h.81v6.03h-.81v-6.03Z"/>
    <path d="M261.26,352h.76l.81,2.41c.23.68.44,1.4.62,2.18-.07-.47-.11-.89-.14-1.27s-.05-.73-.05-1.07v-2.25h.82v6.03h-.76l-.91-2.71c-.08-.25-.16-.51-.24-.78s-.14-.54-.21-.84c0-.04-.01-.08-.03-.13s-.03-.11-.04-.18c0,.07.01.13.02.17s0,.09.01.12l.04.61.04.75s0,.09,0,.15,0,.13,0,.2l.04,2.63h-.8v-6.03Z"/>
    <path d="M265,352h2.16v.69h-1.35v1.91h1.2v.69h-1.2v2.06h1.35v.69h-2.16v-6.03Z"/>
  </g>
</svg>