<?xml version="1.0" encoding="UTF-8"?>
<svg id="f_silk" xmlns="http://www.w3.org/2000/svg" width="121.92mm" height="128.5mm" viewBox="0 0 345.6 364.25">
  <defs>
    <style>
      .cls-1 {
        isolation: isolate;
      }
    </style>
  </defs>
  <g class="cls-1">
    <path d="M167.69,223.8h1.34c.64,0,1.11.16,1.41.49.29.33.44.85.44,1.56,0,1-.29,1.65-.88,1.94-.3.13-.72.2-1.28.2v3.34h-1.02v-7.54ZM168.7,227.13c.42,0,.71-.08.87-.25.16-.17.24-.48.24-.92s-.08-.78-.23-.99c-.16-.21-.4-.31-.74-.31h-.14v2.47Z"/>
    <path d="M172.5,223.8h.79l1.62,7.54h-1.01l-.28-1.47h-1.49l-.29,1.47h-.98l1.64-7.54ZM173.47,229.08l-.22-1.2c-.15-.82-.27-1.69-.37-2.62-.05.45-.1.91-.18,1.37-.07.46-.16.96-.25,1.48l-.19.97h1.21Z"/>
    <path d="M175.5,223.8h.95l1.01,3.01c.29.85.55,1.76.78,2.72-.08-.58-.14-1.11-.18-1.58-.04-.47-.06-.92-.06-1.33v-2.81h1.02v7.54h-.95l-1.14-3.39c-.1-.32-.2-.64-.3-.97-.09-.33-.18-.68-.26-1.04,0-.05-.02-.1-.03-.17s-.03-.14-.05-.22c0,.08.02.16.02.22s.01.11.01.15l.05.77.05.93c0,.05,0,.12,0,.19s0,.16,0,.25l.05,3.29h-1v-7.54Z"/>
  </g>
  <g class="cls-1">
    <path d="M17.23,330.15h1.02v6.68h1.66v.86h-2.68v-7.54Z"/>
    <path d="M20.54,330.15h2.7v.86h-1.68v2.39h1.49v.86h-1.49v2.57h1.68v.86h-2.7v-7.54Z"/>
    <path d="M24.18,330.15h2.71v.86h-1.7v2.38h1.53v.86h-1.53v3.44h-1.02v-7.54Z"/>
    <path d="M27.07,330.15h3.31v.89h-1.14v6.65h-1v-6.65h-1.17v-.89Z"/>
  </g>
  <g class="cls-1">
    <path d="M47.78,330.27h1.34c.55,0,.96.13,1.24.4.34.34.51.86.51,1.57,0,.54-.09.97-.27,1.3-.18.33-.44.53-.77.61l1.39,3.67h-1.03l-1.38-3.69v3.69h-1.02v-7.54ZM48.8,333.61c.39,0,.67-.09.83-.27.16-.18.24-.49.24-.92,0-.23-.02-.44-.05-.6-.03-.17-.09-.3-.16-.41-.07-.1-.17-.18-.28-.23-.12-.05-.25-.07-.41-.07h-.17v2.5Z"/>
    <path d="M52,330.27h1.02v7.54h-1.02v-7.54Z"/>
    <path d="M55.98,333.84h1.85v.29c0,1.47-.13,2.46-.39,2.97-.25.53-.73.79-1.43.79s-1.23-.29-1.54-.88c-.3-.59-.45-1.57-.45-2.95,0-1.58.17-2.63.5-3.16.31-.49.79-.74,1.44-.74.49,0,.88.12,1.16.36.28.24.5.64.65,1.19l-.95.4c-.04-.2-.09-.37-.14-.5s-.11-.24-.17-.31c-.12-.15-.31-.23-.56-.23-.34,0-.57.21-.69.62-.12.44-.19,1.22-.19,2.35s.06,1.92.19,2.32c.13.4.37.61.72.61.32,0,.55-.14.68-.43.13-.31.2-.8.2-1.47v-.36h-.88v-.86Z"/>
    <path d="M58.84,330.27h1.02v2.95h1.49v-2.95h1.02v7.54h-1.02v-3.73h-1.49v3.73h-1.02v-7.54Z"/>
    <path d="M62.92,330.27h3.31v.89h-1.14v6.65h-1v-6.65h-1.17v-.89Z"/>
  </g>
  <g class="cls-1">
    <path d="M282.83,330.15h1.02v6.68h1.66v.86h-2.68v-7.54Z"/>
    <path d="M286.14,330.15h2.7v.86h-1.68v2.39h1.49v.86h-1.49v2.57h1.68v.86h-2.7v-7.54Z"/>
    <path d="M289.78,330.15h2.71v.86h-1.7v2.38h1.53v.86h-1.53v3.44h-1.02v-7.54Z"/>
    <path d="M292.67,330.15h3.31v.89h-1.14v6.65h-1v-6.65h-1.17v-.89Z"/>
  </g>
  <g class="cls-1">
    <path d="M313.38,330.27h1.34c.55,0,.96.13,1.23.4.34.34.51.86.51,1.57,0,.54-.09.97-.27,1.3-.18.33-.44.53-.77.61l1.39,3.67h-1.03l-1.38-3.69v3.69h-1.02v-7.54ZM314.4,333.61c.39,0,.67-.09.83-.27.16-.18.24-.49.24-.92,0-.23-.02-.44-.05-.6-.03-.17-.09-.3-.16-.41-.07-.1-.17-.18-.28-.23-.11-.05-.25-.07-.41-.07h-.17v2.5Z"/>
    <path d="M317.6,330.27h1.02v7.54h-1.02v-7.54Z"/>
    <path d="M321.58,333.84h1.85v.29c0,1.47-.13,2.46-.39,2.97-.25.53-.73.79-1.43.79s-1.23-.29-1.54-.88c-.3-.59-.45-1.57-.45-2.95,0-1.58.17-2.63.5-3.16.31-.49.79-.74,1.44-.74.49,0,.88.12,1.16.36.28.24.5.64.65,1.19l-.95.4c-.04-.2-.09-.37-.14-.5s-.11-.24-.17-.31c-.12-.15-.31-.23-.56-.23-.34,0-.57.21-.69.62-.12.44-.19,1.22-.19,2.35s.06,1.92.19,2.32.37.61.72.61c.32,0,.55-.14.68-.43.13-.31.2-.8.2-1.47v-.36h-.88v-.86Z"/>
    <path d="M324.44,330.27h1.02v2.95h1.49v-2.95h1.02v7.54h-1.02v-3.73h-1.49v3.73h-1.02v-7.54Z"/>
    <path d="M328.52,330.27h3.31v.89h-1.14v6.65h-1v-6.65h-1.17v-.89Z"/>
  </g>
  <g class="cls-1">
    <path d="M80.87,330.42v.99c-.31-.22-.59-.33-.83-.33-.27,0-.48.09-.65.28-.17.18-.25.42-.25.72,0,.26.06.49.18.68.06.1.16.23.31.39s.32.35.55.58c.41.42.69.78.84,1.09.15.3.22.66.22,1.09,0,.58-.16,1.06-.49,1.44-.33.37-.75.55-1.26.55-.43,0-.8-.12-1.11-.36v-1.01c.36.26.69.4.99.4.28,0,.49-.09.65-.28s.23-.43.23-.75c0-.27-.06-.52-.18-.74-.06-.1-.15-.22-.26-.36-.11-.13-.25-.29-.41-.45-.26-.25-.47-.48-.64-.67-.17-.19-.29-.37-.38-.51-.16-.29-.23-.65-.23-1.08,0-.59.15-1.06.46-1.4.31-.35.72-.52,1.25-.52.36,0,.71.09,1.03.26Z"/>
    <path d="M82.09,330.27h1.34c.64,0,1.11.16,1.41.49.29.33.44.85.44,1.56,0,1-.29,1.65-.88,1.94-.3.13-.72.2-1.28.2v3.34h-1.02v-7.54ZM83.1,333.59c.42,0,.71-.08.87-.25.16-.17.24-.48.24-.92s-.08-.78-.23-.99c-.16-.21-.4-.31-.74-.31h-.14v2.47Z"/>
    <path d="M86.05,330.27h1.34c.55,0,.96.13,1.24.4.34.34.51.86.51,1.57,0,.54-.09.97-.27,1.3-.18.33-.44.53-.77.61l1.39,3.67h-1.03l-1.38-3.69v3.69h-1.02v-7.54ZM87.07,333.61c.39,0,.67-.09.83-.27.16-.18.24-.49.24-.92,0-.23-.02-.44-.05-.6-.03-.17-.09-.3-.16-.41-.07-.1-.17-.18-.28-.23-.12-.05-.25-.07-.41-.07h-.17v2.5Z"/>
    <path d="M90.27,330.27h2.7v.86h-1.68v2.39h1.49v.86h-1.49v2.57h1.68v.86h-2.7v-7.54Z"/>
    <path d="M94.97,330.27h.79l1.62,7.54h-1.01l-.28-1.47h-1.49l-.29,1.47h-.98l1.64-7.54ZM95.94,335.55l-.22-1.2c-.15-.82-.27-1.69-.37-2.62-.05.45-.1.91-.18,1.37-.07.46-.16.96-.25,1.48l-.19.97h1.21Z"/>
    <path d="M97.98,330.27h1.25c.38,0,.7.04.96.13.24.08.46.23.64.44.28.31.49.72.61,1.22.12.48.18,1.18.18,2.09,0,.83-.07,1.51-.2,2.03-.13.5-.34.88-.64,1.15-.37.33-1.03.49-1.98.49h-.82v-7.54ZM98.99,336.92c.62,0,1.03-.19,1.24-.56.21-.37.32-1.1.32-2.18,0-1.16-.1-1.96-.31-2.4-.21-.44-.58-.65-1.13-.65h-.13v5.8Z"/>
  </g>
  <g class="cls-1">
    <path d="M67.63,251.42h.79l1.62,7.54h-1.01l-.28-1.47h-1.49l-.29,1.47h-.98l1.64-7.54ZM68.6,256.7l-.22-1.2c-.15-.82-.27-1.69-.37-2.62-.05.45-.1.91-.18,1.37-.07.46-.16.96-.25,1.48l-.19.97h1.21Z"/>
    <path d="M70.63,251.42h1.02v6.68h1.66v.86h-2.68v-7.54Z"/>
    <path d="M73.94,251.42h1.02v6.68h1.66v.86h-2.68v-7.54Z"/>
  </g>
  <g class="cls-1">
    <path d="M31.26,286.67h3.31v.89h-1.14v6.65h-1v-6.65h-1.17v-.89Z"/>
    <path d="M34.63,286.67h1.02v7.54h-1.02v-7.54Z"/>
    <path d="M36.66,286.67h.87l.66,3.08c.08.38.16.77.22,1.15.07.39.13.79.18,1.21,0-.05.01-.1.01-.13,0-.03,0-.05,0-.07l.14-.86.13-.82.11-.54.59-3.02h.88l.69,7.54h-.97l-.17-2.56c0-.13-.01-.24-.02-.34,0-.09,0-.17,0-.23l-.04-1.01-.02-.93s0-.02,0-.04c0-.02,0-.05,0-.09l-.02.15c-.03.18-.05.33-.07.47-.02.13-.04.25-.06.34l-.13.69-.05.26-.63,3.29h-.68l-.6-2.84c-.08-.37-.15-.75-.22-1.14-.06-.39-.12-.79-.17-1.21l-.29,5.2h-.96l.62-7.54Z"/>
    <path d="M41.51,286.67h2.7v.86h-1.68v2.39h1.49v.86h-1.49v2.57h1.68v.86h-2.7v-7.54Z"/>
  </g>
  <g class="cls-1">
    <path d="M96.37,286.93v.99c-.31-.22-.59-.33-.83-.33-.27,0-.48.09-.65.28-.17.18-.25.42-.25.72,0,.26.06.49.18.68.06.1.16.23.31.39s.32.35.55.58c.41.42.69.78.84,1.09.15.3.22.66.22,1.09,0,.58-.16,1.06-.49,1.44-.33.37-.75.55-1.26.55-.43,0-.8-.12-1.11-.36v-1.01c.36.26.69.4.99.4.28,0,.49-.09.65-.28s.23-.43.23-.75c0-.27-.06-.52-.18-.74-.06-.1-.15-.22-.26-.36-.11-.13-.25-.29-.41-.45-.26-.25-.47-.48-.64-.67-.17-.19-.29-.37-.38-.51-.16-.29-.23-.65-.23-1.08,0-.59.15-1.06.46-1.4.31-.35.72-.52,1.25-.52.36,0,.71.09,1.03.26Z"/>
    <path d="M97.59,286.77h1.34c.64,0,1.11.16,1.41.49.29.33.44.85.44,1.56,0,1-.29,1.65-.88,1.94-.3.13-.72.2-1.28.2v3.34h-1.02v-7.54ZM98.61,290.1c.42,0,.71-.08.87-.25.16-.17.24-.48.24-.92s-.08-.78-.23-.99c-.16-.21-.4-.31-.74-.31h-.14v2.47Z"/>
    <path d="M101.56,286.77h1.34c.55,0,.96.13,1.24.4.34.34.51.86.51,1.57,0,.54-.09.97-.27,1.3-.18.33-.44.53-.77.61l1.39,3.67h-1.03l-1.38-3.69v3.69h-1.02v-7.54ZM102.57,290.11c.39,0,.67-.09.83-.27.16-.18.24-.49.24-.92,0-.23-.02-.44-.05-.6-.03-.17-.09-.3-.16-.41-.07-.1-.17-.18-.28-.23-.12-.05-.25-.07-.41-.07h-.17v2.5Z"/>
    <path d="M105.77,286.77h2.7v.86h-1.68v2.39h1.49v.86h-1.49v2.57h1.68v.86h-2.7v-7.54Z"/>
    <path d="M110.48,286.77h.79l1.62,7.54h-1.01l-.28-1.47h-1.49l-.29,1.47h-.98l1.64-7.54ZM111.45,292.05l-.22-1.2c-.15-.82-.27-1.69-.37-2.62-.05.45-.1.91-.18,1.37-.07.46-.16.96-.25,1.48l-.19.97h1.21Z"/>
    <path d="M113.48,286.77h1.25c.38,0,.7.04.96.13.24.08.46.23.64.44.28.31.49.72.61,1.22.12.48.18,1.18.18,2.09,0,.83-.07,1.51-.2,2.03-.13.5-.34.88-.64,1.15-.37.33-1.03.49-1.98.49h-.82v-7.54ZM114.49,293.42c.62,0,1.03-.19,1.24-.56.21-.37.32-1.1.32-2.18,0-1.16-.1-1.96-.31-2.4-.21-.44-.58-.65-1.13-.65h-.13v5.8Z"/>
  </g>
  <g class="cls-1">
    <path d="M157.7,286.77h2.72v.86h-1.7v2.38h1.53v.86h-1.53v3.44h-1.02v-7.54Z"/>
    <path d="M161.19,286.77h2.7v.86h-1.68v2.39h1.49v.86h-1.49v2.57h1.68v.86h-2.7v-7.54Z"/>
    <path d="M164.83,286.77h2.7v.86h-1.68v2.39h1.49v.86h-1.49v2.57h1.68v.86h-2.7v-7.54Z"/>
    <path d="M168.46,286.77h1.25c.38,0,.7.04.96.13.24.08.46.23.64.44.28.31.48.72.61,1.22.12.48.18,1.18.18,2.09,0,.83-.07,1.51-.2,2.03-.13.5-.34.88-.64,1.15-.37.33-1.03.49-1.98.49h-.82v-7.54ZM169.48,293.42c.62,0,1.03-.19,1.24-.56.21-.37.32-1.1.32-2.18,0-1.16-.1-1.96-.31-2.4-.21-.44-.58-.65-1.13-.65h-.13v5.8Z"/>
    <path d="M173.11,286.77h1.38c1.08,0,1.62.67,1.62,2.01,0,.51-.07.89-.21,1.14s-.39.43-.74.56c.41.16.68.37.83.62.15.25.23.63.23,1.13,0,1.38-.59,2.07-1.78,2.07h-1.33v-7.54ZM174.07,290.09c.39,0,.67-.09.82-.27.15-.19.23-.53.23-1.01,0-.81-.29-1.22-.88-1.22h-.12s-.04,0-.05,0v2.5ZM174.07,293.44c.42,0,.7-.09.86-.27.16-.18.24-.5.24-.97s-.08-.82-.25-1.01c-.16-.2-.45-.29-.85-.29v2.54Z"/>
    <path d="M178.33,286.77h.79l1.62,7.54h-1.01l-.28-1.47h-1.49l-.29,1.47h-.98l1.64-7.54ZM179.3,292.05l-.22-1.2c-.15-.82-.27-1.69-.37-2.62-.05.45-.1.91-.18,1.37-.07.46-.16.96-.25,1.48l-.19.97h1.21Z"/>
    <path d="M184.23,286.89v.91c-.26-.13-.48-.19-.65-.19-.24,0-.45.06-.62.18-.17.12-.31.3-.43.55-.11.25-.2.56-.25.94-.05.38-.08.83-.08,1.34,0,1.86.48,2.79,1.43,2.79.17,0,.37-.05.6-.16v.93c-.24.14-.52.21-.82.21-1.53,0-2.29-1.25-2.29-3.74,0-1.35.19-2.35.56-3.01.37-.66.94-.99,1.71-.99.28,0,.56.07.84.22Z"/>
    <path d="M185.08,286.77h1.02v3.65l1.42-3.65h1.03l-1.48,3.65,1.6,3.89h-1.14l-1.42-3.89v3.89h-1.02v-7.54Z"/>
  </g>
  <g class="cls-1">
    <path d="M225.26,286.77h1.02v2.95h1.49v-2.95h1.02v7.54h-1.02v-3.73h-1.49v3.73h-1.02v-7.54Z"/>
    <path d="M229.94,286.77h1.02v7.54h-1.02v-7.54Z"/>
    <path d="M233.92,290.34h1.85v.29c0,1.47-.13,2.46-.39,2.97-.25.53-.73.79-1.43.79s-1.23-.29-1.54-.88c-.3-.59-.45-1.57-.45-2.95,0-1.58.17-2.63.5-3.16.31-.49.79-.74,1.44-.74.49,0,.88.12,1.16.36.28.24.5.64.65,1.19l-.95.4c-.04-.2-.09-.37-.14-.5s-.11-.24-.17-.31c-.12-.15-.31-.23-.56-.23-.34,0-.57.21-.69.62-.12.44-.19,1.22-.19,2.35s.06,1.92.19,2.32.37.61.72.61c.32,0,.55-.14.68-.43.13-.31.2-.8.2-1.47v-.36h-.88v-.86Z"/>
    <path d="M236.78,286.77h1.02v2.95h1.49v-2.95h1.02v7.54h-1.02v-3.73h-1.49v3.73h-1.02v-7.54Z"/>
    <path d="M241.46,286.77h1.34c.64,0,1.11.16,1.41.49.29.33.44.85.44,1.56,0,1-.3,1.65-.88,1.94-.3.13-.72.2-1.28.2v3.34h-1.02v-7.54ZM242.48,290.1c.42,0,.71-.08.87-.25.16-.17.24-.48.24-.92s-.08-.78-.23-.99c-.16-.21-.4-.31-.74-.31h-.14v2.47Z"/>
    <path d="M246.27,286.77h.79l1.62,7.54h-1.01l-.28-1.47h-1.49l-.29,1.47h-.98l1.64-7.54ZM247.24,292.05l-.22-1.2c-.15-.82-.27-1.69-.37-2.62-.05.45-.1.91-.18,1.37-.07.46-.16.96-.25,1.48l-.19.97h1.21Z"/>
    <path d="M251.79,286.93v.99c-.31-.22-.59-.33-.83-.33-.27,0-.48.09-.65.28-.17.18-.25.42-.25.72,0,.26.06.49.18.68.06.1.16.23.3.39.14.16.33.35.55.58.41.42.7.78.84,1.09.15.3.22.66.22,1.09,0,.58-.16,1.06-.49,1.44-.33.37-.75.55-1.26.55-.43,0-.8-.12-1.11-.36v-1.01c.36.26.69.4.99.4.28,0,.49-.09.65-.28.16-.18.23-.43.23-.75,0-.27-.06-.52-.18-.74-.06-.1-.15-.22-.26-.36-.11-.13-.25-.29-.41-.45-.26-.25-.47-.48-.64-.67-.17-.19-.29-.37-.38-.51-.16-.29-.23-.65-.23-1.08,0-.59.15-1.06.46-1.4.31-.35.72-.52,1.25-.52.36,0,.71.09,1.03.26Z"/>
    <path d="M255.52,286.93v.99c-.31-.22-.59-.33-.83-.33-.27,0-.48.09-.65.28-.17.18-.25.42-.25.72,0,.26.06.49.18.68.06.1.16.23.3.39.14.16.33.35.55.58.41.42.7.78.84,1.09.15.3.22.66.22,1.09,0,.58-.16,1.06-.49,1.44-.33.37-.75.55-1.26.55-.43,0-.8-.12-1.11-.36v-1.01c.36.26.69.4.99.4.28,0,.49-.09.65-.28.16-.18.23-.43.23-.75,0-.27-.06-.52-.18-.74-.06-.1-.15-.22-.26-.36-.11-.13-.25-.29-.41-.45-.26-.25-.47-.48-.64-.67-.17-.19-.29-.37-.38-.51-.16-.29-.23-.65-.23-1.08,0-.59.15-1.06.46-1.4.31-.35.72-.52,1.25-.52.36,0,.71.09,1.03.26Z"/>
  </g>
  <g class="cls-1">
    <path d="M293.85,286.77h1.02v6.68h1.66v.86h-2.68v-7.54Z"/>
    <path d="M300.93,290.73c0,1.33-.15,2.28-.44,2.84s-.79.84-1.49.84c-.73,0-1.25-.3-1.55-.9-.3-.59-.44-1.64-.44-3.14,0-1.34.15-2.29.44-2.85.3-.56.8-.84,1.5-.84.63,0,1.1.22,1.41.65.2.29.35.7.44,1.24.09.49.14,1.22.14,2.17ZM299.87,290.83c0-1.31-.06-2.17-.18-2.6-.12-.43-.36-.64-.72-.64s-.6.2-.72.59c-.12.4-.18,1.19-.18,2.39,0,1.1.06,1.87.19,2.29.13.4.36.61.71.61s.58-.19.7-.57c.13-.37.19-1.07.19-2.08Z"/>
    <path d="M301.37,286.77h.98l.51,3.5.08.52c.04.28.07.54.09.77l.05.64s0,.05,0,.09c0,.04,0,.1.01.16l.02-.24c.04-.43.08-.82.12-1.18.04-.36.09-.69.14-.99l.54-3.26h.78l.51,3.17c.07.47.14.9.19,1.3.05.4.09.78.12,1.15.03-.38.07-.76.11-1.11.04-.36.08-.71.13-1.05l.07-.5.44-2.95h.97l-1.33,7.54h-.79l-.53-3.26s-.01-.07-.02-.16c-.01-.09-.03-.23-.06-.41l-.1-.75c0-.06-.02-.15-.03-.26-.01-.12-.03-.27-.05-.44l-.02-.31c0,.07-.01.14-.02.2,0,.05-.01.1-.01.14-.02.21-.03.38-.04.5s-.02.19-.02.22l-.1.72c-.02.17-.04.3-.05.39-.01.09-.02.15-.03.18l-.55,3.26h-.82l-1.3-7.54Z"/>
    <path d="M307.87,286.77h1.34c.64,0,1.11.16,1.41.49.29.33.44.85.44,1.56,0,1-.29,1.65-.88,1.94-.3.13-.72.2-1.28.2v3.34h-1.02v-7.54ZM308.88,290.1c.42,0,.71-.08.87-.25.16-.17.24-.48.24-.92s-.08-.78-.23-.99c-.16-.21-.4-.31-.74-.31h-.14v2.47Z"/>
    <path d="M312.68,286.77h.79l1.62,7.54h-1.01l-.28-1.47h-1.49l-.29,1.47h-.98l1.64-7.54ZM313.65,292.05l-.22-1.2c-.15-.82-.27-1.69-.37-2.62-.05.45-.1.91-.18,1.37-.07.46-.16.96-.25,1.48l-.19.97h1.21Z"/>
    <path d="M318.19,286.93v.99c-.31-.22-.59-.33-.83-.33-.27,0-.48.09-.65.28-.17.18-.25.42-.25.72,0,.26.06.49.18.68.06.1.16.23.3.39.14.16.33.35.55.58.41.42.7.78.85,1.09.15.3.22.66.22,1.09,0,.58-.16,1.06-.49,1.44-.33.37-.75.55-1.26.55-.43,0-.8-.12-1.11-.36v-1.01c.36.26.69.4.99.4.28,0,.49-.09.65-.28.16-.18.23-.43.23-.75,0-.27-.06-.52-.18-.74-.06-.1-.15-.22-.26-.36-.11-.13-.25-.29-.41-.45-.26-.25-.47-.48-.64-.67-.17-.19-.29-.37-.38-.51-.16-.29-.23-.65-.23-1.08,0-.59.15-1.06.46-1.4.31-.35.72-.52,1.25-.52.36,0,.71.09,1.03.26Z"/>
    <path d="M321.92,286.93v.99c-.31-.22-.59-.33-.83-.33-.27,0-.48.09-.65.28-.17.18-.25.42-.25.72,0,.26.06.49.18.68.06.1.16.23.31.39.14.16.32.35.55.58.41.42.69.78.84,1.09.15.3.23.66.23,1.09,0,.58-.16,1.06-.49,1.44-.33.37-.75.55-1.26.55-.43,0-.8-.12-1.11-.36v-1.01c.36.26.69.4.99.4.28,0,.49-.09.65-.28.16-.18.23-.43.23-.75,0-.27-.06-.52-.18-.74-.06-.1-.15-.22-.26-.36-.11-.13-.25-.29-.42-.45-.26-.25-.47-.48-.64-.67-.17-.19-.3-.37-.38-.51-.16-.29-.23-.65-.23-1.08,0-.59.15-1.06.46-1.4.31-.35.72-.52,1.25-.52.36,0,.71.09,1.03.26Z"/>
  </g>
  <g class="cls-1">
    <path d="M62.62,286.78h3.31v.89h-1.14v6.65h-1v-6.65h-1.17v-.89Z"/>
    <path d="M67.42,286.78h.79l1.62,7.54h-1.01l-.28-1.47h-1.49l-.29,1.47h-.98l1.64-7.54ZM68.39,292.07l-.22-1.2c-.15-.82-.27-1.69-.37-2.62-.05.45-.1.91-.18,1.37-.07.46-.16.96-.25,1.48l-.19.97h1.21Z"/>
    <path d="M70.43,286.78h1.34c.64,0,1.11.16,1.41.49.29.33.44.85.44,1.56,0,1-.29,1.65-.88,1.94-.3.13-.72.2-1.28.2v3.34h-1.02v-7.54ZM71.44,290.11c.42,0,.71-.08.87-.25.16-.17.24-.48.24-.92s-.08-.78-.23-.99c-.16-.21-.4-.31-.74-.31h-.14v2.47Z"/>
    <path d="M78.69,290.23c.34.12.57.32.7.59.13.27.19.71.19,1.31,0,.78-.13,1.36-.39,1.72-.26.37-.67.55-1.23.55s-.98-.18-1.24-.55c-.26-.37-.39-.94-.39-1.72,0-.6.06-1.04.19-1.31.13-.27.36-.47.7-.59-.3-.13-.51-.32-.63-.58-.12-.27-.19-.64-.19-1.11,0-.32.03-.6.09-.83.06-.23.15-.43.28-.58.13-.15.29-.26.49-.33s.43-.11.71-.11.51.04.7.11c.2.07.36.18.48.33.13.15.22.34.28.58s.09.51.09.83c0,.47-.06.83-.19,1.11-.12.25-.34.45-.63.58ZM78.58,292.25c0-.26-.01-.49-.03-.68-.02-.19-.06-.34-.11-.46s-.12-.2-.2-.26c-.08-.05-.18-.08-.29-.08-.22,0-.38.11-.48.34s-.15.59-.15,1.09c0,.88.21,1.31.63,1.31s.62-.42.62-1.26ZM78.51,288.63c0-.71-.19-1.06-.56-1.06s-.56.35-.56,1.05c0,.78.19,1.17.56,1.17s.56-.39.56-1.16Z"/>
  </g>
  <g class="cls-1">
    <path d="M116.69,330.39v.91c-.26-.13-.48-.19-.65-.19-.24,0-.45.06-.62.18-.17.12-.31.3-.43.55-.11.25-.2.56-.25.94s-.08.83-.08,1.34c0,1.86.48,2.79,1.43,2.79.17,0,.37-.05.6-.16v.93c-.24.14-.52.21-.82.21-1.53,0-2.29-1.25-2.29-3.74,0-1.35.19-2.35.56-3.01.37-.66.94-.99,1.71-.99.28,0,.56.07.84.22Z"/>
    <path d="M117.54,330.27h1.02v6.68h1.66v.86h-2.68v-7.54Z"/>
    <path d="M124.63,334.22c0,1.33-.15,2.28-.44,2.84-.3.56-.79.84-1.49.84-.73,0-1.25-.3-1.55-.9-.3-.59-.44-1.64-.44-3.14,0-1.34.15-2.29.44-2.85.3-.56.8-.84,1.5-.84.63,0,1.1.22,1.41.65.2.29.35.7.44,1.24.09.49.14,1.22.14,2.17ZM123.56,334.33c0-1.31-.06-2.17-.18-2.6-.12-.43-.36-.64-.72-.64s-.6.2-.72.59c-.12.4-.18,1.19-.18,2.39,0,1.1.06,1.87.19,2.29.13.4.36.61.71.61s.58-.19.7-.57c.13-.37.19-1.07.19-2.08Z"/>
    <path d="M128.59,330.39v.91c-.26-.13-.48-.19-.65-.19-.24,0-.45.06-.62.18-.17.12-.31.3-.43.55-.11.25-.2.56-.25.94s-.08.83-.08,1.34c0,1.86.48,2.79,1.43,2.79.17,0,.37-.05.6-.16v.93c-.24.14-.52.21-.82.21-1.53,0-2.29-1.25-2.29-3.74,0-1.35.19-2.35.56-3.01.37-.66.94-.99,1.71-.99.28,0,.56.07.84.22Z"/>
    <path d="M129.45,330.27h1.02v3.65l1.42-3.65h1.03l-1.48,3.65,1.6,3.89h-1.14l-1.42-3.89v3.89h-1.02v-7.54Z"/>
  </g>
  <g class="cls-1">
    <path d="M174.3,330.27h2.72v.86h-1.7v2.38h1.53v.86h-1.53v3.44h-1.02v-7.54Z"/>
    <path d="M177.79,330.27h2.7v.86h-1.68v2.39h1.49v.86h-1.49v2.57h1.68v.86h-2.7v-7.54Z"/>
    <path d="M181.43,330.27h2.7v.86h-1.68v2.39h1.49v.86h-1.49v2.57h1.68v.86h-2.7v-7.54Z"/>
    <path d="M185.06,330.27h1.25c.38,0,.7.04.96.13.24.08.46.23.64.44.28.31.49.72.61,1.22.12.48.18,1.18.18,2.09,0,.83-.07,1.51-.2,2.03-.13.5-.34.88-.64,1.15-.37.33-1.03.49-1.98.49h-.82v-7.54ZM186.07,336.92c.62,0,1.03-.19,1.24-.56.21-.37.32-1.1.32-2.18,0-1.16-.1-1.96-.31-2.4-.21-.44-.58-.65-1.13-.65h-.13v5.8Z"/>
    <path d="M189.71,330.27h1.38c1.08,0,1.62.67,1.62,2.01,0,.51-.07.89-.21,1.14-.14.25-.39.43-.74.56.41.16.68.37.83.62.15.25.23.63.23,1.13,0,1.38-.59,2.07-1.78,2.07h-1.33v-7.54ZM190.67,333.59c.39,0,.67-.09.82-.27.15-.19.23-.53.23-1.01,0-.81-.29-1.22-.88-1.22h-.12s-.04,0-.05,0v2.5ZM190.67,336.94c.42,0,.7-.09.86-.27.16-.18.24-.5.24-.97s-.08-.82-.25-1.01c-.16-.2-.45-.29-.85-.29v2.54Z"/>
    <path d="M194.93,330.27h.79l1.62,7.54h-1.01l-.28-1.47h-1.49l-.29,1.47h-.98l1.64-7.54ZM195.9,335.55l-.22-1.2c-.15-.82-.27-1.69-.37-2.62-.05.45-.1.91-.18,1.37-.07.46-.16.96-.25,1.48l-.19.97h1.21Z"/>
    <path d="M200.83,330.39v.91c-.26-.13-.48-.19-.65-.19-.24,0-.45.06-.62.18-.17.12-.31.3-.43.55-.11.25-.19.56-.25.94s-.08.83-.08,1.34c0,1.86.48,2.79,1.43,2.79.17,0,.37-.05.6-.16v.93c-.24.14-.52.21-.82.21-1.53,0-2.29-1.25-2.29-3.74,0-1.35.19-2.35.56-3.01.37-.66.94-.99,1.71-.99.28,0,.56.07.84.22Z"/>
    <path d="M201.68,330.27h1.02v3.65l1.42-3.65h1.03l-1.48,3.65,1.6,3.89h-1.14l-1.42-3.89v3.89h-1.02v-7.54Z"/>
  </g>
  <g class="cls-1">
    <path d="M217.22,330.27h1.02v2.95h1.49v-2.95h1.02v7.54h-1.02v-3.73h-1.49v3.73h-1.02v-7.54Z"/>
    <path d="M221.9,330.27h1.34c.64,0,1.11.16,1.41.49.29.33.44.85.44,1.56,0,1-.3,1.65-.88,1.94-.3.13-.72.2-1.28.2v3.34h-1.02v-7.54ZM222.92,333.59c.42,0,.71-.08.87-.25.16-.17.24-.48.24-.92s-.08-.78-.23-.99c-.16-.21-.4-.31-.74-.31h-.14v2.47Z"/>
    <path d="M225.87,330.27h2.71v.86h-1.7v2.38h1.53v.86h-1.53v3.44h-1.02v-7.54Z"/>
  </g>
  <g class="cls-1">
    <path d="M251.11,330.27h1.02v6.68h1.66v.86h-2.68v-7.54Z"/>
    <path d="M254.42,330.27h1.34c.64,0,1.11.16,1.41.49.29.33.44.85.44,1.56,0,1-.29,1.65-.88,1.94-.3.13-.72.2-1.28.2v3.34h-1.02v-7.54ZM255.44,333.59c.42,0,.71-.08.87-.25.16-.17.24-.48.24-.92s-.08-.78-.23-.99c-.16-.21-.4-.31-.74-.31h-.14v2.47Z"/>
    <path d="M258.39,330.27h2.71v.86h-1.7v2.38h1.53v.86h-1.53v3.44h-1.02v-7.54Z"/>
  </g>
  <g class="cls-1">
    <path d="M148.91,330.15h3.31v.89h-1.14v6.65h-1v-6.65h-1.17v-.89Z"/>
    <path d="M152.78,330.15h1.02v7.54h-1.02v-7.54Z"/>
    <path d="M155.31,330.15h.87l.66,3.08c.08.38.16.77.22,1.15.07.39.13.79.18,1.21,0-.05.01-.1.01-.13,0-.03,0-.05,0-.07l.14-.86.13-.82.11-.54.59-3.02h.88l.69,7.54h-.97l-.17-2.56c0-.13-.01-.24-.02-.34s0-.17,0-.23l-.04-1.01-.02-.93s0-.02,0-.04c0-.02,0-.05,0-.09l-.02.15c-.03.18-.05.33-.07.47-.02.13-.04.25-.06.34l-.13.69-.05.26-.64,3.29h-.68l-.6-2.84c-.08-.37-.15-.75-.22-1.14-.06-.39-.12-.79-.17-1.21l-.29,5.2h-.96l.62-7.54Z"/>
    <path d="M160.66,330.15h2.7v.86h-1.68v2.39h1.49v.86h-1.49v2.57h1.68v.86h-2.7v-7.54Z"/>
  </g>
  <g class="cls-1">
    <path d="M36.15,338.54h1.02v7.54h-1.02v-7.54Z"/>
    <path d="M38.33,338.54h.95l1.01,3.01c.29.85.55,1.76.78,2.72-.08-.58-.14-1.11-.18-1.58-.04-.47-.06-.92-.06-1.33v-2.81h1.02v7.54h-.95l-1.14-3.39c-.1-.32-.2-.64-.3-.97-.09-.33-.18-.68-.26-1.04,0-.05-.02-.1-.03-.17s-.03-.14-.05-.22c0,.08.02.16.02.22s.01.11.01.15l.05.77.05.93c0,.05,0,.12,0,.19,0,.07,0,.16,0,.25l.05,3.29h-1v-7.54Z"/>
  </g>
  <g class="cls-1">
    <path d="M303.43,342.49c0,1.33-.15,2.28-.44,2.84s-.79.84-1.49.84c-.73,0-1.25-.3-1.55-.9-.3-.59-.44-1.64-.44-3.14,0-1.34.15-2.29.44-2.85.3-.56.8-.84,1.5-.84.63,0,1.1.22,1.41.65.2.29.35.7.44,1.24.09.49.14,1.22.14,2.17ZM302.36,342.6c0-1.31-.06-2.17-.18-2.6-.12-.43-.36-.64-.72-.64s-.6.2-.72.59c-.12.4-.18,1.19-.18,2.39,0,1.1.06,1.87.19,2.29.13.4.36.61.71.61s.58-.19.7-.57c.13-.37.19-1.07.19-2.08Z"/>
    <path d="M304.43,338.54h1v5.33c0,.54.05.91.15,1.08.1.18.3.27.6.27s.49-.08.59-.23c.1-.16.15-.48.15-.97v-5.47h1v5.47c0,.82-.13,1.38-.38,1.66-.3.33-.76.49-1.37.49-.68,0-1.15-.21-1.43-.64-.19-.29-.29-.85-.29-1.67v-5.33Z"/>
    <path d="M308.46,338.54h3.31v.89h-1.14v6.65h-1v-6.65h-1.17v-.89Z"/>
  </g>
  <g class="cls-1">
    <path d="M14.3,76.72v-7.54h1.58c.76,0,1.36.07,1.8.22.47.15.9.4,1.28.75.78.71,1.17,1.64,1.17,2.8s-.41,2.1-1.22,2.81c-.41.36-.83.61-1.28.75-.42.14-1.01.21-1.77.21h-1.56ZM15.44,75.65h.51c.51,0,.94-.05,1.27-.16.34-.11.64-.29.92-.54.56-.51.84-1.18.84-2s-.28-1.5-.83-2.01c-.5-.46-1.23-.69-2.2-.69h-.51v5.4Z"/>
    <path d="M24.12,73.5l2.33,3.21h-1.39l-2.15-3.09h-.21v3.09h-1.14v-7.54h1.33c1,0,1.72.19,2.16.56.49.42.73.97.73,1.65,0,.53-.15.99-.46,1.38-.31.38-.71.63-1.21.74ZM22.7,72.64h.36c1.08,0,1.62-.41,1.62-1.23,0-.77-.52-1.16-1.57-1.16h-.41v2.39Z"/>
    <path d="M28.78,73.46l-2.46-4.28h1.31l1.72,3.01,1.73-3.01h1.31l-2.47,4.28v3.26h-1.14v-3.26Z"/>
  </g>
  <g class="cls-1">
    <path d="M134.45,71.8v-.97c.48,0,.81-.05.97-.16.3-.19.44-.49.44-.91,0-.32-.11-.58-.32-.79-.21-.21-.49-.31-.83-.31-.32,0-.56.08-.73.23-.17.16-.29.42-.37.79h-1.13c.12-.71.36-1.23.72-1.56.36-.33.87-.5,1.53-.5s1.2.19,1.62.59c.42.39.63.89.63,1.5,0,.69-.27,1.23-.82,1.61.63.37.94.97.94,1.79,0,.68-.23,1.23-.68,1.66-.46.43-1.04.64-1.75.64-.91,0-1.58-.33-2.02-1-.18-.28-.3-.67-.35-1.16h1.1c.06.36.2.64.43.84.23.19.52.29.89.29s.67-.12.91-.37c.24-.25.36-.57.36-.95,0-.51-.18-.87-.54-1.08-.21-.12-.54-.19-.98-.19Z"/>
  </g>
  <g class="cls-1">
    <path d="M59.98,69.39h-1.3l.63-1.06h1.82v7.54h-1.14v-6.47Z"/>
  </g>
  <g class="cls-1">
    <path d="M97.02,74.51h2.81v1.07h-5.06l2.62-3.17c.26-.32.47-.59.65-.82.17-.23.31-.42.4-.58.19-.31.28-.58.28-.83,0-.35-.12-.65-.37-.88-.25-.24-.55-.36-.92-.36-.76,0-1.2.45-1.31,1.35h-1.13c.18-1.59.98-2.38,2.41-2.38.69,0,1.26.22,1.73.65.47.44.7.98.7,1.62,0,.41-.11.81-.33,1.21-.11.21-.27.45-.49.73-.21.28-.48.61-.81,1l-1.17,1.39Z"/>
  </g>
  <g class="cls-1">
    <path d="M174.14,74.19h.8v1.03h-.8v1.07h-1.14v-1.07h-3.7l4.84-7.03v6ZM173,74.19v-2.52l-1.74,2.52h1.74Z"/>
  </g>
  <g class="cls-1">
    <path d="M285.29,68.4h-3.72v-1.06h5.62l-4.76,7.8-.9-.57,3.76-6.16Z"/>
  </g>
  <g class="cls-1">
    <path d="M320.35,70.53c-.55-.39-.83-.92-.83-1.6,0-.61.21-1.12.63-1.53.42-.41.95-.62,1.58-.62s1.15.21,1.56.62c.42.41.62.92.62,1.54s-.27,1.18-.82,1.59c.3.16.54.4.71.71.18.31.26.66.26,1.05,0,.67-.22,1.21-.65,1.64-.44.43-.99.64-1.68.64s-1.27-.22-1.72-.64c-.46-.43-.68-.97-.68-1.62,0-.85.34-1.44,1.02-1.78ZM320.44,72.27c0,.35.12.65.36.9.24.25.54.37.89.37s.64-.12.88-.37c.24-.25.37-.54.37-.89s-.12-.64-.37-.89c-.24-.24-.54-.37-.88-.37s-.64.12-.88.37c-.24.24-.37.54-.37.87ZM320.58,68.93c0,.32.11.59.33.81s.49.33.8.33.57-.11.8-.33c.22-.22.33-.49.33-.8s-.11-.57-.33-.8c-.22-.22-.49-.33-.8-.33s-.57.11-.8.33-.33.48-.33.78Z"/>
  </g>
  <g class="cls-1">
    <path d="M211.82,68.97h-2.32l-.37,1.25c.05,0,.11-.01.16-.01.05,0,.1,0,.14,0,.73,0,1.33.25,1.8.74.47.49.71,1.12.71,1.89s-.27,1.45-.8,1.96c-.53.51-1.21.77-2.02.77-1,0-1.79-.47-2.36-1.41l.86-.73c.24.4.48.69.72.85.24.16.54.24.88.24.46,0,.84-.16,1.15-.48.31-.33.46-.73.46-1.2s-.15-.88-.46-1.18c-.31-.32-.69-.47-1.15-.47-.51,0-.95.22-1.32.67h-.38l1.19-3.96h3.12v1.06Z"/>
  </g>
  <g class="cls-1">
    <path d="M247.84,67.35l.83.62-1.8,2.45c.1-.01.18-.02.25-.03s.12-.01.16-.01c.61,0,1.14.23,1.59.7.44.46.66,1.02.66,1.67,0,.69-.25,1.28-.74,1.78-.49.49-1.08.74-1.77.74s-1.28-.24-1.8-.73c-.51-.48-.76-1.06-.76-1.72,0-.6.25-1.23.74-1.89l2.64-3.58ZM248.43,72.84c0-.4-.14-.74-.42-1.02-.28-.28-.62-.42-1.01-.42s-.73.14-1.01.42-.41.61-.41,1.01.14.73.41,1.01c.28.28.62.41,1.02.41s.72-.14,1-.41c.28-.28.42-.61.42-.99Z"/>
  </g>
  <g class="cls-1">
    <path d="M115.74,7.99c.5,0,.93.19,1.29.56.36.37.54.82.54,1.34s-.18.98-.54,1.35c-.36.37-.8.56-1.32.56s-.95-.19-1.32-.56c-.36-.38-.54-.82-.54-1.34s.18-.98.55-1.35c.37-.37.82-.56,1.34-.56Z"/>
    <path d="M127.52,6.74v7.76h-1.37v-7.76h-2.08v-1.28h5.52v1.28h-2.07Z"/>
    <path d="M135.63,12.31h-3.87l-1.01,2.2h-1.47l4.48-9.62,4.32,9.62h-1.49l-.95-2.2ZM135.08,11.02l-1.34-3.08-1.41,3.08h2.75Z"/>
    <path d="M140.57,10.83v3.67h-1.37V5.46h1.55c.76,0,1.33.05,1.72.16.39.11.73.3,1.03.6.52.51.78,1.15.78,1.92,0,.83-.28,1.48-.83,1.97-.55.48-1.3.73-2.24.73h-.63ZM140.57,9.56h.51c1.25,0,1.88-.48,1.88-1.45s-.65-1.4-1.94-1.4h-.45v2.85Z"/>
    <path d="M144.64,11.03h2.61v1.15h-2.61v-1.15Z"/>
    <path d="M147.88,9.94c0-1.27.47-2.37,1.4-3.28.93-.91,2.05-1.37,3.35-1.37s2.4.46,3.32,1.38c.93.92,1.39,2.03,1.39,3.32s-.46,2.4-1.39,3.31c-.93.91-2.06,1.37-3.38,1.37-1.17,0-2.22-.4-3.15-1.21-1.02-.89-1.54-2.07-1.54-3.52ZM149.26,9.96c0,1,.34,1.82,1.01,2.47.67.64,1.44.97,2.31.97.95,0,1.75-.33,2.4-.98.65-.66.98-1.47.98-2.43s-.32-1.77-.97-2.43c-.64-.66-1.43-.98-2.38-.98s-1.74.33-2.38.98c-.65.65-.97,1.45-.97,2.4Z"/>
    <path d="M157.97,11.03h2.61v1.15h-2.61v-1.15Z"/>
    <path d="M161.35,14.5l1.9-9.73,3.11,7.03,3.22-7.03,1.71,9.73h-1.4l-.87-5.46-2.68,5.88-2.6-5.88-.97,5.47h-1.41Z"/>
    <path d="M178.52,12.31h-3.87l-1.01,2.2h-1.47l4.48-9.62,4.32,9.62h-1.49l-.95-2.2ZM177.97,11.02l-1.34-3.08-1.41,3.08h2.75Z"/>
    <path d="M184.09,6.74v7.76h-1.37v-7.76h-2.08v-1.28h5.52v1.28h-2.07Z"/>
    <path d="M188.75,5.46v9.05h-1.37V5.46h1.37Z"/>
    <path d="M197.61,5.94v1.62c-.79-.66-1.61-.99-2.45-.99-.93,0-1.71.33-2.35,1-.64.66-.96,1.48-.96,2.44s.32,1.75.96,2.4c.64.65,1.43.98,2.36.98.48,0,.89-.08,1.22-.23.19-.08.38-.18.58-.32.2-.13.41-.29.64-.48v1.65c-.78.44-1.6.66-2.46.66-1.29,0-2.4-.45-3.31-1.35-.91-.91-1.37-2.01-1.37-3.29,0-1.15.38-2.18,1.14-3.08.94-1.11,2.15-1.66,3.64-1.66.81,0,1.6.22,2.36.66Z"/>
    <path d="M203.03,14.5V5.46h1.9c.91,0,1.63.09,2.16.27.57.18,1.08.47,1.54.9.93.85,1.4,1.97,1.4,3.36s-.49,2.52-1.46,3.38c-.49.43-1,.73-1.54.9-.5.17-1.21.25-2.13.25h-1.88ZM204.4,13.22h.62c.61,0,1.12-.06,1.53-.19.41-.14.77-.35,1.1-.65.67-.61,1.01-1.41,1.01-2.4s-.33-1.8-1-2.41c-.6-.55-1.48-.83-2.64-.83h-.62v6.48Z"/>
    <path d="M216.74,6.74h-3.63v2.17h3.52v1.28h-3.52v3.02h3.63v1.28h-4.99V5.46h4.99v1.28Z"/>
    <path d="M219.9,5.46v7.76h2.66v1.28h-4.03V5.46h1.37Z"/>
    <path d="M229.67,12.31h-3.87l-1.01,2.2h-1.47l4.48-9.62,4.32,9.62h-1.49l-.95-2.2ZM229.11,11.02l-1.34-3.08-1.41,3.08h2.75Z"/>
    <path d="M234.28,10.59l-2.95-5.14h1.57l2.07,3.62,2.07-3.62h1.57l-2.96,5.14v3.91h-1.37v-3.91Z"/>
    <path d="M246.82,7.99c.5,0,.93.19,1.29.56.36.37.54.82.54,1.34s-.18.98-.54,1.35c-.36.37-.8.56-1.32.56s-.95-.19-1.32-.56c-.36-.38-.54-.82-.54-1.34s.18-.98.55-1.35.82-.56,1.34-.56Z"/>
  </g>
  <g class="cls-1">
    <path d="M268.77,251.4h1.34c.64,0,1.11.16,1.41.49.29.33.44.85.44,1.56,0,1-.3,1.65-.88,1.94-.3.13-.72.2-1.28.2v3.34h-1.02v-7.54ZM269.78,254.72c.42,0,.71-.08.87-.25.16-.17.24-.48.24-.92s-.08-.78-.23-.99c-.16-.21-.4-.31-.74-.31h-.14v2.47Z"/>
    <path d="M272.73,251.4h1.34c.55,0,.97.13,1.24.4.34.34.51.86.51,1.57,0,.54-.09.97-.27,1.3-.18.33-.44.53-.77.61l1.39,3.67h-1.03l-1.38-3.69v3.69h-1.02v-7.54ZM273.75,254.74c.39,0,.67-.09.83-.27s.24-.49.24-.92c0-.23-.02-.43-.05-.6-.03-.17-.09-.3-.16-.41s-.17-.18-.28-.23c-.12-.05-.25-.07-.41-.07h-.17v2.5Z"/>
    <path d="M276.95,251.4h2.7v.86h-1.68v2.39h1.49v.86h-1.49v2.57h1.68v.86h-2.7v-7.54Z"/>
  </g>
  <g class="cls-1">
    <path d="M266.73,286.76h1.34c.64,0,1.11.16,1.41.49.29.33.44.85.44,1.56,0,1-.29,1.65-.88,1.94-.3.13-.72.2-1.28.2v3.34h-1.02v-7.54ZM267.75,290.08c.42,0,.71-.08.87-.25.16-.17.24-.48.24-.92s-.08-.78-.23-.99c-.16-.21-.4-.31-.74-.31h-.14v2.47Z"/>
    <path d="M274.47,290.71c0,1.33-.15,2.28-.44,2.84-.3.56-.79.84-1.49.84-.73,0-1.25-.3-1.55-.9-.3-.59-.44-1.64-.44-3.14,0-1.34.15-2.29.44-2.85.3-.56.8-.84,1.5-.84.63,0,1.1.22,1.41.65.2.29.35.7.44,1.24.09.49.14,1.22.14,2.17ZM273.41,290.82c0-1.31-.06-2.17-.18-2.6-.12-.43-.36-.64-.72-.64s-.6.2-.72.59c-.12.4-.18,1.19-.18,2.39,0,1.1.06,1.87.19,2.29.13.4.36.61.71.61s.58-.19.7-.57c.13-.37.19-1.07.19-2.08Z"/>
    <path d="M277.99,286.92v.99c-.31-.22-.59-.33-.83-.33-.27,0-.48.09-.65.28-.17.18-.25.42-.25.72,0,.26.06.49.18.68.06.1.16.23.31.39.14.16.32.35.55.58.41.42.69.78.84,1.09.15.3.23.66.23,1.09,0,.58-.16,1.06-.49,1.44-.33.37-.75.55-1.26.55-.43,0-.8-.12-1.11-.36v-1.01c.36.26.69.4.99.4.28,0,.49-.09.65-.28.16-.18.23-.43.23-.75,0-.27-.06-.52-.18-.74-.06-.1-.15-.22-.26-.36-.11-.13-.25-.29-.42-.45-.26-.25-.47-.48-.64-.67-.17-.19-.3-.37-.38-.51-.16-.29-.23-.65-.23-1.08,0-.59.15-1.06.46-1.4.31-.35.72-.52,1.25-.52.36,0,.71.09,1.03.26Z"/>
    <path d="M278.73,286.76h3.31v.89h-1.14v6.65h-1v-6.65h-1.17v-.89Z"/>
  </g>
</svg>