%TF.GenerationSoftware,KiCad,Pcbnew,8.0.5*%
%TF.CreationDate,2025-05-28T17:10:50-07:00*%
%TF.ProjectId,TapOMatic_FrontPanel,5461704f-4d61-4746-9963-5f46726f6e74,rev?*%
%TF.SameCoordinates,Original*%
%TF.FileFunction,Soldermask,Bot*%
%TF.FilePolarity,Negative*%
%FSLAX46Y46*%
G04 Gerber Fmt 4.6, Leading zero omitted, Abs format (unit mm)*
G04 Created by KiCad (PCBNEW 8.0.5) date 2025-05-28 17:10:50*
%MOMM*%
%LPD*%
G01*
G04 APERTURE LIST*
%ADD10C,0.250000*%
G04 APERTURE END LIST*
D10*
G36*
X114726103Y-139715411D02*
G01*
X113160995Y-139715411D01*
X113160995Y-139934253D01*
X113802865Y-139934253D01*
X113802865Y-141778775D01*
X114081791Y-141778775D01*
X114081791Y-139934253D01*
X114726103Y-139934253D01*
X114726103Y-139715411D01*
G37*
G36*
X112338477Y-140216719D02*
G01*
X112438990Y-140226642D01*
X112542084Y-140246883D01*
X112615277Y-140266942D01*
X112715752Y-140301380D01*
X112810751Y-140340673D01*
X112810751Y-140590777D01*
X112747797Y-140554751D01*
X112651764Y-140509414D01*
X112553808Y-140474518D01*
X112496245Y-140458910D01*
X112398220Y-140441073D01*
X112292956Y-140434462D01*
X112188169Y-140440837D01*
X112092132Y-140462877D01*
X111999376Y-140515062D01*
X111950547Y-140574978D01*
X111915376Y-140672064D01*
X111905587Y-140773959D01*
X111905587Y-140809619D01*
X112245085Y-140809619D01*
X112265779Y-140809748D01*
X112364531Y-140814256D01*
X112472643Y-140828166D01*
X112569420Y-140851350D01*
X112668002Y-140890119D01*
X112751156Y-140941510D01*
X112761765Y-140949872D01*
X112834511Y-141025359D01*
X112885703Y-141116110D01*
X112915340Y-141222127D01*
X112923591Y-141327414D01*
X112918662Y-141406903D01*
X112896757Y-141503166D01*
X112851166Y-141598177D01*
X112783396Y-141679123D01*
X112707375Y-141736398D01*
X112607693Y-141781272D01*
X112506500Y-141803773D01*
X112408239Y-141810038D01*
X112303529Y-141803502D01*
X112200360Y-141781216D01*
X112109774Y-141743115D01*
X112036940Y-141694085D01*
X111966299Y-141623513D01*
X111905587Y-141535509D01*
X111905587Y-141778775D01*
X111651574Y-141778775D01*
X111651574Y-141052885D01*
X111905587Y-141052885D01*
X111911885Y-141157948D01*
X111932936Y-141265254D01*
X111968763Y-141358944D01*
X112026731Y-141448070D01*
X112074571Y-141496710D01*
X112158115Y-141550802D01*
X112255801Y-141582251D01*
X112354505Y-141591196D01*
X112399337Y-141589347D01*
X112501166Y-141567239D01*
X112587025Y-141515481D01*
X112611089Y-141490188D01*
X112656770Y-141403635D01*
X112670556Y-141302501D01*
X112666623Y-141248176D01*
X112631119Y-141148617D01*
X112558692Y-141073890D01*
X112529017Y-141055915D01*
X112429778Y-141018842D01*
X112329348Y-141001991D01*
X112225545Y-140997197D01*
X112142014Y-140997197D01*
X111905587Y-140997197D01*
X111905587Y-141052885D01*
X111651574Y-141052885D01*
X111651574Y-140898035D01*
X111652948Y-140805528D01*
X111658530Y-140707239D01*
X111673556Y-140602012D01*
X111698587Y-140521416D01*
X111747806Y-140435927D01*
X111792808Y-140384209D01*
X111872446Y-140319683D01*
X111966648Y-140270819D01*
X111983779Y-140264135D01*
X112085778Y-140235080D01*
X112189925Y-140219987D01*
X112292956Y-140215620D01*
X112338477Y-140216719D01*
G37*
G36*
X110546175Y-140217767D02*
G01*
X110647625Y-140237147D01*
X110738595Y-140276681D01*
X110776502Y-140301336D01*
X110848501Y-140368070D01*
X110906634Y-140453024D01*
X110906634Y-140246883D01*
X111161135Y-140246883D01*
X111161135Y-142372773D01*
X110906634Y-142372773D01*
X110906634Y-141572634D01*
X110886620Y-141607476D01*
X110824425Y-141685565D01*
X110741037Y-141749465D01*
X110693406Y-141773067D01*
X110596018Y-141801520D01*
X110495817Y-141810038D01*
X110428299Y-141806748D01*
X110319032Y-141785160D01*
X110221078Y-141743422D01*
X110134438Y-141681536D01*
X110059111Y-141599500D01*
X110013234Y-141529667D01*
X109968446Y-141435603D01*
X109934855Y-141330342D01*
X109915416Y-141234071D01*
X109903753Y-141130024D01*
X109899865Y-141018202D01*
X109900010Y-141012829D01*
X110165112Y-141012829D01*
X110165475Y-141048122D01*
X110170913Y-141147407D01*
X110185506Y-141250737D01*
X110213059Y-141352342D01*
X110257925Y-141445627D01*
X110263783Y-141454583D01*
X110332076Y-141528505D01*
X110427584Y-141576980D01*
X110532942Y-141591196D01*
X110555613Y-141590622D01*
X110658491Y-141570519D01*
X110743909Y-141521699D01*
X110811868Y-141444162D01*
X110823343Y-141425189D01*
X110865821Y-141326636D01*
X110890994Y-141220932D01*
X110903302Y-141114466D01*
X110906634Y-141012829D01*
X110906264Y-140977711D01*
X110900711Y-140878862D01*
X110885811Y-140775866D01*
X110857677Y-140674413D01*
X110811868Y-140581008D01*
X110799673Y-140563262D01*
X110728222Y-140491706D01*
X110639312Y-140448773D01*
X110532942Y-140434462D01*
X110521612Y-140434605D01*
X110418019Y-140451721D01*
X110324452Y-140503497D01*
X110257925Y-140580519D01*
X110246686Y-140599267D01*
X110205083Y-140697279D01*
X110180430Y-140803151D01*
X110168375Y-140910264D01*
X110165112Y-141012829D01*
X109900010Y-141012829D01*
X109902345Y-140926604D01*
X109912423Y-140819297D01*
X109930252Y-140719980D01*
X109961880Y-140611347D01*
X110004670Y-140514221D01*
X110058623Y-140428600D01*
X110111156Y-140367244D01*
X110194521Y-140298815D01*
X110289339Y-140250770D01*
X110395611Y-140223108D01*
X110495817Y-140215620D01*
X110546175Y-140217767D01*
G37*
G36*
X109597492Y-140778356D02*
G01*
X108141316Y-140778356D01*
X108141316Y-140997197D01*
X109597492Y-140997197D01*
X109597492Y-140778356D01*
G37*
G36*
X107270231Y-139686466D02*
G01*
X107368990Y-139700634D01*
X107476134Y-139734637D01*
X107570879Y-139787188D01*
X107653226Y-139858285D01*
X107723172Y-139947930D01*
X107753465Y-139999698D01*
X107797331Y-140096643D01*
X107832920Y-140206922D01*
X107855432Y-140304746D01*
X107872648Y-140411102D01*
X107884566Y-140525991D01*
X107891187Y-140649414D01*
X107892677Y-140747581D01*
X107892512Y-140780956D01*
X107888551Y-140909065D01*
X107879308Y-141028550D01*
X107864783Y-141139409D01*
X107844976Y-141241644D01*
X107812791Y-141357309D01*
X107772352Y-141459497D01*
X107723661Y-141548209D01*
X107690399Y-141595001D01*
X107614447Y-141674777D01*
X107525924Y-141736143D01*
X107424831Y-141779099D01*
X107311166Y-141803645D01*
X107206843Y-141810038D01*
X107143285Y-141807723D01*
X107044299Y-141793582D01*
X106936978Y-141759642D01*
X106842158Y-141707188D01*
X106759841Y-141636223D01*
X106690025Y-141546744D01*
X106659646Y-141494898D01*
X106615653Y-141397878D01*
X106579961Y-141287596D01*
X106557384Y-141189823D01*
X106540119Y-141083562D01*
X106528167Y-140968814D01*
X106521526Y-140845578D01*
X106520032Y-140747581D01*
X106810193Y-140747581D01*
X106810283Y-140775781D01*
X106812459Y-140883484D01*
X106817534Y-140983036D01*
X106827958Y-141096013D01*
X106842913Y-141196252D01*
X106866841Y-141299727D01*
X106903005Y-141397267D01*
X106941817Y-141463173D01*
X107015748Y-141536464D01*
X107108535Y-141579075D01*
X107206843Y-141591196D01*
X107281656Y-141584344D01*
X107378355Y-141548370D01*
X107456429Y-141481561D01*
X107510193Y-141396290D01*
X107515873Y-141383856D01*
X107550584Y-141282656D01*
X107573305Y-141176193D01*
X107587279Y-141073568D01*
X107596746Y-140958302D01*
X107601074Y-140856987D01*
X107602517Y-140747581D01*
X107602426Y-140719411D01*
X107600263Y-140611807D01*
X107595214Y-140512324D01*
X107584845Y-140399390D01*
X107569969Y-140299146D01*
X107546167Y-140195602D01*
X107510193Y-140097895D01*
X107471249Y-140031658D01*
X107397314Y-139957997D01*
X107304754Y-139915171D01*
X107206843Y-139902989D01*
X107131716Y-139909842D01*
X107034738Y-139945815D01*
X106956616Y-140012624D01*
X106903005Y-140097895D01*
X106897295Y-140110331D01*
X106862400Y-140211590D01*
X106839559Y-140318179D01*
X106825510Y-140420962D01*
X106815993Y-140536433D01*
X106811643Y-140637947D01*
X106810193Y-140747581D01*
X106520032Y-140747581D01*
X106520198Y-140714326D01*
X106524182Y-140586636D01*
X106533479Y-140467480D01*
X106548088Y-140356857D01*
X106568009Y-140254767D01*
X106600380Y-140139155D01*
X106641053Y-140036876D01*
X106690025Y-139947930D01*
X106723370Y-139900789D01*
X106799436Y-139820418D01*
X106888005Y-139758594D01*
X106989076Y-139715317D01*
X107102649Y-139690588D01*
X107206843Y-139684148D01*
X107270231Y-139686466D01*
G37*
G36*
X106228895Y-140778356D02*
G01*
X104772719Y-140778356D01*
X104772719Y-140997197D01*
X106228895Y-140997197D01*
X106228895Y-140778356D01*
G37*
G36*
X104635454Y-139746674D02*
G01*
X104264694Y-139746674D01*
X103910053Y-140781775D01*
X103552482Y-139746674D01*
X103180256Y-139746674D01*
X103180256Y-141778775D01*
X103437199Y-141778775D01*
X103437199Y-139983101D01*
X103802586Y-141060212D01*
X104013124Y-141060212D01*
X104379976Y-139983101D01*
X104379976Y-141778775D01*
X104635454Y-141778775D01*
X104635454Y-139746674D01*
G37*
G36*
X102232685Y-140216719D02*
G01*
X102333198Y-140226642D01*
X102436292Y-140246883D01*
X102509485Y-140266942D01*
X102609960Y-140301380D01*
X102704959Y-140340673D01*
X102704959Y-140590777D01*
X102642005Y-140554751D01*
X102545972Y-140509414D01*
X102448015Y-140474518D01*
X102390453Y-140458910D01*
X102292428Y-140441073D01*
X102187164Y-140434462D01*
X102082377Y-140440837D01*
X101986340Y-140462877D01*
X101893584Y-140515062D01*
X101844755Y-140574978D01*
X101809584Y-140672064D01*
X101799795Y-140773959D01*
X101799795Y-140809619D01*
X102139293Y-140809619D01*
X102159987Y-140809748D01*
X102258739Y-140814256D01*
X102366851Y-140828166D01*
X102463628Y-140851350D01*
X102562209Y-140890119D01*
X102645364Y-140941510D01*
X102655973Y-140949872D01*
X102728719Y-141025359D01*
X102779910Y-141116110D01*
X102809548Y-141222127D01*
X102817799Y-141327414D01*
X102812870Y-141406903D01*
X102790965Y-141503166D01*
X102745374Y-141598177D01*
X102677604Y-141679123D01*
X102601583Y-141736398D01*
X102501901Y-141781272D01*
X102400708Y-141803773D01*
X102302447Y-141810038D01*
X102197737Y-141803502D01*
X102094568Y-141781216D01*
X102003982Y-141743115D01*
X101931148Y-141694085D01*
X101860507Y-141623513D01*
X101799795Y-141535509D01*
X101799795Y-141778775D01*
X101545782Y-141778775D01*
X101545782Y-141052885D01*
X101799795Y-141052885D01*
X101806093Y-141157948D01*
X101827143Y-141265254D01*
X101862971Y-141358944D01*
X101920939Y-141448070D01*
X101968779Y-141496710D01*
X102052322Y-141550802D01*
X102150009Y-141582251D01*
X102248713Y-141591196D01*
X102293545Y-141589347D01*
X102395373Y-141567239D01*
X102481232Y-141515481D01*
X102505297Y-141490188D01*
X102550978Y-141403635D01*
X102564764Y-141302501D01*
X102560831Y-141248176D01*
X102525327Y-141148617D01*
X102452900Y-141073890D01*
X102423225Y-141055915D01*
X102323986Y-141018842D01*
X102223556Y-141001991D01*
X102119753Y-140997197D01*
X102036222Y-140997197D01*
X101799795Y-140997197D01*
X101799795Y-141052885D01*
X101545782Y-141052885D01*
X101545782Y-140898035D01*
X101547156Y-140805528D01*
X101552738Y-140707239D01*
X101567764Y-140602012D01*
X101592795Y-140521416D01*
X101642014Y-140435927D01*
X101687016Y-140384209D01*
X101766654Y-140319683D01*
X101860856Y-140270819D01*
X101877987Y-140264135D01*
X101979986Y-140235080D01*
X102084133Y-140219987D01*
X102187164Y-140215620D01*
X102232685Y-140216719D01*
G37*
G36*
X100472579Y-139809200D02*
G01*
X100472579Y-140246883D01*
X99898120Y-140246883D01*
X99898120Y-140434462D01*
X100472579Y-140434462D01*
X100472579Y-141281985D01*
X100466282Y-141379853D01*
X100439269Y-141476559D01*
X100408099Y-141523296D01*
X100319561Y-141574221D01*
X100221582Y-141590135D01*
X100182907Y-141591196D01*
X99898120Y-141591196D01*
X99898120Y-141778775D01*
X100207332Y-141778775D01*
X100308219Y-141774842D01*
X100410988Y-141760313D01*
X100508746Y-141730599D01*
X100593617Y-141680457D01*
X100608867Y-141666911D01*
X100670433Y-141581255D01*
X100706347Y-141477244D01*
X100721510Y-141378716D01*
X100725615Y-141281985D01*
X100725615Y-140434462D01*
X101136431Y-140434462D01*
X101136431Y-140246883D01*
X100725615Y-140246883D01*
X100725615Y-139809200D01*
X100472579Y-139809200D01*
G37*
G36*
X99197632Y-140246883D02*
G01*
X98550877Y-140246883D01*
X98550877Y-141591196D01*
X98049202Y-141591196D01*
X98049202Y-141778775D01*
X99305099Y-141778775D01*
X99305099Y-141591196D01*
X98803424Y-141591196D01*
X98803424Y-140434462D01*
X99197632Y-140434462D01*
X99197632Y-140246883D01*
G37*
G36*
X98803424Y-139652885D02*
G01*
X98550877Y-139652885D01*
X98550877Y-139965516D01*
X98803424Y-139965516D01*
X98803424Y-139652885D01*
G37*
G36*
X96489955Y-141684985D02*
G01*
X96580075Y-141733712D01*
X96672626Y-141770470D01*
X96699516Y-141778775D01*
X96801690Y-141801214D01*
X96905796Y-141809915D01*
X96919823Y-141810038D01*
X97027748Y-141804874D01*
X97128040Y-141789382D01*
X97238316Y-141757159D01*
X97337600Y-141710064D01*
X97425894Y-141648097D01*
X97478650Y-141598523D01*
X97547046Y-141513487D01*
X97601291Y-141417013D01*
X97641385Y-141309101D01*
X97663987Y-141210438D01*
X97676762Y-141103832D01*
X97679907Y-141012829D01*
X97674993Y-140899869D01*
X97660253Y-140794852D01*
X97635685Y-140697777D01*
X97593233Y-140591772D01*
X97536630Y-140497204D01*
X97478650Y-140427135D01*
X97397684Y-140355253D01*
X97305727Y-140298243D01*
X97202778Y-140256105D01*
X97088839Y-140228840D01*
X96985494Y-140217479D01*
X96919823Y-140215620D01*
X96816940Y-140222382D01*
X96716204Y-140242668D01*
X96702935Y-140246395D01*
X96609997Y-140279347D01*
X96516685Y-140325201D01*
X96489955Y-140340673D01*
X96489955Y-140590777D01*
X96571480Y-140531280D01*
X96659636Y-140484157D01*
X96691212Y-140471587D01*
X96791804Y-140444940D01*
X96896149Y-140434788D01*
X96919823Y-140434462D01*
X97018642Y-140441638D01*
X97118697Y-140467413D01*
X97214838Y-140518817D01*
X97285699Y-140584427D01*
X97341478Y-140667439D01*
X97381320Y-140766510D01*
X97403108Y-140866371D01*
X97412695Y-140978526D01*
X97413193Y-141012829D01*
X97408677Y-141112262D01*
X97391991Y-141217068D01*
X97357865Y-141322078D01*
X97307681Y-141411333D01*
X97284722Y-141440742D01*
X97203917Y-141513471D01*
X97106033Y-141562398D01*
X97004688Y-141585907D01*
X96919823Y-141591196D01*
X96817257Y-141584908D01*
X96717079Y-141564071D01*
X96683884Y-141553094D01*
X96595314Y-141511714D01*
X96512540Y-141454252D01*
X96489955Y-141434881D01*
X96489955Y-141684985D01*
G37*
G36*
X94390932Y-141778775D02*
G01*
X93974254Y-141778775D01*
X93860643Y-141774859D01*
X93754771Y-141763112D01*
X93656639Y-141743535D01*
X93544858Y-141708050D01*
X93445169Y-141660330D01*
X93357573Y-141600374D01*
X93282070Y-141528181D01*
X93255096Y-141495714D01*
X93195276Y-141405080D01*
X93146332Y-141300921D01*
X93115008Y-141207857D01*
X93090645Y-141106137D01*
X93073242Y-140995762D01*
X93062801Y-140876732D01*
X93059320Y-140749047D01*
X93351923Y-140749047D01*
X93352059Y-140777499D01*
X93355310Y-140885763D01*
X93362897Y-140985158D01*
X93378477Y-141096931D01*
X93400831Y-141194845D01*
X93436597Y-141294049D01*
X93490653Y-141384567D01*
X93499531Y-141395356D01*
X93573268Y-141461289D01*
X93667295Y-141510440D01*
X93764038Y-141539211D01*
X93875688Y-141555652D01*
X93980116Y-141559933D01*
X94112007Y-141559933D01*
X94112007Y-139934253D01*
X93980116Y-139934253D01*
X93958343Y-139934424D01*
X93855730Y-139940435D01*
X93746353Y-139958982D01*
X93651985Y-139989894D01*
X93560860Y-140041586D01*
X93490165Y-140110107D01*
X93481660Y-140121349D01*
X93429684Y-140215803D01*
X93395664Y-140318717D01*
X93374739Y-140419959D01*
X93360563Y-140535273D01*
X93354083Y-140637657D01*
X93351923Y-140749047D01*
X93059320Y-140749047D01*
X93059538Y-140716163D01*
X93064759Y-140590077D01*
X93076940Y-140472706D01*
X93096083Y-140364053D01*
X93122186Y-140264115D01*
X93164604Y-140151451D01*
X93217899Y-140052406D01*
X93282070Y-139966981D01*
X93357573Y-139894507D01*
X93445169Y-139834317D01*
X93544858Y-139786411D01*
X93656639Y-139750788D01*
X93754771Y-139731134D01*
X93860643Y-139719342D01*
X93974254Y-139715411D01*
X94390932Y-139715411D01*
X94390932Y-141778775D01*
G37*
G36*
X92460437Y-140246883D02*
G01*
X91813682Y-140246883D01*
X91813682Y-141591196D01*
X91312007Y-141591196D01*
X91312007Y-141778775D01*
X92567904Y-141778775D01*
X92567904Y-141591196D01*
X92066229Y-141591196D01*
X92066229Y-140434462D01*
X92460437Y-140434462D01*
X92460437Y-140246883D01*
G37*
G36*
X92066229Y-139652885D02*
G01*
X91813682Y-139652885D01*
X91813682Y-139965516D01*
X92066229Y-139965516D01*
X92066229Y-139652885D01*
G37*
G36*
X91073138Y-140246883D02*
G01*
X90810821Y-140246883D01*
X90363856Y-141532578D01*
X89916403Y-140246883D01*
X89653598Y-140246883D01*
X90200702Y-141778775D01*
X90526034Y-141778775D01*
X91073138Y-140246883D01*
G37*
G36*
X89201749Y-139652885D02*
G01*
X88940898Y-139652885D01*
X88940898Y-140882892D01*
X88277045Y-140246883D01*
X87969299Y-140246883D01*
X88575510Y-140824273D01*
X87874533Y-141778775D01*
X88183745Y-141778775D01*
X88752831Y-140988405D01*
X88940898Y-141164748D01*
X88940898Y-141778775D01*
X89201749Y-141778775D01*
X89201749Y-139652885D01*
G37*
G36*
X87407541Y-140246883D02*
G01*
X86760786Y-140246883D01*
X86760786Y-141591196D01*
X86259111Y-141591196D01*
X86259111Y-141778775D01*
X87515008Y-141778775D01*
X87515008Y-141591196D01*
X87013333Y-141591196D01*
X87013333Y-140434462D01*
X87407541Y-140434462D01*
X87407541Y-140246883D01*
G37*
G36*
X87013333Y-139652885D02*
G01*
X86760786Y-139652885D01*
X86760786Y-139965516D01*
X87013333Y-139965516D01*
X87013333Y-139652885D01*
G37*
G36*
X84978790Y-140453024D02*
G01*
X85003102Y-140411551D01*
X85066735Y-140335006D01*
X85145364Y-140276681D01*
X85193115Y-140252889D01*
X85290230Y-140224207D01*
X85389607Y-140215620D01*
X85457147Y-140218918D01*
X85566565Y-140240556D01*
X85664809Y-140282390D01*
X85751880Y-140344420D01*
X85827778Y-140426646D01*
X85874077Y-140496339D01*
X85919277Y-140590265D01*
X85953177Y-140695423D01*
X85972795Y-140791635D01*
X85984566Y-140895645D01*
X85988490Y-141007456D01*
X85985994Y-141098833D01*
X85975855Y-141205928D01*
X85957916Y-141305104D01*
X85926094Y-141413662D01*
X85883040Y-141510817D01*
X85828755Y-141596569D01*
X85775787Y-141658067D01*
X85691895Y-141726652D01*
X85596643Y-141774807D01*
X85490030Y-141802533D01*
X85389607Y-141810038D01*
X85339266Y-141807908D01*
X85237971Y-141788684D01*
X85147318Y-141749465D01*
X85109244Y-141724644D01*
X85037003Y-141657668D01*
X84978790Y-141572634D01*
X84978790Y-141778775D01*
X84725754Y-141778775D01*
X84725754Y-141012829D01*
X84978790Y-141012829D01*
X84979164Y-141047773D01*
X84984774Y-141146216D01*
X84999827Y-141248955D01*
X85028251Y-141350400D01*
X85074533Y-141444162D01*
X85086782Y-141461967D01*
X85158270Y-141533761D01*
X85246837Y-141576837D01*
X85352482Y-141591196D01*
X85363813Y-141591054D01*
X85467520Y-141573995D01*
X85561433Y-141522392D01*
X85628476Y-141445627D01*
X85639774Y-141426821D01*
X85681596Y-141328589D01*
X85706379Y-141222588D01*
X85718497Y-141115411D01*
X85721777Y-141012829D01*
X85721412Y-140977538D01*
X85715946Y-140878282D01*
X85701276Y-140775028D01*
X85673577Y-140673568D01*
X85628476Y-140580519D01*
X85616464Y-140562832D01*
X85545930Y-140491515D01*
X85457935Y-140448725D01*
X85352482Y-140434462D01*
X85329986Y-140435034D01*
X85227757Y-140455070D01*
X85142606Y-140503728D01*
X85074533Y-140581008D01*
X85062939Y-140599868D01*
X85020023Y-140698151D01*
X84994591Y-140803938D01*
X84982156Y-140910728D01*
X84978790Y-141012829D01*
X84725754Y-141012829D01*
X84725754Y-139652885D01*
X84978790Y-139652885D01*
X84978790Y-140453024D01*
G37*
G36*
X82600842Y-141778775D02*
G01*
X82184163Y-141778775D01*
X82070552Y-141774859D01*
X81964681Y-141763112D01*
X81866548Y-141743535D01*
X81754767Y-141708050D01*
X81655078Y-141660330D01*
X81567482Y-141600374D01*
X81491979Y-141528181D01*
X81465006Y-141495714D01*
X81405185Y-141405080D01*
X81356241Y-141300921D01*
X81324917Y-141207857D01*
X81300554Y-141106137D01*
X81283152Y-140995762D01*
X81272710Y-140876732D01*
X81269230Y-140749047D01*
X81561833Y-140749047D01*
X81561968Y-140777499D01*
X81565220Y-140885763D01*
X81572806Y-140985158D01*
X81588386Y-141096931D01*
X81610740Y-141194845D01*
X81646507Y-141294049D01*
X81700563Y-141384567D01*
X81709440Y-141395356D01*
X81783178Y-141461289D01*
X81877205Y-141510440D01*
X81973948Y-141539211D01*
X82085597Y-141555652D01*
X82190025Y-141559933D01*
X82321916Y-141559933D01*
X82321916Y-139934253D01*
X82190025Y-139934253D01*
X82168252Y-139934424D01*
X82065639Y-139940435D01*
X81956262Y-139958982D01*
X81861895Y-139989894D01*
X81770770Y-140041586D01*
X81700074Y-140110107D01*
X81691569Y-140121349D01*
X81639593Y-140215803D01*
X81605573Y-140318717D01*
X81584648Y-140419959D01*
X81570473Y-140535273D01*
X81563993Y-140637657D01*
X81561833Y-140749047D01*
X81269230Y-140749047D01*
X81269447Y-140716163D01*
X81274668Y-140590077D01*
X81286850Y-140472706D01*
X81305992Y-140364053D01*
X81332096Y-140264115D01*
X81374514Y-140151451D01*
X81427808Y-140052406D01*
X81491979Y-139966981D01*
X81567482Y-139894507D01*
X81655078Y-139834317D01*
X81754767Y-139786411D01*
X81866548Y-139750788D01*
X81964681Y-139731134D01*
X82070552Y-139719342D01*
X82184163Y-139715411D01*
X82600842Y-139715411D01*
X82600842Y-141778775D01*
G37*
G36*
X80670346Y-140246883D02*
G01*
X80023591Y-140246883D01*
X80023591Y-141591196D01*
X79521916Y-141591196D01*
X79521916Y-141778775D01*
X80777813Y-141778775D01*
X80777813Y-141591196D01*
X80276138Y-141591196D01*
X80276138Y-140434462D01*
X80670346Y-140434462D01*
X80670346Y-140246883D01*
G37*
G36*
X80276138Y-139652885D02*
G01*
X80023591Y-139652885D01*
X80023591Y-139965516D01*
X80276138Y-139965516D01*
X80276138Y-139652885D01*
G37*
G36*
X78083326Y-140309410D02*
G01*
X78083326Y-140559514D01*
X78171759Y-140513871D01*
X78267716Y-140476258D01*
X78302168Y-140465725D01*
X78399086Y-140444354D01*
X78497501Y-140434950D01*
X78525894Y-140434462D01*
X78624822Y-140439709D01*
X78720993Y-140459859D01*
X78782349Y-140488195D01*
X78848288Y-140560622D01*
X78866857Y-140650861D01*
X78844642Y-140750879D01*
X78803842Y-140798872D01*
X78712280Y-140841147D01*
X78615401Y-140867830D01*
X78519481Y-140888317D01*
X78488769Y-140894127D01*
X78387164Y-140912201D01*
X78288602Y-140937626D01*
X78196038Y-140979109D01*
X78114824Y-141040829D01*
X78102377Y-141053862D01*
X78043140Y-141142362D01*
X78012858Y-141239297D01*
X78005168Y-141329856D01*
X78015304Y-141436560D01*
X78045713Y-141530990D01*
X78104153Y-141622554D01*
X78167346Y-141683031D01*
X78256311Y-141738597D01*
X78361030Y-141778286D01*
X78465582Y-141799991D01*
X78564798Y-141808921D01*
X78617729Y-141810038D01*
X78719804Y-141804054D01*
X78818271Y-141787781D01*
X78857087Y-141778775D01*
X78953762Y-141750931D01*
X79047449Y-141717683D01*
X79127708Y-141684985D01*
X79127708Y-141434881D01*
X79040411Y-141479913D01*
X78947248Y-141520633D01*
X78857087Y-141552117D01*
X78761993Y-141575931D01*
X78663470Y-141589326D01*
X78612356Y-141591196D01*
X78506112Y-141583288D01*
X78410617Y-141556624D01*
X78352970Y-141524273D01*
X78286703Y-141449727D01*
X78261007Y-141351567D01*
X78260646Y-141336695D01*
X78293514Y-141238759D01*
X78379299Y-141168482D01*
X78482833Y-141125522D01*
X78597213Y-141096848D01*
X78608448Y-141093918D01*
X78703214Y-141075355D01*
X78805033Y-141051022D01*
X78901989Y-141015109D01*
X78987875Y-140964600D01*
X79022196Y-140935160D01*
X79083218Y-140851125D01*
X79114414Y-140756472D01*
X79122335Y-140666493D01*
X79112993Y-140564491D01*
X79080149Y-140464555D01*
X79023657Y-140380307D01*
X78972858Y-140332857D01*
X78878379Y-140276185D01*
X78777400Y-140241380D01*
X78675920Y-140222948D01*
X78562192Y-140215735D01*
X78544945Y-140215620D01*
X78446143Y-140219490D01*
X78343347Y-140232313D01*
X78307541Y-140239068D01*
X78208365Y-140264072D01*
X78110872Y-140298052D01*
X78083326Y-140309410D01*
G37*
G36*
X76278371Y-141684985D02*
G01*
X76368491Y-141733712D01*
X76461042Y-141770470D01*
X76487932Y-141778775D01*
X76590106Y-141801214D01*
X76694212Y-141809915D01*
X76708239Y-141810038D01*
X76816164Y-141804874D01*
X76916456Y-141789382D01*
X77026731Y-141757159D01*
X77126016Y-141710064D01*
X77214310Y-141648097D01*
X77267066Y-141598523D01*
X77335462Y-141513487D01*
X77389707Y-141417013D01*
X77429801Y-141309101D01*
X77452403Y-141210438D01*
X77465178Y-141103832D01*
X77468323Y-141012829D01*
X77463409Y-140899869D01*
X77448669Y-140794852D01*
X77424101Y-140697777D01*
X77381649Y-140591772D01*
X77325045Y-140497204D01*
X77267066Y-140427135D01*
X77186100Y-140355253D01*
X77094142Y-140298243D01*
X76991194Y-140256105D01*
X76877255Y-140228840D01*
X76773910Y-140217479D01*
X76708239Y-140215620D01*
X76605356Y-140222382D01*
X76504620Y-140242668D01*
X76491351Y-140246395D01*
X76398413Y-140279347D01*
X76305101Y-140325201D01*
X76278371Y-140340673D01*
X76278371Y-140590777D01*
X76359896Y-140531280D01*
X76448052Y-140484157D01*
X76479627Y-140471587D01*
X76580220Y-140444940D01*
X76684565Y-140434788D01*
X76708239Y-140434462D01*
X76807057Y-140441638D01*
X76907113Y-140467413D01*
X77003254Y-140518817D01*
X77074115Y-140584427D01*
X77129894Y-140667439D01*
X77169736Y-140766510D01*
X77191524Y-140866371D01*
X77201111Y-140978526D01*
X77201609Y-141012829D01*
X77197093Y-141112262D01*
X77180406Y-141217068D01*
X77146281Y-141322078D01*
X77096097Y-141411333D01*
X77073138Y-141440742D01*
X76992333Y-141513471D01*
X76894449Y-141562398D01*
X76793104Y-141585907D01*
X76708239Y-141591196D01*
X76605673Y-141584908D01*
X76505495Y-141564071D01*
X76472300Y-141553094D01*
X76383730Y-141511714D01*
X76300956Y-141454252D01*
X76278371Y-141434881D01*
X76278371Y-141684985D01*
G37*
G36*
X75225048Y-140215820D02*
G01*
X75338117Y-140225414D01*
X75440539Y-140249400D01*
X75532313Y-140287776D01*
X75625926Y-140350738D01*
X75694631Y-140420296D01*
X75743322Y-140488729D01*
X75790858Y-140582656D01*
X75826510Y-140689462D01*
X75847142Y-140788307D01*
X75859521Y-140896096D01*
X75863647Y-141012829D01*
X75861006Y-141107267D01*
X75850278Y-141217179D01*
X75831296Y-141318050D01*
X75797625Y-141427164D01*
X75752070Y-141523260D01*
X75694631Y-141606339D01*
X75613440Y-141685710D01*
X75517757Y-141745586D01*
X75424208Y-141781392D01*
X75320012Y-141802876D01*
X75205168Y-141810038D01*
X75089993Y-141802876D01*
X74985533Y-141781392D01*
X74891789Y-141745586D01*
X74795966Y-141685710D01*
X74714729Y-141606339D01*
X74666038Y-141538011D01*
X74618502Y-141444084D01*
X74582850Y-141337140D01*
X74562218Y-141238076D01*
X74549839Y-141129972D01*
X74545713Y-141012829D01*
X74813891Y-141012829D01*
X74814279Y-141047946D01*
X74820089Y-141146796D01*
X74835680Y-141249792D01*
X74865119Y-141351245D01*
X74913054Y-141444650D01*
X74932388Y-141470840D01*
X75008867Y-141539533D01*
X75103854Y-141579604D01*
X75205168Y-141591196D01*
X75240435Y-141589908D01*
X75336395Y-141570588D01*
X75425706Y-141521930D01*
X75496794Y-141444650D01*
X75508743Y-141425790D01*
X75552973Y-141327507D01*
X75579183Y-141221720D01*
X75591999Y-141114930D01*
X75595468Y-141012829D01*
X75595083Y-140977538D01*
X75589301Y-140878282D01*
X75573787Y-140775028D01*
X75544493Y-140673568D01*
X75496794Y-140580519D01*
X75477381Y-140554417D01*
X75400826Y-140485953D01*
X75306049Y-140446015D01*
X75205168Y-140434462D01*
X75169731Y-140435746D01*
X75073415Y-140455001D01*
X74983980Y-140503497D01*
X74913054Y-140580519D01*
X74901046Y-140599267D01*
X74856597Y-140697279D01*
X74830257Y-140803151D01*
X74817377Y-140910264D01*
X74813891Y-141012829D01*
X74545713Y-141012829D01*
X74548369Y-140918727D01*
X74559159Y-140809149D01*
X74578250Y-140708516D01*
X74612116Y-140599562D01*
X74657935Y-140503489D01*
X74715706Y-140420296D01*
X74797063Y-140340544D01*
X74892820Y-140280381D01*
X74986357Y-140244403D01*
X75090473Y-140222816D01*
X75205168Y-140215620D01*
X75225048Y-140215820D01*
G37*
G36*
X72780814Y-140559514D02*
G01*
X72862635Y-140502972D01*
X72945922Y-140464259D01*
X73045149Y-140440165D01*
X73129593Y-140434462D01*
X73227700Y-140441615D01*
X73326771Y-140467306D01*
X73421585Y-140518542D01*
X73491072Y-140583938D01*
X73545782Y-140666737D01*
X73584861Y-140766144D01*
X73606232Y-140866749D01*
X73615636Y-140980070D01*
X73616124Y-141014783D01*
X73616124Y-141778775D01*
X73870137Y-141778775D01*
X73870137Y-140246883D01*
X73616124Y-140246883D01*
X73616124Y-140542417D01*
X73570062Y-140450750D01*
X73503965Y-140366665D01*
X73421707Y-140300128D01*
X73325653Y-140252015D01*
X73228414Y-140225606D01*
X73121730Y-140215703D01*
X73110542Y-140215620D01*
X73009442Y-140222885D01*
X72936152Y-140238579D01*
X72842270Y-140274390D01*
X72780814Y-140309410D01*
X72780814Y-140559514D01*
G37*
G36*
X71504401Y-140453024D02*
G01*
X71528712Y-140411551D01*
X71592346Y-140335006D01*
X71670974Y-140276681D01*
X71718726Y-140252889D01*
X71815841Y-140224207D01*
X71915217Y-140215620D01*
X71982758Y-140218918D01*
X72092175Y-140240556D01*
X72190420Y-140282390D01*
X72277491Y-140344420D01*
X72353389Y-140426646D01*
X72399688Y-140496339D01*
X72444888Y-140590265D01*
X72478788Y-140695423D01*
X72498406Y-140791635D01*
X72510177Y-140895645D01*
X72514101Y-141007456D01*
X72511605Y-141098833D01*
X72501465Y-141205928D01*
X72483526Y-141305104D01*
X72451704Y-141413662D01*
X72408651Y-141510817D01*
X72354366Y-141596569D01*
X72301398Y-141658067D01*
X72217506Y-141726652D01*
X72122253Y-141774807D01*
X72015641Y-141802533D01*
X71915217Y-141810038D01*
X71864876Y-141807908D01*
X71763581Y-141788684D01*
X71672928Y-141749465D01*
X71634855Y-141724644D01*
X71562614Y-141657668D01*
X71504401Y-141572634D01*
X71504401Y-141778775D01*
X71251365Y-141778775D01*
X71251365Y-141012829D01*
X71504401Y-141012829D01*
X71504775Y-141047773D01*
X71510385Y-141146216D01*
X71525438Y-141248955D01*
X71553862Y-141350400D01*
X71600144Y-141444162D01*
X71612392Y-141461967D01*
X71683881Y-141533761D01*
X71772448Y-141576837D01*
X71878092Y-141591196D01*
X71889423Y-141591054D01*
X71993131Y-141573995D01*
X72087044Y-141522392D01*
X72154087Y-141445627D01*
X72165385Y-141426821D01*
X72207206Y-141328589D01*
X72231989Y-141222588D01*
X72244107Y-141115411D01*
X72247387Y-141012829D01*
X72247023Y-140977538D01*
X72241556Y-140878282D01*
X72226887Y-140775028D01*
X72199188Y-140673568D01*
X72154087Y-140580519D01*
X72142075Y-140562832D01*
X72071540Y-140491515D01*
X71983546Y-140448725D01*
X71878092Y-140434462D01*
X71855597Y-140435034D01*
X71753368Y-140455070D01*
X71668217Y-140503728D01*
X71600144Y-140581008D01*
X71588550Y-140599868D01*
X71545634Y-140698151D01*
X71520202Y-140803938D01*
X71507767Y-140910728D01*
X71504401Y-141012829D01*
X71251365Y-141012829D01*
X71251365Y-139652885D01*
X71504401Y-139652885D01*
X71504401Y-140453024D01*
G37*
G36*
X68467974Y-141543813D02*
G01*
X67985838Y-139715411D01*
X67698609Y-139715411D01*
X68299446Y-141778775D01*
X68636013Y-141778775D01*
X69236362Y-139715411D01*
X68949132Y-139715411D01*
X68467974Y-141543813D01*
G37*
G36*
X66776504Y-140216467D02*
G01*
X66892424Y-140229176D01*
X66999070Y-140257134D01*
X67096443Y-140300342D01*
X67184542Y-140358800D01*
X67263368Y-140432508D01*
X67320362Y-140503863D01*
X67376003Y-140598935D01*
X67417735Y-140704310D01*
X67441885Y-140799994D01*
X67456375Y-140902834D01*
X67461205Y-141012829D01*
X67458052Y-141103504D01*
X67445246Y-141209807D01*
X67422589Y-141308286D01*
X67382398Y-141416135D01*
X67328022Y-141512718D01*
X67259460Y-141598035D01*
X67206459Y-141647723D01*
X67117799Y-141709833D01*
X67018148Y-141757037D01*
X66907506Y-141789334D01*
X66806909Y-141804862D01*
X66698678Y-141810038D01*
X66643547Y-141808588D01*
X66538928Y-141798207D01*
X66439781Y-141779751D01*
X66355078Y-141758123D01*
X66259481Y-141727389D01*
X66161344Y-141689382D01*
X66161344Y-141435858D01*
X66253307Y-141480842D01*
X66350390Y-141521399D01*
X66443200Y-141552606D01*
X66492265Y-141565720D01*
X66595860Y-141584827D01*
X66695747Y-141591196D01*
X66781711Y-141586405D01*
X66884522Y-141565110D01*
X66984055Y-141520790D01*
X67066508Y-141454908D01*
X67103960Y-141407873D01*
X67149496Y-141314755D01*
X67174815Y-141215245D01*
X67185725Y-141116556D01*
X67186676Y-141005502D01*
X67186676Y-140997197D01*
X66091491Y-140997197D01*
X66091491Y-140877030D01*
X66096666Y-140809779D01*
X66096972Y-140808153D01*
X66344038Y-140808153D01*
X67176906Y-140809619D01*
X67156598Y-140713953D01*
X67111124Y-140625099D01*
X67047946Y-140550233D01*
X67025214Y-140529543D01*
X66941255Y-140475276D01*
X66844703Y-140443620D01*
X66747038Y-140434462D01*
X66638646Y-140445291D01*
X66539140Y-140482217D01*
X66460297Y-140545348D01*
X66406125Y-140618659D01*
X66365269Y-140708558D01*
X66344038Y-140808153D01*
X66096972Y-140808153D01*
X66117696Y-140698151D01*
X66153967Y-140594237D01*
X66205479Y-140498036D01*
X66272230Y-140409549D01*
X66340174Y-140343644D01*
X66430511Y-140283988D01*
X66532769Y-140242892D01*
X66629907Y-140222438D01*
X66735803Y-140215620D01*
X66776504Y-140216467D01*
G37*
G36*
X64359320Y-140559514D02*
G01*
X64441142Y-140502972D01*
X64524429Y-140464259D01*
X64623656Y-140440165D01*
X64708099Y-140434462D01*
X64806207Y-140441615D01*
X64905278Y-140467306D01*
X65000092Y-140518542D01*
X65069579Y-140583938D01*
X65124289Y-140666737D01*
X65163368Y-140766144D01*
X65184739Y-140866749D01*
X65194142Y-140980070D01*
X65194631Y-141014783D01*
X65194631Y-141778775D01*
X65448644Y-141778775D01*
X65448644Y-140246883D01*
X65194631Y-140246883D01*
X65194631Y-140542417D01*
X65148568Y-140450750D01*
X65082472Y-140366665D01*
X65000214Y-140300128D01*
X64904160Y-140252015D01*
X64806921Y-140225606D01*
X64700236Y-140215703D01*
X64689048Y-140215620D01*
X64587949Y-140222885D01*
X64514659Y-140238579D01*
X64420777Y-140274390D01*
X64359320Y-140309410D01*
X64359320Y-140559514D01*
G37*
G36*
X62924638Y-140309410D02*
G01*
X62924638Y-140559514D01*
X63013071Y-140513871D01*
X63109028Y-140476258D01*
X63143480Y-140465725D01*
X63240398Y-140444354D01*
X63338813Y-140434950D01*
X63367206Y-140434462D01*
X63466134Y-140439709D01*
X63562304Y-140459859D01*
X63623661Y-140488195D01*
X63689600Y-140560622D01*
X63708169Y-140650861D01*
X63685954Y-140750879D01*
X63645154Y-140798872D01*
X63553592Y-140841147D01*
X63456713Y-140867830D01*
X63360793Y-140888317D01*
X63330081Y-140894127D01*
X63228476Y-140912201D01*
X63129914Y-140937626D01*
X63037350Y-140979109D01*
X62956136Y-141040829D01*
X62943689Y-141053862D01*
X62884452Y-141142362D01*
X62854170Y-141239297D01*
X62846480Y-141329856D01*
X62856616Y-141436560D01*
X62887025Y-141530990D01*
X62945465Y-141622554D01*
X63008657Y-141683031D01*
X63097623Y-141738597D01*
X63202342Y-141778286D01*
X63306894Y-141799991D01*
X63406110Y-141808921D01*
X63459041Y-141810038D01*
X63561116Y-141804054D01*
X63659583Y-141787781D01*
X63698399Y-141778775D01*
X63795074Y-141750931D01*
X63888761Y-141717683D01*
X63969020Y-141684985D01*
X63969020Y-141434881D01*
X63881723Y-141479913D01*
X63788560Y-141520633D01*
X63698399Y-141552117D01*
X63603305Y-141575931D01*
X63504782Y-141589326D01*
X63453668Y-141591196D01*
X63347424Y-141583288D01*
X63251929Y-141556624D01*
X63194282Y-141524273D01*
X63128014Y-141449727D01*
X63102319Y-141351567D01*
X63101958Y-141336695D01*
X63134826Y-141238759D01*
X63220611Y-141168482D01*
X63324145Y-141125522D01*
X63438525Y-141096848D01*
X63449760Y-141093918D01*
X63544526Y-141075355D01*
X63646345Y-141051022D01*
X63743301Y-141015109D01*
X63829187Y-140964600D01*
X63863507Y-140935160D01*
X63924530Y-140851125D01*
X63955726Y-140756472D01*
X63963647Y-140666493D01*
X63954305Y-140564491D01*
X63921461Y-140464555D01*
X63864969Y-140380307D01*
X63814170Y-140332857D01*
X63719691Y-140276185D01*
X63618712Y-140241380D01*
X63517232Y-140222948D01*
X63403504Y-140215735D01*
X63386257Y-140215620D01*
X63287455Y-140219490D01*
X63184659Y-140232313D01*
X63148853Y-140239068D01*
X63049677Y-140264072D01*
X62952184Y-140298052D01*
X62924638Y-140309410D01*
G37*
G36*
X62143061Y-140246883D02*
G01*
X61496306Y-140246883D01*
X61496306Y-141591196D01*
X60994631Y-141591196D01*
X60994631Y-141778775D01*
X62250528Y-141778775D01*
X62250528Y-141591196D01*
X61748853Y-141591196D01*
X61748853Y-140434462D01*
X62143061Y-140434462D01*
X62143061Y-140246883D01*
G37*
G36*
X61748853Y-139652885D02*
G01*
X61496306Y-139652885D01*
X61496306Y-139965516D01*
X61748853Y-139965516D01*
X61748853Y-139652885D01*
G37*
G36*
X60066360Y-140215820D02*
G01*
X60179429Y-140225414D01*
X60281851Y-140249400D01*
X60373625Y-140287776D01*
X60467238Y-140350738D01*
X60535943Y-140420296D01*
X60584634Y-140488729D01*
X60632170Y-140582656D01*
X60667822Y-140689462D01*
X60688453Y-140788307D01*
X60700833Y-140896096D01*
X60704959Y-141012829D01*
X60702318Y-141107267D01*
X60691590Y-141217179D01*
X60672608Y-141318050D01*
X60638937Y-141427164D01*
X60593382Y-141523260D01*
X60535943Y-141606339D01*
X60454752Y-141685710D01*
X60359069Y-141745586D01*
X60265520Y-141781392D01*
X60161324Y-141802876D01*
X60046480Y-141810038D01*
X59931304Y-141802876D01*
X59826845Y-141781392D01*
X59733101Y-141745586D01*
X59637278Y-141685710D01*
X59556041Y-141606339D01*
X59507349Y-141538011D01*
X59459814Y-141444084D01*
X59424162Y-141337140D01*
X59403530Y-141238076D01*
X59391151Y-141129972D01*
X59387025Y-141012829D01*
X59655203Y-141012829D01*
X59655591Y-141047946D01*
X59661401Y-141146796D01*
X59676992Y-141249792D01*
X59706431Y-141351245D01*
X59754366Y-141444650D01*
X59773700Y-141470840D01*
X59850179Y-141539533D01*
X59945166Y-141579604D01*
X60046480Y-141591196D01*
X60081747Y-141589908D01*
X60177707Y-141570588D01*
X60267018Y-141521930D01*
X60338106Y-141444650D01*
X60350055Y-141425790D01*
X60394285Y-141327507D01*
X60420495Y-141221720D01*
X60433311Y-141114930D01*
X60436780Y-141012829D01*
X60436395Y-140977538D01*
X60430613Y-140878282D01*
X60415099Y-140775028D01*
X60385805Y-140673568D01*
X60338106Y-140580519D01*
X60318693Y-140554417D01*
X60242138Y-140485953D01*
X60147361Y-140446015D01*
X60046480Y-140434462D01*
X60011043Y-140435746D01*
X59914726Y-140455001D01*
X59825292Y-140503497D01*
X59754366Y-140580519D01*
X59742358Y-140599267D01*
X59697909Y-140697279D01*
X59671569Y-140803151D01*
X59658689Y-140910264D01*
X59655203Y-141012829D01*
X59387025Y-141012829D01*
X59389681Y-140918727D01*
X59400471Y-140809149D01*
X59419562Y-140708516D01*
X59453428Y-140599562D01*
X59499246Y-140503489D01*
X59557018Y-140420296D01*
X59638375Y-140340544D01*
X59734132Y-140280381D01*
X59827669Y-140244403D01*
X59931785Y-140222816D01*
X60046480Y-140215620D01*
X60066360Y-140215820D01*
G37*
G36*
X57764764Y-140833555D02*
G01*
X57764764Y-141778775D01*
X58018776Y-141778775D01*
X58018776Y-140833555D01*
X58024533Y-140726492D01*
X58044435Y-140627745D01*
X58087083Y-140537333D01*
X58091560Y-140531182D01*
X58171048Y-140465065D01*
X58273156Y-140436823D01*
X58319683Y-140434462D01*
X58422542Y-140446626D01*
X58517284Y-140488107D01*
X58592747Y-140559026D01*
X58642979Y-140647468D01*
X58672281Y-140745176D01*
X58685676Y-140846430D01*
X58688002Y-140916597D01*
X58688002Y-141778775D01*
X58941037Y-141778775D01*
X58941037Y-140246883D01*
X58688002Y-140246883D01*
X58688002Y-140482333D01*
X58636000Y-140399556D01*
X58566368Y-140326500D01*
X58505308Y-140283520D01*
X58412801Y-140242144D01*
X58317382Y-140220991D01*
X58231756Y-140215620D01*
X58121724Y-140225207D01*
X58026592Y-140253966D01*
X57937376Y-140309239D01*
X57881023Y-140369005D01*
X57830160Y-140455558D01*
X57793828Y-140561835D01*
X57773960Y-140671005D01*
X57765785Y-140776598D01*
X57764764Y-140833555D01*
G37*
G36*
X56917241Y-141278565D02*
G01*
X56488350Y-141278565D01*
X56488350Y-141646883D01*
X56793654Y-142246255D01*
X57068183Y-142247721D01*
X56917241Y-141646883D01*
X56917241Y-141278565D01*
G37*
G36*
X53643410Y-141559933D02*
G01*
X52701121Y-141559933D01*
X52701121Y-141778775D01*
X53946759Y-141778775D01*
X53946759Y-141559933D01*
X53868051Y-141475106D01*
X53792514Y-141393428D01*
X53720150Y-141314898D01*
X53650958Y-141239517D01*
X53584939Y-141167284D01*
X53509903Y-141084760D01*
X53497841Y-141071447D01*
X53429875Y-140996325D01*
X53361216Y-140919753D01*
X53289771Y-140838819D01*
X53232593Y-140772005D01*
X53169548Y-140690581D01*
X53111979Y-140608686D01*
X53060822Y-140522550D01*
X53047457Y-140495034D01*
X53014399Y-140401348D01*
X52999522Y-140298895D01*
X52999097Y-140278146D01*
X53008972Y-140175679D01*
X53042644Y-140080155D01*
X53100214Y-140002641D01*
X53186263Y-139941916D01*
X53283729Y-139910872D01*
X53376697Y-139902989D01*
X53480398Y-139910729D01*
X53579843Y-139931612D01*
X53639502Y-139949884D01*
X53735834Y-139987445D01*
X53826814Y-140031409D01*
X53921038Y-140084722D01*
X53930639Y-140090568D01*
X53930639Y-139809200D01*
X53833882Y-139770186D01*
X53738395Y-139738444D01*
X53652691Y-139715899D01*
X53550590Y-139696551D01*
X53449450Y-139686132D01*
X53382558Y-139684148D01*
X53273857Y-139689849D01*
X53173433Y-139706954D01*
X53066734Y-139741322D01*
X52971301Y-139791210D01*
X52898469Y-139846325D01*
X52826902Y-139921879D01*
X52772913Y-140007064D01*
X52736502Y-140101878D01*
X52717668Y-140206324D01*
X52714798Y-140270331D01*
X52723385Y-140370417D01*
X52749145Y-140470640D01*
X52775859Y-140537532D01*
X52826843Y-140632505D01*
X52881952Y-140715105D01*
X52949117Y-140802109D01*
X52974184Y-140832089D01*
X53041824Y-140909392D01*
X53113094Y-140988924D01*
X53179864Y-141062441D01*
X53197911Y-141082194D01*
X53269151Y-141159651D01*
X53341897Y-141238099D01*
X53410757Y-141311973D01*
X53487107Y-141393575D01*
X53570946Y-141482905D01*
X53643410Y-141559933D01*
G37*
G36*
X51665451Y-139685197D02*
G01*
X51779287Y-139700940D01*
X51881789Y-139735572D01*
X51972957Y-139789096D01*
X52052790Y-139861510D01*
X52121288Y-139952815D01*
X52141578Y-139987345D01*
X52186574Y-140082485D01*
X52223389Y-140190219D01*
X52246951Y-140285474D01*
X52265277Y-140388788D01*
X52278367Y-140500163D01*
X52286221Y-140619598D01*
X52288839Y-140747093D01*
X52288675Y-140779723D01*
X52284748Y-140905214D01*
X52275585Y-141022660D01*
X52261187Y-141132062D01*
X52241552Y-141233419D01*
X52209645Y-141348802D01*
X52169557Y-141451615D01*
X52121288Y-141541859D01*
X52088456Y-141589785D01*
X52014290Y-141671496D01*
X51928790Y-141734350D01*
X51831955Y-141778349D01*
X51723786Y-141803490D01*
X51624987Y-141810038D01*
X51584580Y-141808990D01*
X51470870Y-141793276D01*
X51368425Y-141758707D01*
X51277246Y-141705280D01*
X51197333Y-141632998D01*
X51128685Y-141541859D01*
X51108278Y-141507270D01*
X51063019Y-141411999D01*
X51025989Y-141304157D01*
X51002290Y-141208834D01*
X50983857Y-141105466D01*
X50970691Y-140994053D01*
X50962791Y-140874595D01*
X50960219Y-140750024D01*
X51239083Y-140750024D01*
X51240579Y-140853102D01*
X51246657Y-140972354D01*
X51257409Y-141080944D01*
X51272836Y-141178873D01*
X51297520Y-141282313D01*
X51334826Y-141383590D01*
X51367026Y-141443398D01*
X51437248Y-141525508D01*
X51523235Y-141574774D01*
X51624987Y-141591196D01*
X51715631Y-141576999D01*
X51804250Y-141527089D01*
X51871150Y-141452557D01*
X51920521Y-141364050D01*
X51266438Y-140340673D01*
X51254470Y-140434767D01*
X51245922Y-140534357D01*
X51240793Y-140639443D01*
X51239083Y-140750024D01*
X50960219Y-140750024D01*
X50960158Y-140747093D01*
X50960322Y-140714463D01*
X50964272Y-140588984D01*
X50973489Y-140471564D01*
X50987971Y-140362204D01*
X51007721Y-140260904D01*
X51039813Y-140145614D01*
X51063344Y-140085683D01*
X51343619Y-140085683D01*
X51984024Y-141106618D01*
X51991482Y-141053192D01*
X52001722Y-140953961D01*
X52007866Y-140850788D01*
X52009914Y-140743673D01*
X52008425Y-140640603D01*
X52002379Y-140521382D01*
X51991681Y-140412846D01*
X51976333Y-140314997D01*
X51951775Y-140211682D01*
X51914659Y-140110596D01*
X51882342Y-140050787D01*
X51812090Y-139968677D01*
X51726305Y-139919411D01*
X51624987Y-139902989D01*
X51581909Y-139905844D01*
X51484097Y-139937958D01*
X51400406Y-140005755D01*
X51343619Y-140085683D01*
X51063344Y-140085683D01*
X51080135Y-140042918D01*
X51128685Y-139952815D01*
X51161601Y-139904801D01*
X51235881Y-139822942D01*
X51321427Y-139759973D01*
X51418239Y-139715895D01*
X51526317Y-139690707D01*
X51624987Y-139684148D01*
X51665451Y-139685197D01*
G37*
G36*
X50274812Y-141559933D02*
G01*
X49332523Y-141559933D01*
X49332523Y-141778775D01*
X50578162Y-141778775D01*
X50578162Y-141559933D01*
X50499453Y-141475106D01*
X50423917Y-141393428D01*
X50351553Y-141314898D01*
X50282361Y-141239517D01*
X50216342Y-141167284D01*
X50141306Y-141084760D01*
X50129244Y-141071447D01*
X50061277Y-140996325D01*
X49992619Y-140919753D01*
X49921174Y-140838819D01*
X49863996Y-140772005D01*
X49800951Y-140690581D01*
X49743381Y-140608686D01*
X49692225Y-140522550D01*
X49678860Y-140495034D01*
X49645801Y-140401348D01*
X49630925Y-140298895D01*
X49630500Y-140278146D01*
X49640374Y-140175679D01*
X49674047Y-140080155D01*
X49731616Y-140002641D01*
X49817666Y-139941916D01*
X49915131Y-139910872D01*
X50008099Y-139902989D01*
X50111800Y-139910729D01*
X50211245Y-139931612D01*
X50270905Y-139949884D01*
X50367236Y-139987445D01*
X50458217Y-140031409D01*
X50552441Y-140084722D01*
X50562042Y-140090568D01*
X50562042Y-139809200D01*
X50465285Y-139770186D01*
X50369798Y-139738444D01*
X50284094Y-139715899D01*
X50181992Y-139696551D01*
X50080853Y-139686132D01*
X50013961Y-139684148D01*
X49905260Y-139689849D01*
X49804836Y-139706954D01*
X49698136Y-139741322D01*
X49602704Y-139791210D01*
X49529872Y-139846325D01*
X49458305Y-139921879D01*
X49404316Y-140007064D01*
X49367904Y-140101878D01*
X49349071Y-140206324D01*
X49346201Y-140270331D01*
X49354788Y-140370417D01*
X49380548Y-140470640D01*
X49407262Y-140537532D01*
X49458246Y-140632505D01*
X49513355Y-140715105D01*
X49580520Y-140802109D01*
X49605587Y-140832089D01*
X49673227Y-140909392D01*
X49744496Y-140988924D01*
X49811266Y-141062441D01*
X49829313Y-141082194D01*
X49900553Y-141159651D01*
X49973299Y-141238099D01*
X50042160Y-141311973D01*
X50118509Y-141393575D01*
X50202349Y-141482905D01*
X50274812Y-141559933D01*
G37*
G36*
X48818637Y-139715411D02*
G01*
X47780116Y-139715411D01*
X47780116Y-139934253D01*
X48565601Y-139934253D01*
X48565601Y-140474518D01*
X48469230Y-140448273D01*
X48446899Y-140444232D01*
X48349263Y-140434805D01*
X48326731Y-140434462D01*
X48211767Y-140440988D01*
X48106111Y-140460565D01*
X48009763Y-140493195D01*
X47922723Y-140538876D01*
X47832941Y-140608666D01*
X47821149Y-140620086D01*
X47748249Y-140707395D01*
X47693255Y-140807325D01*
X47660368Y-140903027D01*
X47640636Y-141008001D01*
X47634059Y-141122250D01*
X47640945Y-141237294D01*
X47661605Y-141342824D01*
X47696037Y-141438840D01*
X47744243Y-141525342D01*
X47806221Y-141602330D01*
X47829941Y-141625878D01*
X47908446Y-141688464D01*
X47997049Y-141738100D01*
X48095750Y-141774788D01*
X48204549Y-141798528D01*
X48302928Y-141808419D01*
X48365322Y-141810038D01*
X48464622Y-141807748D01*
X48567681Y-141799940D01*
X48664275Y-141786590D01*
X48761774Y-141765708D01*
X48858405Y-141735643D01*
X48906564Y-141716248D01*
X48906564Y-141434881D01*
X48819468Y-141484495D01*
X48724190Y-141527691D01*
X48652551Y-141552606D01*
X48555808Y-141576122D01*
X48457554Y-141588784D01*
X48391212Y-141591196D01*
X48283012Y-141583563D01*
X48188002Y-141560666D01*
X48096880Y-141516659D01*
X48037548Y-141469075D01*
X47971860Y-141382731D01*
X47933542Y-141287891D01*
X47916025Y-141189965D01*
X47912984Y-141122250D01*
X47921014Y-141017500D01*
X47949242Y-140914327D01*
X47997795Y-140826687D01*
X48041456Y-140776890D01*
X48121720Y-140717149D01*
X48217980Y-140676959D01*
X48316975Y-140657648D01*
X48399516Y-140653303D01*
X48502749Y-140658455D01*
X48603621Y-140673911D01*
X48616892Y-140676751D01*
X48713771Y-140703885D01*
X48806571Y-140741322D01*
X48818637Y-140747093D01*
X48818637Y-139715411D01*
G37*
M02*
