G04 #@! TF.GenerationSoftware,KiCad,Pcbnew,8.0.5*
G04 #@! TF.CreationDate,2025-04-20T22:26:55-07:00*
G04 #@! TF.ProjectId,Tap-O-Matic,5461702d-4f2d-44d6-9174-69632e6b6963,rev?*
G04 #@! TF.SameCoordinates,Original*
G04 #@! TF.FileFunction,Copper,L2,Bot*
G04 #@! TF.FilePolarity,Positive*
%FSLAX46Y46*%
G04 Gerber Fmt 4.6, Leading zero omitted, Abs format (unit mm)*
G04 Created by KiCad (PCBNEW 8.0.5) date 2025-04-20 22:26:55*
%MOMM*%
%LPD*%
G01*
G04 APERTURE LIST*
G04 Aperture macros list*
%AMRoundRect*
0 Rectangle with rounded corners*
0 $1 Rounding radius*
0 $2 $3 $4 $5 $6 $7 $8 $9 X,Y pos of 4 corners*
0 Add a 4 corners polygon primitive as box body*
4,1,4,$2,$3,$4,$5,$6,$7,$8,$9,$2,$3,0*
0 Add four circle primitives for the rounded corners*
1,1,$1+$1,$2,$3*
1,1,$1+$1,$4,$5*
1,1,$1+$1,$6,$7*
1,1,$1+$1,$8,$9*
0 Add four rect primitives between the rounded corners*
20,1,$1+$1,$2,$3,$4,$5,0*
20,1,$1+$1,$4,$5,$6,$7,0*
20,1,$1+$1,$6,$7,$8,$9,0*
20,1,$1+$1,$8,$9,$2,$3,0*%
G04 Aperture macros list end*
G04 #@! TA.AperFunction,ComponentPad*
%ADD10R,2.500000X1.000000*%
G04 #@! TD*
G04 #@! TA.AperFunction,ComponentPad*
%ADD11C,1.600000*%
G04 #@! TD*
G04 #@! TA.AperFunction,ComponentPad*
%ADD12O,1.600000X1.600000*%
G04 #@! TD*
G04 #@! TA.AperFunction,ComponentPad*
%ADD13O,1.000000X2.000000*%
G04 #@! TD*
G04 #@! TA.AperFunction,ComponentPad*
%ADD14O,2.720000X3.240000*%
G04 #@! TD*
G04 #@! TA.AperFunction,ComponentPad*
%ADD15R,1.800000X1.800000*%
G04 #@! TD*
G04 #@! TA.AperFunction,ComponentPad*
%ADD16C,1.800000*%
G04 #@! TD*
G04 #@! TA.AperFunction,ComponentPad*
%ADD17O,2.000000X3.800000*%
G04 #@! TD*
G04 #@! TA.AperFunction,ComponentPad*
%ADD18RoundRect,0.550000X0.550000X0.550000X-0.550000X0.550000X-0.550000X-0.550000X0.550000X-0.550000X0*%
G04 #@! TD*
G04 #@! TA.AperFunction,ComponentPad*
%ADD19C,2.200000*%
G04 #@! TD*
G04 #@! TA.AperFunction,ComponentPad*
%ADD20R,1.600000X1.600000*%
G04 #@! TD*
G04 #@! TA.AperFunction,ComponentPad*
%ADD21R,1.700000X1.700000*%
G04 #@! TD*
G04 #@! TA.AperFunction,ComponentPad*
%ADD22O,1.700000X1.700000*%
G04 #@! TD*
G04 #@! TA.AperFunction,ViaPad*
%ADD23C,0.800000*%
G04 #@! TD*
G04 #@! TA.AperFunction,Conductor*
%ADD24C,1.000000*%
G04 #@! TD*
G04 #@! TA.AperFunction,Conductor*
%ADD25C,0.250000*%
G04 #@! TD*
G04 APERTURE END LIST*
D10*
G04 #@! TO.P,J1,1*
G04 #@! TO.N,GND*
X7594600Y94612000D03*
G04 #@! TO.P,J1,2*
X7594600Y97712000D03*
G04 #@! TO.P,J1,3*
G04 #@! TO.N,LevelCV0*
X7594600Y106012000D03*
G04 #@! TD*
G04 #@! TO.P,J2,1*
G04 #@! TO.N,GND*
X20770850Y94612000D03*
G04 #@! TO.P,J2,2*
X20770850Y97712000D03*
G04 #@! TO.P,J2,3*
G04 #@! TO.N,LevelCV1*
X20770850Y106012000D03*
G04 #@! TD*
G04 #@! TO.P,J3,1*
G04 #@! TO.N,GND*
X33947100Y94612000D03*
G04 #@! TO.P,J3,2*
X33947100Y97712000D03*
G04 #@! TO.P,J3,3*
G04 #@! TO.N,LevelCV2*
X33947100Y106012000D03*
G04 #@! TD*
G04 #@! TO.P,J4,1*
G04 #@! TO.N,GND*
X47123350Y94612000D03*
G04 #@! TO.P,J4,2*
X47123350Y97712000D03*
G04 #@! TO.P,J4,3*
G04 #@! TO.N,LevelCV3*
X47123350Y106012000D03*
G04 #@! TD*
G04 #@! TO.P,J5,1*
G04 #@! TO.N,GND*
X60299600Y94612000D03*
G04 #@! TO.P,J5,2*
X60299600Y97712000D03*
G04 #@! TO.P,J5,3*
G04 #@! TO.N,LevelCV4*
X60299600Y106012000D03*
G04 #@! TD*
G04 #@! TO.P,J6,1*
G04 #@! TO.N,GND*
X73475850Y94612000D03*
G04 #@! TO.P,J6,2*
X73475850Y97712000D03*
G04 #@! TO.P,J6,3*
G04 #@! TO.N,LevelCV5*
X73475850Y106012000D03*
G04 #@! TD*
G04 #@! TO.P,J7,1*
G04 #@! TO.N,GND*
X86652100Y94612000D03*
G04 #@! TO.P,J7,2*
X86652100Y97712000D03*
G04 #@! TO.P,J7,3*
G04 #@! TO.N,LevelCV6*
X86652100Y106012000D03*
G04 #@! TD*
G04 #@! TO.P,J8,1*
G04 #@! TO.N,GND*
X99828350Y94612000D03*
G04 #@! TO.P,J8,2*
X99828350Y97712000D03*
G04 #@! TO.P,J8,3*
G04 #@! TO.N,LevelCV7*
X99828350Y106012000D03*
G04 #@! TD*
G04 #@! TO.P,J9,1*
G04 #@! TO.N,GND*
X113004600Y94612000D03*
G04 #@! TO.P,J9,2*
X113004600Y97712000D03*
G04 #@! TO.P,J9,3*
G04 #@! TO.N,LevelCV8*
X113004600Y106012000D03*
G04 #@! TD*
G04 #@! TO.P,CLOCK1,1*
G04 #@! TO.N,GND*
X42756666Y1521000D03*
G04 #@! TO.P,CLOCK1,2*
X42756666Y4621000D03*
G04 #@! TO.P,CLOCK1,3*
G04 #@! TO.N,Clock*
X42756666Y12921000D03*
G04 #@! TD*
G04 #@! TO.P,SPREAD1,1*
G04 #@! TO.N,GND*
X31044444Y1521000D03*
G04 #@! TO.P,SPREAD1,2*
X31044444Y4621000D03*
G04 #@! TO.P,SPREAD1,3*
G04 #@! TO.N,SpreadCV*
X31044444Y12921000D03*
G04 #@! TD*
G04 #@! TO.P,TIME1,1*
G04 #@! TO.N,GND*
X54468888Y1521000D03*
G04 #@! TO.P,TIME1,2*
X54468888Y4621000D03*
G04 #@! TO.P,TIME1,3*
G04 #@! TO.N,TimeCV*
X54468888Y12921000D03*
G04 #@! TD*
G04 #@! TO.P,FB1,1*
G04 #@! TO.N,GND*
X66181110Y1521000D03*
G04 #@! TO.P,FB1,2*
X66181110Y4621000D03*
G04 #@! TO.P,FB1,3*
G04 #@! TO.N,FeedbackCV*
X66181110Y12921000D03*
G04 #@! TD*
G04 #@! TO.P,HPF1,1*
G04 #@! TO.N,GND*
X77893332Y1521000D03*
G04 #@! TO.P,HPF1,2*
X77893332Y4621000D03*
G04 #@! TO.P,HPF1,3*
G04 #@! TO.N,HighPassCV*
X77893332Y12921000D03*
G04 #@! TD*
G04 #@! TO.P,LPF1,1*
G04 #@! TO.N,GND*
X89605554Y1521000D03*
G04 #@! TO.P,LPF1,2*
X89605554Y4621000D03*
G04 #@! TO.P,LPF1,3*
G04 #@! TO.N,LowPassCV*
X89605554Y12921000D03*
G04 #@! TD*
G04 #@! TO.P,IN_L1,1*
G04 #@! TO.N,GND*
X7620000Y1521000D03*
G04 #@! TO.P,IN_L1,2*
X7620000Y4621000D03*
G04 #@! TO.P,IN_L1,3*
G04 #@! TO.N,AudioInL*
X7620000Y12921000D03*
G04 #@! TD*
G04 #@! TO.P,IN_R1,1*
G04 #@! TO.N,GND*
X19332222Y1521000D03*
G04 #@! TO.P,IN_R1,2*
G04 #@! TO.N,AudioInL*
X19332222Y4621000D03*
G04 #@! TO.P,IN_R1,3*
G04 #@! TO.N,AudioInR*
X19332222Y12921000D03*
G04 #@! TD*
G04 #@! TO.P,OUT_L1,1*
G04 #@! TO.N,GND*
X101317776Y1521000D03*
G04 #@! TO.P,OUT_L1,2*
G04 #@! TO.N,Net-(OUT_L1-Pad2)*
X101317776Y4621000D03*
G04 #@! TO.P,OUT_L1,3*
G04 #@! TO.N,AudioOutL*
X101317776Y12921000D03*
G04 #@! TD*
G04 #@! TO.P,OUT_R1,1*
G04 #@! TO.N,GND*
X113030000Y1521000D03*
G04 #@! TO.P,OUT_R1,2*
G04 #@! TO.N,Net-(OUT_R1-Pad2)*
X113030000Y4621000D03*
G04 #@! TO.P,OUT_R1,3*
G04 #@! TO.N,AudioOutR*
X113030000Y12921000D03*
G04 #@! TD*
D11*
G04 #@! TO.P,R10,1*
G04 #@! TO.N,LED0*
X14224000Y51104800D03*
D12*
G04 #@! TO.P,R10,2*
G04 #@! TO.N,Net-(R1-PadB)*
X14224000Y58724800D03*
G04 #@! TD*
D11*
G04 #@! TO.P,R11,1*
G04 #@! TO.N,LED1*
X27432000Y51104800D03*
D12*
G04 #@! TO.P,R11,2*
G04 #@! TO.N,Net-(R11-Pad2)*
X27432000Y58724800D03*
G04 #@! TD*
D11*
G04 #@! TO.P,R12,1*
G04 #@! TO.N,LED2*
X40386000Y51104800D03*
D12*
G04 #@! TO.P,R12,2*
G04 #@! TO.N,Net-(R12-Pad2)*
X40386000Y58724800D03*
G04 #@! TD*
D11*
G04 #@! TO.P,R13,1*
G04 #@! TO.N,LED3*
X53848000Y51104800D03*
D12*
G04 #@! TO.P,R13,2*
G04 #@! TO.N,Net-(R13-Pad2)*
X53848000Y58724800D03*
G04 #@! TD*
D11*
G04 #@! TO.P,R14,1*
G04 #@! TO.N,LED4*
X67056000Y51104800D03*
D12*
G04 #@! TO.P,R14,2*
G04 #@! TO.N,Net-(R14-Pad2)*
X67056000Y58724800D03*
G04 #@! TD*
D11*
G04 #@! TO.P,R15,1*
G04 #@! TO.N,LED5*
X66802000Y62534800D03*
D12*
G04 #@! TO.P,R15,2*
G04 #@! TO.N,Net-(R15-Pad2)*
X66802000Y70154800D03*
G04 #@! TD*
D11*
G04 #@! TO.P,R16,1*
G04 #@! TO.N,LED6*
X80010000Y51104800D03*
D12*
G04 #@! TO.P,R16,2*
G04 #@! TO.N,Net-(R16-Pad2)*
X80010000Y58724800D03*
G04 #@! TD*
D11*
G04 #@! TO.P,R17,1*
G04 #@! TO.N,LED7*
X93218000Y51104800D03*
D12*
G04 #@! TO.P,R17,2*
G04 #@! TO.N,Net-(R17-Pad2)*
X93218000Y58724800D03*
G04 #@! TD*
D11*
G04 #@! TO.P,R18,1*
G04 #@! TO.N,LED8*
X106426000Y51104800D03*
D12*
G04 #@! TO.P,R18,2*
G04 #@! TO.N,Net-(R18-Pad2)*
X106426000Y58724800D03*
G04 #@! TD*
D13*
G04 #@! TO.P,R2,1*
G04 #@! TO.N,+3V3*
X22015450Y91744800D03*
G04 #@! TO.P,R2,2*
G04 #@! TO.N,Level1*
X24555450Y91744800D03*
G04 #@! TO.P,R2,3*
G04 #@! TO.N,GND*
X22015450Y51744800D03*
G04 #@! TO.P,R2,B*
G04 #@! TO.N,Net-(R11-Pad2)*
X16935450Y51744800D03*
G04 #@! TO.P,R2,E*
G04 #@! TO.N,GND*
X16935450Y91744800D03*
G04 #@! TO.P,R2,L*
G04 #@! TO.N,N/C*
X19475450Y91744800D03*
G04 #@! TD*
G04 #@! TO.P,R3,1*
G04 #@! TO.N,+3V3*
X35191700Y91744800D03*
G04 #@! TO.P,R3,2*
G04 #@! TO.N,Level2*
X37731700Y91744800D03*
G04 #@! TO.P,R3,3*
G04 #@! TO.N,GND*
X35191700Y51744800D03*
G04 #@! TO.P,R3,B*
G04 #@! TO.N,Net-(R12-Pad2)*
X30111700Y51744800D03*
G04 #@! TO.P,R3,E*
G04 #@! TO.N,GND*
X30111700Y91744800D03*
G04 #@! TO.P,R3,L*
G04 #@! TO.N,N/C*
X32651700Y91744800D03*
G04 #@! TD*
G04 #@! TO.P,R4,1*
G04 #@! TO.N,+3V3*
X48367950Y91744800D03*
G04 #@! TO.P,R4,2*
G04 #@! TO.N,Level3*
X50907950Y91744800D03*
G04 #@! TO.P,R4,3*
G04 #@! TO.N,GND*
X48367950Y51744800D03*
G04 #@! TO.P,R4,B*
G04 #@! TO.N,Net-(R13-Pad2)*
X43287950Y51744800D03*
G04 #@! TO.P,R4,E*
G04 #@! TO.N,GND*
X43287950Y91744800D03*
G04 #@! TO.P,R4,L*
G04 #@! TO.N,N/C*
X45827950Y91744800D03*
G04 #@! TD*
G04 #@! TO.P,R5,1*
G04 #@! TO.N,+3V3*
X61544200Y91744800D03*
G04 #@! TO.P,R5,2*
G04 #@! TO.N,Level4*
X64084200Y91744800D03*
G04 #@! TO.P,R5,3*
G04 #@! TO.N,GND*
X61544200Y51744800D03*
G04 #@! TO.P,R5,B*
G04 #@! TO.N,Net-(R14-Pad2)*
X56464200Y51744800D03*
G04 #@! TO.P,R5,E*
G04 #@! TO.N,GND*
X56464200Y91744800D03*
G04 #@! TO.P,R5,L*
G04 #@! TO.N,N/C*
X59004200Y91744800D03*
G04 #@! TD*
G04 #@! TO.P,R8,1*
G04 #@! TO.N,+3V3*
X101072950Y91744800D03*
G04 #@! TO.P,R8,2*
G04 #@! TO.N,Level7*
X103612950Y91744800D03*
G04 #@! TO.P,R8,3*
G04 #@! TO.N,GND*
X101072950Y51744800D03*
G04 #@! TO.P,R8,B*
G04 #@! TO.N,Net-(R17-Pad2)*
X95992950Y51744800D03*
G04 #@! TO.P,R8,E*
G04 #@! TO.N,GND*
X95992950Y91744800D03*
G04 #@! TO.P,R8,L*
G04 #@! TO.N,N/C*
X98532950Y91744800D03*
G04 #@! TD*
G04 #@! TO.P,R9,1*
G04 #@! TO.N,+3V3*
X114249200Y91744800D03*
G04 #@! TO.P,R9,2*
G04 #@! TO.N,Level8*
X116789200Y91744800D03*
G04 #@! TO.P,R9,3*
G04 #@! TO.N,GND*
X114249200Y51744800D03*
G04 #@! TO.P,R9,B*
G04 #@! TO.N,Net-(R18-Pad2)*
X109169200Y51744800D03*
G04 #@! TO.P,R9,E*
G04 #@! TO.N,GND*
X109169200Y91744800D03*
G04 #@! TO.P,R9,L*
G04 #@! TO.N,N/C*
X111709200Y91744800D03*
G04 #@! TD*
D14*
G04 #@! TO.P,RTIME1,*
G04 #@! TO.N,*
X7900640Y27253580D03*
X17500640Y27253580D03*
D15*
G04 #@! TO.P,RTIME1,1*
G04 #@! TO.N,+3V3*
X10200640Y19753580D03*
D16*
G04 #@! TO.P,RTIME1,2*
G04 #@! TO.N,Time*
X12700640Y19753580D03*
G04 #@! TO.P,RTIME1,3*
G04 #@! TO.N,GND*
X15200640Y19753580D03*
G04 #@! TD*
D14*
G04 #@! TO.P,RFB1,*
G04 #@! TO.N,*
X55525640Y27253580D03*
X65125640Y27253580D03*
D15*
G04 #@! TO.P,RFB1,1*
G04 #@! TO.N,+3V3*
X57825640Y19753580D03*
D16*
G04 #@! TO.P,RFB1,2*
G04 #@! TO.N,Feedback*
X60325640Y19753580D03*
G04 #@! TO.P,RFB1,3*
G04 #@! TO.N,GND*
X62825640Y19753580D03*
G04 #@! TD*
D14*
G04 #@! TO.P,RHPF1,*
G04 #@! TO.N,*
X79338140Y27253580D03*
X88938140Y27253580D03*
D15*
G04 #@! TO.P,RHPF1,1*
G04 #@! TO.N,+3V3*
X81638140Y19753580D03*
D16*
G04 #@! TO.P,RHPF1,2*
G04 #@! TO.N,HighPass*
X84138140Y19753580D03*
G04 #@! TO.P,RHPF1,3*
G04 #@! TO.N,GND*
X86638140Y19753580D03*
G04 #@! TD*
D14*
G04 #@! TO.P,RLPF1,*
G04 #@! TO.N,*
X103150640Y27253580D03*
X112750640Y27253580D03*
D15*
G04 #@! TO.P,RLPF1,1*
G04 #@! TO.N,+3V3*
X105450640Y19753580D03*
D16*
G04 #@! TO.P,RLPF1,2*
G04 #@! TO.N,LowPass*
X107950640Y19753580D03*
G04 #@! TO.P,RLPF1,3*
G04 #@! TO.N,GND*
X110450640Y19753580D03*
G04 #@! TD*
D17*
G04 #@! TO.P,RV6,*
G04 #@! TO.N,*
X2769840Y42627180D03*
X12369840Y42627180D03*
D15*
G04 #@! TO.P,RV6,1*
G04 #@! TO.N,+3V3*
X5069200Y35627800D03*
D16*
G04 #@! TO.P,RV6,2*
G04 #@! TO.N,Pan0*
X7569200Y35627800D03*
G04 #@! TO.P,RV6,3*
G04 #@! TO.N,GND*
X10069200Y35627800D03*
G04 #@! TD*
D17*
G04 #@! TO.P,RV8,*
G04 #@! TO.N,*
X29122340Y42627180D03*
X38722340Y42627180D03*
D15*
G04 #@! TO.P,RV8,1*
G04 #@! TO.N,+3V3*
X31421700Y35627800D03*
D16*
G04 #@! TO.P,RV8,2*
G04 #@! TO.N,Pan2*
X33921700Y35627800D03*
G04 #@! TO.P,RV8,3*
G04 #@! TO.N,GND*
X36421700Y35627800D03*
G04 #@! TD*
D17*
G04 #@! TO.P,RV9,*
G04 #@! TO.N,*
X42298590Y42627180D03*
X51898590Y42627180D03*
D15*
G04 #@! TO.P,RV9,1*
G04 #@! TO.N,+3V3*
X44597950Y35627800D03*
D16*
G04 #@! TO.P,RV9,2*
G04 #@! TO.N,Pan3*
X47097950Y35627800D03*
G04 #@! TO.P,RV9,3*
G04 #@! TO.N,GND*
X49597950Y35627800D03*
G04 #@! TD*
D17*
G04 #@! TO.P,RV10,*
G04 #@! TO.N,*
X55474840Y42627180D03*
X65074840Y42627180D03*
D15*
G04 #@! TO.P,RV10,1*
G04 #@! TO.N,+3V3*
X57774200Y35627800D03*
D16*
G04 #@! TO.P,RV10,2*
G04 #@! TO.N,Pan4*
X60274200Y35627800D03*
G04 #@! TO.P,RV10,3*
G04 #@! TO.N,GND*
X62774200Y35627800D03*
G04 #@! TD*
D17*
G04 #@! TO.P,RV11,*
G04 #@! TO.N,*
X68651090Y42627180D03*
X78251090Y42627180D03*
D15*
G04 #@! TO.P,RV11,1*
G04 #@! TO.N,+3V3*
X70950450Y35627800D03*
D16*
G04 #@! TO.P,RV11,2*
G04 #@! TO.N,Pan5*
X73450450Y35627800D03*
G04 #@! TO.P,RV11,3*
G04 #@! TO.N,GND*
X75950450Y35627800D03*
G04 #@! TD*
D17*
G04 #@! TO.P,RV12,*
G04 #@! TO.N,*
X81827340Y42627180D03*
X91427340Y42627180D03*
D15*
G04 #@! TO.P,RV12,1*
G04 #@! TO.N,+3V3*
X84126700Y35627800D03*
D16*
G04 #@! TO.P,RV12,2*
G04 #@! TO.N,Pan6*
X86626700Y35627800D03*
G04 #@! TO.P,RV12,3*
G04 #@! TO.N,GND*
X89126700Y35627800D03*
G04 #@! TD*
D17*
G04 #@! TO.P,RV13,*
G04 #@! TO.N,*
X95003590Y42627180D03*
X104603590Y42627180D03*
D15*
G04 #@! TO.P,RV13,1*
G04 #@! TO.N,+3V3*
X97302950Y35627800D03*
D16*
G04 #@! TO.P,RV13,2*
G04 #@! TO.N,Pan7*
X99802950Y35627800D03*
G04 #@! TO.P,RV13,3*
G04 #@! TO.N,GND*
X102302950Y35627800D03*
G04 #@! TD*
D17*
G04 #@! TO.P,RV14,*
G04 #@! TO.N,*
X108179840Y42627180D03*
X117779840Y42627180D03*
D15*
G04 #@! TO.P,RV14,1*
G04 #@! TO.N,+3V3*
X110479200Y35627800D03*
D16*
G04 #@! TO.P,RV14,2*
G04 #@! TO.N,Pan8*
X112979200Y35627800D03*
G04 #@! TO.P,RV14,3*
G04 #@! TO.N,GND*
X115479200Y35627800D03*
G04 #@! TD*
D14*
G04 #@! TO.P,RSPREAD1,*
G04 #@! TO.N,*
X31713140Y27253580D03*
X41313140Y27253580D03*
D15*
G04 #@! TO.P,RSPREAD1,1*
G04 #@! TO.N,+3V3*
X34013140Y19753580D03*
D16*
G04 #@! TO.P,RSPREAD1,2*
G04 #@! TO.N,Spread*
X36513140Y19753580D03*
G04 #@! TO.P,RSPREAD1,3*
G04 #@! TO.N,GND*
X39013140Y19753580D03*
G04 #@! TD*
D13*
G04 #@! TO.P,R1,1*
G04 #@! TO.N,+3V3*
X8839200Y91744800D03*
G04 #@! TO.P,R1,2*
G04 #@! TO.N,Level0*
X11379200Y91744800D03*
G04 #@! TO.P,R1,3*
G04 #@! TO.N,GND*
X8839200Y51744800D03*
G04 #@! TO.P,R1,B*
G04 #@! TO.N,Net-(R1-PadB)*
X3759200Y51744800D03*
G04 #@! TO.P,R1,E*
G04 #@! TO.N,GND*
X3759200Y91744800D03*
G04 #@! TO.P,R1,L*
G04 #@! TO.N,N/C*
X6299200Y91744800D03*
G04 #@! TD*
D18*
G04 #@! TO.P,SW1,1*
G04 #@! TO.N,+3V3*
X24485600Y24434800D03*
D19*
G04 #@! TO.P,SW1,2*
G04 #@! TO.N,SWITCH1*
X24485600Y21894800D03*
G04 #@! TO.P,SW1,3*
G04 #@! TO.N,GND*
X24485600Y19354800D03*
G04 #@! TD*
D18*
G04 #@! TO.P,SW2,1*
G04 #@! TO.N,+3V3*
X96018990Y24434800D03*
D19*
G04 #@! TO.P,SW2,2*
G04 #@! TO.N,SWITCH2*
X96018990Y21894800D03*
G04 #@! TO.P,SW2,3*
G04 #@! TO.N,GND*
X96018990Y19354800D03*
G04 #@! TD*
D17*
G04 #@! TO.P,RV7,*
G04 #@! TO.N,*
X15946090Y42627180D03*
X25546090Y42627180D03*
D15*
G04 #@! TO.P,RV7,1*
G04 #@! TO.N,+3V3*
X18245450Y35627800D03*
D16*
G04 #@! TO.P,RV7,2*
G04 #@! TO.N,Pan1*
X20745450Y35627800D03*
G04 #@! TO.P,RV7,3*
G04 #@! TO.N,GND*
X23245450Y35627800D03*
G04 #@! TD*
D13*
G04 #@! TO.P,R7,1*
G04 #@! TO.N,+3V3*
X87896700Y91744800D03*
G04 #@! TO.P,R7,2*
G04 #@! TO.N,Level6*
X90436700Y91744800D03*
G04 #@! TO.P,R7,3*
G04 #@! TO.N,GND*
X87896700Y51744800D03*
G04 #@! TO.P,R7,B*
G04 #@! TO.N,Net-(R16-Pad2)*
X82816700Y51744800D03*
G04 #@! TO.P,R7,E*
G04 #@! TO.N,GND*
X82816700Y91744800D03*
G04 #@! TO.P,R7,L*
G04 #@! TO.N,N/C*
X85356700Y91744800D03*
G04 #@! TD*
G04 #@! TO.P,R6,1*
G04 #@! TO.N,+3V3*
X74720450Y91744800D03*
G04 #@! TO.P,R6,2*
G04 #@! TO.N,Level5*
X77260450Y91744800D03*
G04 #@! TO.P,R6,3*
G04 #@! TO.N,GND*
X74720450Y51744800D03*
G04 #@! TO.P,R6,B*
G04 #@! TO.N,Net-(R15-Pad2)*
X69640450Y51744800D03*
G04 #@! TO.P,R6,E*
G04 #@! TO.N,GND*
X69640450Y91744800D03*
G04 #@! TO.P,R6,L*
G04 #@! TO.N,N/C*
X72180450Y91744800D03*
G04 #@! TD*
D11*
G04 #@! TO.P,C1,1*
G04 #@! TO.N,GND*
X93218000Y62534800D03*
G04 #@! TO.P,C1,2*
G04 #@! TO.N,+5V*
X93218000Y65034800D03*
G04 #@! TD*
G04 #@! TO.P,C2,1*
G04 #@! TO.N,GND*
X35052000Y62534800D03*
G04 #@! TO.P,C2,2*
G04 #@! TO.N,+5V*
X35052000Y65034800D03*
G04 #@! TD*
G04 #@! TO.P,C3,1*
G04 #@! TO.N,GND*
X14478000Y62534800D03*
G04 #@! TO.P,C3,2*
G04 #@! TO.N,+5V*
X14478000Y65034800D03*
G04 #@! TD*
D20*
G04 #@! TO.P,U3,1*
G04 #@! TO.N,Pan4*
X85598000Y68884800D03*
D12*
G04 #@! TO.P,U3,2*
G04 #@! TO.N,Pan3*
X85598000Y71424800D03*
G04 #@! TO.P,U3,3*
G04 #@! TO.N,PanMux*
X85598000Y73964800D03*
G04 #@! TO.P,U3,4*
G04 #@! TO.N,Pan2*
X85598000Y76504800D03*
G04 #@! TO.P,U3,5*
G04 #@! TO.N,Pan1*
X85598000Y79044800D03*
G04 #@! TO.P,U3,6*
G04 #@! TO.N,GND*
X85598000Y81584800D03*
G04 #@! TO.P,U3,7*
X85598000Y84124800D03*
G04 #@! TO.P,U3,8*
X85598000Y86664800D03*
G04 #@! TO.P,U3,9*
G04 #@! TO.N,MuxC*
X93218000Y86664800D03*
G04 #@! TO.P,U3,10*
G04 #@! TO.N,MuxB*
X93218000Y84124800D03*
G04 #@! TO.P,U3,11*
G04 #@! TO.N,MuxA*
X93218000Y81584800D03*
G04 #@! TO.P,U3,12*
G04 #@! TO.N,Pan8*
X93218000Y79044800D03*
G04 #@! TO.P,U3,13*
G04 #@! TO.N,Pan7*
X93218000Y76504800D03*
G04 #@! TO.P,U3,14*
G04 #@! TO.N,Pan5*
X93218000Y73964800D03*
G04 #@! TO.P,U3,15*
G04 #@! TO.N,Pan6*
X93218000Y71424800D03*
G04 #@! TO.P,U3,16*
G04 #@! TO.N,+5V*
X93218000Y68884800D03*
G04 #@! TD*
D20*
G04 #@! TO.P,U4,1*
G04 #@! TO.N,Time*
X6858000Y68884800D03*
D12*
G04 #@! TO.P,U4,2*
G04 #@! TO.N,Pan0*
X6858000Y71424800D03*
G04 #@! TO.P,U4,3*
G04 #@! TO.N,MiscMux*
X6858000Y73964800D03*
G04 #@! TO.P,U4,4*
G04 #@! TO.N,GND*
X6858000Y76504800D03*
G04 #@! TO.P,U4,5*
G04 #@! TO.N,LowPass*
X6858000Y79044800D03*
G04 #@! TO.P,U4,6*
G04 #@! TO.N,GND*
X6858000Y81584800D03*
G04 #@! TO.P,U4,7*
X6858000Y84124800D03*
G04 #@! TO.P,U4,8*
X6858000Y86664800D03*
G04 #@! TO.P,U4,9*
G04 #@! TO.N,MuxC*
X14478000Y86664800D03*
G04 #@! TO.P,U4,10*
G04 #@! TO.N,MuxB*
X14478000Y84124800D03*
G04 #@! TO.P,U4,11*
G04 #@! TO.N,MuxA*
X14478000Y81584800D03*
G04 #@! TO.P,U4,12*
G04 #@! TO.N,Level0*
X14478000Y79044800D03*
G04 #@! TO.P,U4,13*
G04 #@! TO.N,HighPass*
X14478000Y76504800D03*
G04 #@! TO.P,U4,14*
G04 #@! TO.N,Feedback*
X14478000Y73964800D03*
G04 #@! TO.P,U4,15*
G04 #@! TO.N,Spread*
X14478000Y71424800D03*
G04 #@! TO.P,U4,16*
G04 #@! TO.N,+5V*
X14478000Y68884800D03*
G04 #@! TD*
D20*
G04 #@! TO.P,U5,1*
G04 #@! TO.N,MuxA*
X106426000Y68884800D03*
D12*
G04 #@! TO.P,U5,2*
G04 #@! TO.N,+3V3*
X106426000Y71424800D03*
G04 #@! TO.P,U5,3*
G04 #@! TO.N,-12V*
X106426000Y73964800D03*
G04 #@! TO.P,U5,4*
G04 #@! TO.N,LevelCV4*
X106426000Y76504800D03*
G04 #@! TO.P,U5,5*
G04 #@! TO.N,LevelCV3*
X106426000Y79044800D03*
G04 #@! TO.P,U5,6*
G04 #@! TO.N,LevelCV2*
X106426000Y81584800D03*
G04 #@! TO.P,U5,7*
G04 #@! TO.N,LevelCV1*
X106426000Y84124800D03*
G04 #@! TO.P,U5,8*
G04 #@! TO.N,LevelCVMux*
X106426000Y86664800D03*
G04 #@! TO.P,U5,9*
G04 #@! TO.N,LevelCV8*
X114046000Y86664800D03*
G04 #@! TO.P,U5,10*
G04 #@! TO.N,LevelCV7*
X114046000Y84124800D03*
G04 #@! TO.P,U5,11*
G04 #@! TO.N,LevelCV6*
X114046000Y81584800D03*
G04 #@! TO.P,U5,12*
G04 #@! TO.N,LevelCV5*
X114046000Y79044800D03*
G04 #@! TO.P,U5,13*
G04 #@! TO.N,+12V*
X114046000Y76504800D03*
G04 #@! TO.P,U5,14*
G04 #@! TO.N,GND*
X114046000Y73964800D03*
G04 #@! TO.P,U5,15*
G04 #@! TO.N,MuxC*
X114046000Y71424800D03*
G04 #@! TO.P,U5,16*
G04 #@! TO.N,MuxB*
X114046000Y68884800D03*
G04 #@! TD*
D20*
G04 #@! TO.P,U2,1*
G04 #@! TO.N,Level4*
X27432000Y68884800D03*
D12*
G04 #@! TO.P,U2,2*
G04 #@! TO.N,Level3*
X27432000Y71424800D03*
G04 #@! TO.P,U2,3*
G04 #@! TO.N,LevelMux*
X27432000Y73964800D03*
G04 #@! TO.P,U2,4*
G04 #@! TO.N,Level2*
X27432000Y76504800D03*
G04 #@! TO.P,U2,5*
G04 #@! TO.N,Level1*
X27432000Y79044800D03*
G04 #@! TO.P,U2,6*
G04 #@! TO.N,GND*
X27432000Y81584800D03*
G04 #@! TO.P,U2,7*
X27432000Y84124800D03*
G04 #@! TO.P,U2,8*
X27432000Y86664800D03*
G04 #@! TO.P,U2,9*
G04 #@! TO.N,MuxC*
X35052000Y86664800D03*
G04 #@! TO.P,U2,10*
G04 #@! TO.N,MuxB*
X35052000Y84124800D03*
G04 #@! TO.P,U2,11*
G04 #@! TO.N,MuxA*
X35052000Y81584800D03*
G04 #@! TO.P,U2,12*
G04 #@! TO.N,Level5*
X35052000Y79044800D03*
G04 #@! TO.P,U2,13*
G04 #@! TO.N,Level6*
X35052000Y76504800D03*
G04 #@! TO.P,U2,14*
G04 #@! TO.N,Level7*
X35052000Y73964800D03*
G04 #@! TO.P,U2,15*
G04 #@! TO.N,Level8*
X35052000Y71424800D03*
G04 #@! TO.P,U2,16*
G04 #@! TO.N,+5V*
X35052000Y68884800D03*
G04 #@! TD*
D11*
G04 #@! TO.P,C5,1*
G04 #@! TO.N,-12V*
X106426000Y64820800D03*
G04 #@! TO.P,C5,2*
G04 #@! TO.N,GND*
X106426000Y62320800D03*
G04 #@! TD*
G04 #@! TO.P,C4,1*
G04 #@! TO.N,GND*
X114046000Y62280800D03*
G04 #@! TO.P,C4,2*
G04 #@! TO.N,+12V*
X114046000Y64780800D03*
G04 #@! TD*
D21*
G04 #@! TO.P,J16,1*
G04 #@! TO.N,+12V*
X117935424Y26011977D03*
D22*
G04 #@! TO.P,J16,2*
X115395424Y26011977D03*
G04 #@! TO.P,J16,3*
G04 #@! TO.N,GND*
X117935424Y23471977D03*
G04 #@! TO.P,J16,4*
X115395424Y23471977D03*
G04 #@! TO.P,J16,5*
X117935424Y20931977D03*
G04 #@! TO.P,J16,6*
X115395424Y20931977D03*
G04 #@! TO.P,J16,7*
X117935424Y18391977D03*
G04 #@! TO.P,J16,8*
X115395424Y18391977D03*
G04 #@! TO.P,J16,9*
G04 #@! TO.N,-12V*
X117935424Y15851977D03*
G04 #@! TO.P,J16,10*
X115395424Y15851977D03*
G04 #@! TD*
D21*
G04 #@! TO.P,U1,1*
G04 #@! TO.N,-12V*
X75410000Y18594800D03*
D22*
G04 #@! TO.P,U1,2*
G04 #@! TO.N,LED6*
X75410000Y21134800D03*
G04 #@! TO.P,U1,3*
G04 #@! TO.N,PanMux*
X75410000Y23674800D03*
G04 #@! TO.P,U1,4*
G04 #@! TO.N,GND*
X75410000Y26214800D03*
G04 #@! TO.P,U1,5*
G04 #@! TO.N,+12V*
X75410000Y28754800D03*
G04 #@! TO.P,U1,6*
G04 #@! TO.N,+5V*
X72870000Y28754800D03*
G04 #@! TO.P,U1,7*
G04 #@! TO.N,GND*
X72870000Y26214800D03*
G04 #@! TO.P,U1,8*
G04 #@! TO.N,LED4*
X72870000Y23674800D03*
G04 #@! TO.P,U1,9*
G04 #@! TO.N,LED3*
X72870000Y21134800D03*
G04 #@! TO.P,U1,10*
G04 #@! TO.N,+3V3*
X72870000Y18594800D03*
D21*
G04 #@! TO.P,U1,11*
G04 #@! TO.N,AudioOutL*
X78257400Y80052800D03*
D22*
G04 #@! TO.P,U1,12*
G04 #@! TO.N,AudioOutR*
X75717400Y80052800D03*
G04 #@! TO.P,U1,13*
G04 #@! TO.N,AudioInL*
X73177400Y80052800D03*
G04 #@! TO.P,U1,14*
G04 #@! TO.N,AudioInR*
X70637400Y80052800D03*
G04 #@! TO.P,U1,15*
G04 #@! TO.N,Net-(U1-Pad15)*
X68097400Y80052800D03*
G04 #@! TO.P,U1,16*
G04 #@! TO.N,Net-(U1-Pad16)*
X68097400Y77512800D03*
G04 #@! TO.P,U1,17*
G04 #@! TO.N,LED7*
X70637400Y77512800D03*
G04 #@! TO.P,U1,18*
G04 #@! TO.N,LED8*
X73177400Y77512800D03*
G04 #@! TO.P,U1,19*
G04 #@! TO.N,SWITCH2*
X75717400Y77512800D03*
G04 #@! TO.P,U1,20*
G04 #@! TO.N,Clock*
X78257400Y77512800D03*
D21*
G04 #@! TO.P,U1,21*
G04 #@! TO.N,Net-(U1-Pad21)*
X52260800Y80050000D03*
D22*
G04 #@! TO.P,U1,22*
G04 #@! TO.N,LowPassCV*
X49720800Y80050000D03*
G04 #@! TO.P,U1,23*
G04 #@! TO.N,HighPassCV*
X47180800Y80050000D03*
G04 #@! TO.P,U1,24*
G04 #@! TO.N,LevelCV0*
X44640800Y80050000D03*
G04 #@! TO.P,U1,25*
G04 #@! TO.N,LevelCVMux*
X42100800Y80050000D03*
G04 #@! TO.P,U1,26*
G04 #@! TO.N,SpreadCV*
X42100800Y77510000D03*
G04 #@! TO.P,U1,27*
G04 #@! TO.N,TimeCV*
X44640800Y77510000D03*
G04 #@! TO.P,U1,28*
G04 #@! TO.N,FeedbackCV*
X47180800Y77510000D03*
G04 #@! TO.P,U1,29*
G04 #@! TO.N,Net-(U1-Pad29)*
X49720800Y77510000D03*
G04 #@! TO.P,U1,30*
G04 #@! TO.N,Net-(U1-Pad30)*
X52260800Y77510000D03*
D21*
G04 #@! TO.P,U1,31*
G04 #@! TO.N,LED5*
X47523400Y18669000D03*
D22*
G04 #@! TO.P,U1,32*
G04 #@! TO.N,MuxA*
X47523400Y21209000D03*
G04 #@! TO.P,U1,33*
G04 #@! TO.N,MuxB*
X47523400Y23749000D03*
G04 #@! TO.P,U1,34*
G04 #@! TO.N,MuxC*
X47523400Y26289000D03*
G04 #@! TO.P,U1,35*
G04 #@! TO.N,LED2*
X47523400Y28829000D03*
G04 #@! TO.P,U1,36*
G04 #@! TO.N,LED1*
X44983400Y28829000D03*
G04 #@! TO.P,U1,37*
G04 #@! TO.N,LED0*
X44983400Y26289000D03*
G04 #@! TO.P,U1,38*
G04 #@! TO.N,LevelMux*
X44983400Y23749000D03*
G04 #@! TO.P,U1,39*
G04 #@! TO.N,MiscMux*
X44983400Y21209000D03*
G04 #@! TO.P,U1,40*
G04 #@! TO.N,SWITCH1*
X44983400Y18669000D03*
G04 #@! TD*
D23*
G04 #@! TO.N,+5V*
X59650000Y65034800D03*
X48728000Y65034800D03*
G04 #@! TO.N,+12V*
X119557800Y32054800D03*
X116230400Y32080200D03*
G04 #@! TO.N,LevelCV0*
X18542000Y79044800D03*
G04 #@! TO.N,-12V*
X112463862Y21929196D03*
G04 #@! TO.N,+3V3*
X101346000Y84632800D03*
G04 #@! TO.N,SWITCH2*
X88290400Y61137800D03*
G04 #@! TD*
D24*
G04 #@! TO.N,-12V*
X110119414Y28294752D02*
X106160837Y28294752D01*
X88128082Y29885882D02*
X76837000Y18594800D01*
X76837000Y18594800D02*
X75410000Y18594800D01*
X106160837Y28294752D02*
X104569707Y29885882D01*
X104569707Y29885882D02*
X88128082Y29885882D01*
X117703600Y30530800D02*
X117138367Y29965567D01*
X111790229Y29965567D02*
X110119414Y28294752D01*
X117138367Y29965567D02*
X111790229Y29965567D01*
G04 #@! TO.N,+5V*
X90322400Y47523400D02*
X90347800Y47498000D01*
X90220800Y53771800D02*
X90170000Y53721000D01*
X71577200Y72440800D02*
X90170000Y53848000D01*
X72870000Y28928000D02*
X78841600Y34899600D01*
X96774000Y47498000D02*
X98044000Y48768000D01*
X98044000Y56235600D02*
X98044000Y57962800D01*
X98044000Y48768000D02*
X98044000Y56388000D01*
X90601800Y47498000D02*
X91694000Y47498000D01*
X91694000Y60756800D02*
X90932000Y61518800D01*
X62484000Y67614800D02*
X62484000Y70154800D01*
X14478000Y65034800D02*
X35052000Y65034800D01*
X59904000Y65034800D02*
X62484000Y67614800D01*
X92162000Y65034800D02*
X93218000Y65034800D01*
X78841600Y34899600D02*
X78841600Y35703239D01*
X64770000Y72440800D02*
X71577200Y72440800D01*
X35052000Y65034800D02*
X48728000Y65034800D01*
X72870000Y28754800D02*
X72870000Y28928000D01*
X90932000Y63804800D02*
X92162000Y65034800D01*
X14478000Y68884800D02*
X14478000Y65034800D01*
X62484000Y70154800D02*
X64770000Y72440800D01*
X90932000Y61518800D02*
X90932000Y63804800D01*
X98044000Y57962800D02*
X95250000Y60756800D01*
X35052000Y68884800D02*
X35052000Y65034800D01*
X59650000Y65034800D02*
X59904000Y65034800D01*
X78841600Y35703239D02*
X90322400Y47184039D01*
X90322400Y47184039D02*
X90322400Y47523400D01*
X90347800Y47498000D02*
X91694000Y47498000D01*
X95250000Y60756800D02*
X91694000Y60756800D01*
X91694000Y47498000D02*
X96774000Y47498000D01*
X90170000Y53721000D02*
X90170000Y47929800D01*
G04 #@! TO.N,GND*
X30127400Y94612000D02*
X17421400Y94612000D01*
X69288200Y94612000D02*
X56918400Y94612000D01*
X89126700Y39753800D02*
X89126700Y36506000D01*
X69691250Y91795600D02*
X69691250Y94208950D01*
X87376000Y81584800D02*
X89408000Y79552800D01*
X86638140Y19270980D02*
X86638140Y19753580D01*
X62530350Y41000050D02*
X62774200Y40756200D01*
X114217027Y19753580D02*
X115395424Y20931977D01*
X96012000Y62534800D02*
X94488000Y62534800D01*
X8890000Y40716200D02*
X10439400Y40716200D01*
X47123350Y94612000D02*
X47123350Y97712000D01*
X75410000Y26214800D02*
X72870000Y26214800D01*
X39013140Y1524340D02*
X39016480Y1521000D01*
X33947100Y97712000D02*
X33972500Y97686600D01*
X88967320Y16941800D02*
X86638140Y19270980D01*
X117297200Y88900000D02*
X113715800Y88900000D01*
X95732600Y16941800D02*
X88967320Y16941800D01*
X30162500Y94576900D02*
X30127400Y94612000D01*
X87896700Y50119200D02*
X85453300Y47675800D01*
X24485600Y1594200D02*
X24412400Y1521000D01*
X56464200Y91744800D02*
X56515000Y91795600D01*
X76001250Y37577000D02*
X75950450Y37627800D01*
X75950450Y41000050D02*
X71114764Y41000050D01*
X111760000Y75996800D02*
X113792000Y73964800D01*
X113086795Y50582395D02*
X113086795Y41429485D01*
X85071883Y39772983D02*
X81915000Y36616100D01*
X97005600Y1521000D02*
X113030000Y1521000D01*
X62602920Y1521000D02*
X89679320Y1521000D01*
X7620000Y5510000D02*
X7620000Y1521000D01*
X30111700Y91744800D02*
X30162500Y91795600D01*
X10439400Y40716200D02*
X10069200Y40346000D01*
X2794000Y39065200D02*
X2794000Y10336000D01*
X115395424Y20931977D02*
X117935424Y20931977D01*
X76111100Y47675800D02*
X75838050Y47402750D01*
X89605554Y4621000D02*
X89605554Y1521000D01*
X85598000Y81584800D02*
X87376000Y81584800D01*
X17421400Y94612000D02*
X7594600Y94612000D01*
X30162500Y91795600D02*
X30162500Y94576900D01*
X113030000Y97686600D02*
X113004600Y97712000D01*
X109471000Y94612000D02*
X99828350Y94612000D01*
X89679320Y1521000D02*
X97005600Y1521000D01*
X24961498Y38614702D02*
X32823502Y38614702D01*
X16935450Y94126050D02*
X17421400Y94612000D01*
X38556914Y38811486D02*
X46710886Y38811486D01*
X22860000Y40716200D02*
X24961498Y38614702D01*
X77893332Y4621000D02*
X77893332Y1521000D01*
X7594600Y94612000D02*
X7594600Y97712000D01*
X113004600Y94612000D02*
X113052400Y94564200D01*
X43338750Y91795600D02*
X43338750Y94551850D01*
X70866000Y27178000D02*
X70866000Y29464000D01*
X10414000Y64058800D02*
X10414000Y76314300D01*
X81915000Y33527182D02*
X83076615Y32365567D01*
X62817539Y37856680D02*
X62774200Y37813341D01*
X99853750Y97686600D02*
X99853750Y94637400D01*
X35191700Y51744800D02*
X35242500Y51694000D01*
X48367950Y51744800D02*
X48418750Y51694000D01*
X75950450Y47290350D02*
X75838050Y47402750D01*
X24838200Y1521000D02*
X39016480Y1521000D01*
X97005600Y1521000D02*
X97005600Y5337000D01*
X60299600Y97712000D02*
X60325000Y97686600D01*
X71114764Y41000050D02*
X67971394Y37856680D01*
X8839200Y51744800D02*
X12187000Y55092600D01*
X113086795Y41429485D02*
X115479200Y39037080D01*
X72870000Y26214800D02*
X71829200Y26214800D01*
X7620000Y1521000D02*
X19332222Y1521000D01*
X22860000Y40716200D02*
X23245450Y40330750D01*
X96043750Y91795600D02*
X96043750Y94412150D01*
X89605554Y1521000D02*
X89679320Y1521000D01*
X54468888Y4621000D02*
X54468888Y1521000D01*
X36652200Y40716200D02*
X38556914Y38811486D01*
X116890800Y94564200D02*
X118491000Y92964000D01*
X32823502Y38614702D02*
X34925000Y40716200D01*
X15683240Y19270980D02*
X24401780Y19270980D01*
X3810000Y90170000D02*
X3810000Y93751400D01*
X43278600Y94612000D02*
X30127400Y94612000D01*
X89408000Y79552800D02*
X89408000Y69900800D01*
X96018990Y19354800D02*
X96018990Y17228190D01*
X113004600Y94612000D02*
X109471000Y94612000D01*
X61544200Y41986200D02*
X61544200Y51744800D01*
X110450640Y18782040D02*
X110450640Y19753580D01*
X82816700Y91744800D02*
X82867500Y91795600D01*
X76001250Y34599250D02*
X76001250Y37577000D01*
X94488000Y62534800D02*
X93218000Y62534800D01*
X97005600Y5337000D02*
X110450640Y18782040D01*
X109220000Y91795600D02*
X109220000Y94361000D01*
X110450640Y19753580D02*
X114217027Y19753580D01*
X69691250Y94208950D02*
X69288200Y94612000D01*
X15200640Y19753580D02*
X15683240Y19270980D01*
X85453300Y47675800D02*
X76111100Y47675800D01*
X62530350Y41000050D02*
X61544200Y41986200D01*
X86652100Y97712000D02*
X86677500Y97686600D01*
X49597950Y38260650D02*
X49597950Y37627800D01*
X89408000Y69900800D02*
X92202000Y67106800D01*
X36652200Y40716200D02*
X36421700Y40485700D01*
X62774200Y40756200D02*
X62774200Y37813341D01*
X10439400Y40716200D02*
X12127651Y39027949D01*
X70866000Y29464000D02*
X76001250Y34599250D01*
X14478000Y55092600D02*
X16510000Y57124600D01*
X96018990Y17228190D02*
X95732600Y16941800D01*
X8890000Y40716200D02*
X4445000Y40716200D01*
X101123750Y40697150D02*
X100199583Y39772983D01*
X115479200Y39037080D02*
X115479200Y35627800D01*
X6858000Y76504800D02*
X10223500Y76504800D01*
X35242500Y62344300D02*
X35052000Y62534800D01*
X108926640Y22111960D02*
X102248960Y22111960D01*
X49597950Y37627310D02*
X49597950Y35627800D01*
X20770850Y94612000D02*
X20770850Y97712000D01*
X22275800Y40716200D02*
X22860000Y40716200D01*
X110450640Y20587960D02*
X108926640Y22111960D01*
X115479200Y34059073D02*
X115479200Y35627800D01*
X102248960Y22111960D02*
X97078800Y16941800D01*
X22015450Y40976550D02*
X22275800Y40716200D01*
X12187000Y55092600D02*
X14478000Y55092600D01*
X62825640Y2446360D02*
X62862000Y2410000D01*
X49597950Y39149650D02*
X49597950Y37627800D01*
X16510000Y57124600D02*
X16510000Y60502800D01*
X8890000Y51694000D02*
X8890000Y40716200D01*
X42756666Y4621000D02*
X42756666Y1521000D01*
X43338750Y94551850D02*
X43278600Y94612000D01*
X62774200Y37813341D02*
X62774200Y35627800D01*
X114249200Y51744800D02*
X113086795Y50582395D01*
X75838050Y47682150D02*
X74771250Y48748950D01*
X16935450Y91744800D02*
X16935450Y94126050D01*
X11938000Y62534800D02*
X10414000Y64058800D01*
X114249200Y50627200D02*
X114249200Y51744800D01*
X60299600Y94612000D02*
X60299600Y97712000D01*
X109169200Y91744800D02*
X109220000Y91795600D01*
X75410000Y26214800D02*
X75998800Y26214800D01*
X115395424Y23471977D02*
X115395424Y18391977D01*
X24412400Y1521000D02*
X24838200Y1521000D01*
X49597705Y37627555D02*
X49597950Y37627310D01*
X113004600Y94612000D02*
X113030000Y94637400D01*
X10414000Y80060800D02*
X8890000Y81584800D01*
X82867500Y94500700D02*
X82756200Y94612000D01*
X31044444Y4621000D02*
X31044444Y1521000D01*
X33947100Y94612000D02*
X33947100Y97712000D01*
X62825640Y1743720D02*
X62602920Y1521000D01*
X23245450Y40330750D02*
X23245450Y35627800D01*
X69640450Y91744800D02*
X69691250Y91795600D01*
X102300772Y40040828D02*
X102300772Y37985226D01*
X34925000Y40716200D02*
X36652200Y40716200D01*
X14478000Y62534800D02*
X11938000Y62534800D01*
X75950450Y41000050D02*
X75950450Y47290350D01*
X62825640Y19270980D02*
X62825640Y2446360D01*
X48367950Y51744800D02*
X46384410Y49761260D01*
X118491000Y92964000D02*
X118491000Y90093800D01*
X96012000Y65582800D02*
X96012000Y62788800D01*
X101644450Y40697150D02*
X102300772Y40040828D01*
X43287950Y91744800D02*
X43338750Y91795600D01*
X101123750Y40697150D02*
X101123750Y57423050D01*
X114006000Y62320800D02*
X114046000Y62280800D01*
X24485600Y19354800D02*
X24485600Y1594200D01*
X35052000Y61722000D02*
X25074800Y51744800D01*
X61544200Y51744800D02*
X61595000Y51694000D01*
X24401780Y19270980D02*
X24485600Y19354800D01*
X66181110Y4621000D02*
X66181110Y1521000D01*
X3810000Y88138000D02*
X6858000Y85090000D01*
X39013140Y19753580D02*
X39013140Y1524340D01*
X46384410Y42363190D02*
X49597950Y39149650D01*
X36421700Y40485700D02*
X36421700Y35627800D01*
X25074800Y51744800D02*
X22015450Y51744800D01*
X35191700Y40982900D02*
X34925000Y40716200D01*
X73475850Y94612000D02*
X73475850Y97712000D01*
X113715800Y88900000D02*
X111760000Y86944200D01*
X113052400Y94564200D02*
X116890800Y94564200D01*
X7620000Y81584800D02*
X6858000Y81584800D01*
X8890000Y81584800D02*
X6858000Y81584800D01*
X99828350Y97712000D02*
X99853750Y97686600D01*
X92202000Y67106800D02*
X94488000Y67106800D01*
X111760000Y86944200D02*
X111760000Y75996800D01*
X101123750Y57423050D02*
X96012000Y62534800D01*
X47123350Y97712000D02*
X47148750Y97686600D01*
X19332222Y1521000D02*
X24412400Y1521000D01*
X46710886Y38811486D02*
X48336200Y40436800D01*
X96043750Y94412150D02*
X96243600Y94612000D01*
X39016480Y1521000D02*
X62602920Y1521000D01*
X56515000Y94208600D02*
X56918400Y94612000D01*
X4670600Y94612000D02*
X7594600Y94612000D01*
X118491000Y90093800D02*
X117297200Y88900000D01*
X109220000Y94361000D02*
X109471000Y94612000D01*
X87896700Y51744800D02*
X87896700Y50119200D01*
X102302950Y37878860D02*
X102302950Y35627800D01*
X110450640Y19270980D02*
X110450640Y20587960D01*
X3810000Y93751400D02*
X4670600Y94612000D01*
X101123750Y40697150D02*
X101644450Y40697150D01*
X12127651Y39027949D02*
X20587549Y39027949D01*
X100199583Y39772983D02*
X85071883Y39772983D01*
X75950450Y37627800D02*
X75950450Y41000050D01*
X75838050Y47402750D02*
X75838050Y47682150D01*
X7594600Y97712000D02*
X7620000Y97686600D01*
X113785694Y32365567D02*
X115479200Y34059073D01*
X35052000Y62534800D02*
X35052000Y61722000D01*
X56918400Y94612000D02*
X53203680Y94612000D01*
X83076615Y32365567D02*
X113785694Y32365567D01*
X97078800Y16941800D02*
X95732600Y16941800D01*
X20770850Y97712000D02*
X20796250Y97686600D01*
X2794000Y10336000D02*
X7620000Y5510000D01*
X62825640Y2446360D02*
X62825640Y1743720D01*
X74771250Y48748950D02*
X74771250Y51694000D01*
X49597950Y37627800D02*
X49597705Y37627555D01*
X4445000Y40716200D02*
X2794000Y39065200D01*
X99828350Y94612000D02*
X96243600Y94612000D01*
X73475850Y97712000D02*
X73501250Y97686600D01*
X81915000Y36616100D02*
X81915000Y33527182D01*
X71829200Y26214800D02*
X70866000Y27178000D01*
X3810000Y90170000D02*
X3810000Y88138000D01*
X8839200Y51744800D02*
X8890000Y51694000D01*
X113792000Y73964800D02*
X114046000Y73964800D01*
X56515000Y91795600D02*
X56515000Y94208600D01*
X67971394Y37856680D02*
X62817539Y37856680D01*
X22015450Y51744800D02*
X22015450Y40976550D01*
X94488000Y67106800D02*
X96012000Y65582800D01*
X82756200Y94612000D02*
X69288200Y94612000D01*
X113030000Y94637400D02*
X113030000Y97686600D01*
X16510000Y60502800D02*
X14478000Y62534800D01*
X96243600Y94612000D02*
X82756200Y94612000D01*
X95992950Y91744800D02*
X96043750Y91795600D01*
X46384410Y49761260D02*
X46384410Y42363190D01*
X86652100Y94612000D02*
X86652100Y97712000D01*
X10069200Y40346000D02*
X10069200Y35627800D01*
X117935424Y23471977D02*
X117935424Y18391977D01*
X74771250Y51694000D02*
X74720450Y51744800D01*
X10223500Y76504800D02*
X10414000Y76314300D01*
X22015450Y51744800D02*
X22066250Y51694000D01*
X6858000Y86664800D02*
X6858000Y81584800D01*
X82867500Y91795600D02*
X82867500Y94500700D01*
X53203680Y94612000D02*
X43278600Y94612000D01*
X89107517Y39772983D02*
X89126700Y39753800D01*
X35191700Y51744800D02*
X35191700Y40982900D01*
X99853750Y94637400D02*
X99828350Y94612000D01*
X76001250Y34599250D02*
X76001250Y34910000D01*
X20587549Y39027949D02*
X22275800Y40716200D01*
X10414000Y76314300D02*
X10414000Y80060800D01*
G04 #@! TO.N,+12V*
X119557800Y32054800D02*
X119557800Y27634353D01*
X117935424Y26011977D02*
X115395424Y26011977D01*
X77820767Y31165567D02*
X115315767Y31165567D01*
X116586000Y64592200D02*
X119507000Y61671200D01*
X119507000Y32105600D02*
X119557800Y32054800D01*
X116586000Y75488800D02*
X116586000Y64780800D01*
X115570000Y76504800D02*
X116586000Y75488800D01*
X114046000Y64780800D02*
X116586000Y64780800D01*
X115315767Y31165567D02*
X116230400Y32080200D01*
X119557800Y27634353D02*
X117935424Y26011977D01*
X116586000Y64780800D02*
X116586000Y64592200D01*
X114046000Y76504800D02*
X115570000Y76504800D01*
X75410000Y28754800D02*
X77820767Y31165567D01*
X119507000Y61671200D02*
X119507000Y32105600D01*
D25*
G04 #@! TO.N,LevelCV0*
X44640800Y80759000D02*
X43662600Y81737200D01*
X43662600Y81737200D02*
X40843200Y81737200D01*
X38328600Y79222600D02*
X38328600Y77241600D01*
X36466799Y75379799D02*
X22207001Y75379799D01*
X38328600Y77241600D02*
X36466799Y75379799D01*
X22207001Y75379799D02*
X18542000Y79044800D01*
X44640800Y80050000D02*
X44640800Y80759000D01*
X40843200Y81737200D02*
X38328600Y79222600D01*
D24*
G04 #@! TO.N,-12V*
X110119414Y28294752D02*
X110119414Y25669777D01*
X115747800Y57023000D02*
X115747800Y40465536D01*
X108966000Y64820800D02*
X108966000Y63804800D01*
X110119414Y25669777D02*
X112463862Y23325329D01*
X108966000Y72948800D02*
X108966000Y64820800D01*
X108966000Y63804800D02*
X115747800Y57023000D01*
X106426000Y73964800D02*
X107950000Y73964800D01*
X115747800Y40465536D02*
X117703600Y38509736D01*
X112463862Y23325329D02*
X112463862Y21929196D01*
X117703600Y38509736D02*
X117703600Y30530800D01*
X106426000Y64820800D02*
X108966000Y64820800D01*
X107950000Y73964800D02*
X108966000Y72948800D01*
D25*
G04 #@! TO.N,AudioInL*
X9354800Y12921000D02*
X7620000Y12921000D01*
X19332222Y4621000D02*
X17654800Y4621000D01*
X17654800Y4621000D02*
X9354800Y12921000D01*
D24*
G04 #@! TO.N,+3V3*
X72870000Y18594800D02*
X68019200Y18594800D01*
X34013140Y21790660D02*
X33959800Y21844000D01*
X74498200Y89382600D02*
X87553800Y89382600D01*
X57825640Y17947640D02*
X56591200Y16713200D01*
X18245450Y35627800D02*
X21485360Y32387890D01*
X34253660Y32795840D02*
X41765990Y32795840D01*
X74720450Y89604850D02*
X74498200Y89382600D01*
X110479200Y58053600D02*
X110479200Y36184200D01*
X84810600Y35306000D02*
X84126700Y35989900D01*
X48367950Y89439750D02*
X48310800Y89382600D01*
X99276104Y33654646D02*
X97302950Y35627800D01*
X44221400Y16713200D02*
X40613141Y20321459D01*
X22015450Y89401650D02*
X21996400Y89382600D01*
X40613141Y20521581D02*
X39781141Y21353581D01*
X103192580Y19753580D02*
X105450640Y19753580D01*
X110479200Y35627800D02*
X108506046Y33654646D01*
X31115000Y21844000D02*
X28549600Y24409400D01*
X87896700Y89725500D02*
X87553800Y89382600D01*
X101269800Y89382600D02*
X112217200Y89382600D01*
X103886000Y62026800D02*
X105410000Y60502800D01*
X114249200Y91414600D02*
X114249200Y91744800D01*
X21485360Y32387890D02*
X24485600Y32387890D01*
X31421700Y35627800D02*
X34253660Y32795840D01*
X8839200Y89382600D02*
X21996400Y89382600D01*
X97302950Y35691450D02*
X97688400Y35306000D01*
X35191700Y89496900D02*
X35077400Y89382600D01*
X81638140Y11074400D02*
X81638140Y19270980D01*
X105410000Y60502800D02*
X108026200Y60502800D01*
X39781141Y21353581D02*
X39581019Y21353581D01*
X57825640Y32170360D02*
X57825640Y17947640D01*
X81559400Y11099800D02*
X81584800Y11074400D01*
X103886000Y70016170D02*
X103886000Y62026800D01*
X61544200Y89560400D02*
X61366400Y89382600D01*
X95240717Y33565567D02*
X86188933Y33565567D01*
X16102464Y33484814D02*
X18245450Y35627800D01*
X57825000Y35596200D02*
X59811973Y33609227D01*
X97302950Y35627800D02*
X95240717Y33565567D01*
X101346000Y84632800D02*
X101346000Y89306400D01*
X35191700Y91744800D02*
X35191700Y89496900D01*
X24511000Y24409400D02*
X24485600Y24434800D01*
X68072000Y16764000D02*
X73736200Y11099800D01*
X68019200Y18594800D02*
X64846200Y21767800D01*
X108506046Y33654646D02*
X99276104Y33654646D01*
X87896700Y91744800D02*
X87896700Y89725500D01*
X81638140Y19270980D02*
X81788000Y19121120D01*
X40613141Y20321459D02*
X40613141Y20521581D01*
X24485600Y32387890D02*
X25411624Y32387890D01*
X86188933Y33565567D02*
X84126700Y35627800D01*
X10200640Y19753580D02*
X10200640Y32198210D01*
X73736200Y11099800D02*
X94538800Y11099800D01*
X81584800Y11074400D02*
X81638140Y11074400D01*
X94538800Y11099800D02*
X103192580Y19753580D01*
X87553800Y89382600D02*
X101269800Y89382600D01*
X8839200Y91744800D02*
X8839200Y89382600D01*
X28651534Y35627800D02*
X31421700Y35627800D01*
X39090600Y21844000D02*
X33959800Y21844000D01*
X74720450Y91744800D02*
X74720450Y89604850D01*
X61544200Y91744800D02*
X61544200Y89560400D01*
X68019200Y18594800D02*
X68072000Y18542000D01*
X57825000Y35596200D02*
X57825000Y32171000D01*
X101072950Y91744800D02*
X101072950Y89579450D01*
X34061400Y19319240D02*
X34013140Y19367500D01*
X61366400Y89382600D02*
X74498200Y89382600D01*
X41765990Y32795840D02*
X44597950Y35627800D01*
X5069200Y35627800D02*
X8039056Y32657944D01*
X108026200Y60502800D02*
X110477300Y58051700D01*
X34013140Y19367500D02*
X34013140Y21790660D01*
X24485600Y24434800D02*
X24485600Y32387890D01*
X64846200Y21767800D02*
X57835800Y21767800D01*
X101072950Y89579450D02*
X101269800Y89382600D01*
X68072000Y18542000D02*
X68072000Y16764000D01*
X101072950Y91744800D02*
X101123750Y91694000D01*
X112217200Y89382600D02*
X114249200Y91414600D01*
X48367950Y91744800D02*
X48367950Y89439750D01*
X57825000Y32171000D02*
X57825640Y32170360D01*
X10660374Y32657944D02*
X11487244Y33484814D01*
X28549600Y24409400D02*
X24511000Y24409400D01*
X10200640Y32198210D02*
X10660374Y32657944D01*
X11487244Y33484814D02*
X16102464Y33484814D01*
X48310800Y89382600D02*
X61366400Y89382600D01*
X56591200Y16713200D02*
X44221400Y16713200D01*
X33959800Y21844000D02*
X31115000Y21844000D01*
X59811973Y33609227D02*
X68931877Y33609227D01*
X21996400Y89382600D02*
X35077400Y89382600D01*
X110477300Y58051700D02*
X110479200Y58053600D01*
X35077400Y89382600D02*
X48310800Y89382600D01*
X101346000Y89306400D02*
X101269800Y89382600D01*
X105294630Y71424800D02*
X103886000Y70016170D01*
X18245450Y35754950D02*
X18338800Y35661600D01*
X25411624Y32387890D02*
X28651534Y35627800D01*
X8039056Y32657944D02*
X10660374Y32657944D01*
X22015450Y91744800D02*
X22015450Y89401650D01*
X106426000Y71424800D02*
X105294630Y71424800D01*
X39581019Y21353581D02*
X39090600Y21844000D01*
X68931877Y33609227D02*
X70950450Y35627800D01*
D25*
G04 #@! TO.N,Net-(R1-PadB)*
X3759200Y51744800D02*
X3810000Y51744800D01*
X10790000Y58724800D02*
X14224000Y58724800D01*
X3810000Y51744800D02*
X10790000Y58724800D01*
G04 #@! TO.N,Net-(R11-Pad2)*
X16935450Y52292250D02*
X23368000Y58724800D01*
X23368000Y58724800D02*
X27432000Y58724800D01*
X16935450Y51744800D02*
X16935450Y52292250D01*
G04 #@! TO.N,Net-(R12-Pad2)*
X31678800Y53319600D02*
X37084000Y58724800D01*
X37084000Y58724800D02*
X40386000Y58724800D01*
X30111700Y51744800D02*
X31678800Y53311900D01*
X31678800Y53311900D02*
X31678800Y53319600D01*
G04 #@! TO.N,Net-(R13-Pad2)*
X43338750Y51744800D02*
X43287950Y51744800D01*
X53848000Y58724800D02*
X50318750Y58724800D01*
X50318750Y58724800D02*
X43338750Y51744800D01*
G04 #@! TO.N,Net-(R14-Pad2)*
X62687200Y58724800D02*
X56464200Y52501800D01*
X56464200Y52501800D02*
X56464200Y51744800D01*
X67056000Y58724800D02*
X62687200Y58724800D01*
G04 #@! TO.N,Net-(R15-Pad2)*
X66802000Y70154800D02*
X66802000Y66852800D01*
X66802000Y66852800D02*
X69621400Y64033400D01*
X69621400Y64033400D02*
X69621400Y51763850D01*
X69621400Y51763850D02*
X69640450Y51744800D01*
G04 #@! TO.N,LED5*
X68643500Y57670700D02*
X68643500Y60693300D01*
X56549199Y38388199D02*
X56549199Y38787801D01*
X61569600Y55651400D02*
X66624200Y55651400D01*
X57013801Y38852801D02*
X59436000Y41275000D01*
X47523400Y18669000D02*
X49085500Y18669000D01*
X53403500Y35242500D02*
X56549199Y38388199D01*
X59436000Y53517800D02*
X61569600Y55651400D01*
X56614199Y38852801D02*
X57013801Y38852801D01*
X68643500Y60693300D02*
X66802000Y62534800D01*
X56549199Y38787801D02*
X56614199Y38852801D01*
X59436000Y53467000D02*
X59436000Y53517800D01*
X59436000Y41275000D02*
X59436000Y53467000D01*
X53403500Y22987000D02*
X53403500Y35242500D01*
X66624200Y55651400D02*
X68643500Y57670700D01*
X49085500Y18669000D02*
X53403500Y22987000D01*
G04 #@! TO.N,Net-(R16-Pad2)*
X82816700Y51795600D02*
X82816700Y51744800D01*
X80010000Y58724800D02*
X80010000Y54602300D01*
X80010000Y54602300D02*
X82816700Y51795600D01*
G04 #@! TO.N,Net-(R17-Pad2)*
X93218000Y56139675D02*
X95992950Y53364725D01*
X93218000Y58724800D02*
X93218000Y56139675D01*
X95992950Y53364725D02*
X95992950Y51744800D01*
G04 #@! TO.N,LED7*
X70637400Y77512800D02*
X70637400Y75971400D01*
X93218000Y53390800D02*
X93218000Y51104800D01*
X70637400Y75971400D02*
X93218000Y53390800D01*
G04 #@! TO.N,Net-(R18-Pad2)*
X106426000Y54538800D02*
X109169200Y51795600D01*
X109169200Y51795600D02*
X109169200Y51744800D01*
X106426000Y58724800D02*
X106426000Y54538800D01*
G04 #@! TO.N,MuxC*
X47427366Y42578014D02*
X51054000Y38951380D01*
X12192000Y71678800D02*
X13716000Y70154800D01*
X14478000Y86664800D02*
X12192000Y84378800D01*
X35052000Y86664800D02*
X35052000Y88188800D01*
X14478000Y86664800D02*
X16052800Y88239600D01*
X105156000Y77774800D02*
X107696000Y77774800D01*
X35179000Y88265000D02*
X35204400Y88239600D01*
X49243750Y51402750D02*
X49243750Y50953874D01*
X94691200Y88239600D02*
X105156000Y77774800D01*
X93218000Y88087200D02*
X93370400Y88239600D01*
X35204400Y88239600D02*
X93370400Y88239600D01*
X51054000Y28765500D02*
X48577500Y26289000D01*
X49243750Y50953874D02*
X47427366Y49137490D01*
X48577500Y26289000D02*
X47523400Y26289000D01*
X46990000Y70154800D02*
X55626000Y61518800D01*
X35001200Y88239600D02*
X35196999Y88239600D01*
X47427366Y49137490D02*
X47427366Y42578014D01*
X51054000Y38951380D02*
X51054000Y28765500D01*
X55626000Y61518800D02*
X55626000Y57785000D01*
X35052000Y88188800D02*
X35001200Y88239600D01*
X107696000Y77774800D02*
X114046000Y71424800D01*
X93218000Y86664800D02*
X93218000Y88087200D01*
X12192000Y84378800D02*
X12192000Y71678800D01*
X55626000Y57785000D02*
X49243750Y51402750D01*
X16052800Y88239600D02*
X35001200Y88239600D01*
X94665800Y88239600D02*
X94691200Y88239600D01*
X93370400Y88239600D02*
X94589600Y88239600D01*
X13716000Y70154800D02*
X46990000Y70154800D01*
G04 #@! TO.N,MuxB*
X110998000Y72948800D02*
X110998000Y71932800D01*
X105156000Y75234800D02*
X108712000Y75234800D01*
X93218000Y85394800D02*
X94996000Y85394800D01*
X13716000Y72694800D02*
X12954000Y73456800D01*
X12954000Y73456800D02*
X12954000Y82600800D01*
X93218000Y85394800D02*
X93218000Y84124800D01*
X15748000Y85394800D02*
X35052000Y85394800D01*
X110998000Y71932800D02*
X114046000Y68884800D01*
X108712000Y75234800D02*
X110998000Y72948800D01*
X14478000Y84124800D02*
X15748000Y85394800D01*
X56388000Y63169800D02*
X46863000Y72694800D01*
X12954000Y82600800D02*
X14478000Y84124800D01*
X51879500Y38972053D02*
X48065026Y42786527D01*
X46863000Y72694800D02*
X13716000Y72694800D01*
X56388000Y57302400D02*
X56388000Y63169800D01*
X35052000Y84124800D02*
X35052000Y85394800D01*
X48065026Y42786527D02*
X48065026Y48979426D01*
X51879500Y27051000D02*
X51879500Y38972053D01*
X48577500Y23749000D02*
X51879500Y27051000D01*
X35052000Y85394800D02*
X84328000Y85394800D01*
X84328000Y85394800D02*
X93218000Y85394800D01*
X94996000Y85394800D02*
X105156000Y75234800D01*
X48065026Y48979426D02*
X56388000Y57302400D01*
X47523400Y23749000D02*
X48577500Y23749000D01*
G04 #@! TO.N,MuxA*
X35104199Y82802601D02*
X56186199Y82802601D01*
X93218000Y82802601D02*
X93218000Y81584800D01*
X56186199Y82802601D02*
X57213500Y82802601D01*
X57202199Y82802601D02*
X84380199Y82802601D01*
X107950000Y69900800D02*
X106934000Y68884800D01*
X48616021Y42884919D02*
X52641500Y38859440D01*
X95302199Y82802601D02*
X105410000Y72694800D01*
X57226200Y56743600D02*
X48616021Y48133421D01*
X107950000Y72186800D02*
X107950000Y69900800D01*
X57213500Y82802601D02*
X57213500Y56756300D01*
X35052000Y82750402D02*
X35104199Y82802601D01*
X52641500Y38859440D02*
X52641500Y25019000D01*
X35052000Y81584800D02*
X35052000Y82750402D01*
X105410000Y72694800D02*
X107442000Y72694800D01*
X106934000Y68884800D02*
X106426000Y68884800D01*
X84380199Y82802601D02*
X93218000Y82802601D01*
X14478000Y81584800D02*
X15695801Y82802601D01*
X52641500Y25019000D02*
X48831500Y21209000D01*
X93218000Y82802601D02*
X95302199Y82802601D01*
X48831500Y21209000D02*
X47523400Y21209000D01*
X15695801Y82802601D02*
X35104199Y82802601D01*
X48616021Y48133421D02*
X48616021Y42884919D01*
X56186199Y82802601D02*
X57202199Y82802601D01*
X107442000Y72694800D02*
X107950000Y72186800D01*
G04 #@! TO.N,SWITCH2*
X75717400Y77512800D02*
X75692000Y77487400D01*
X75692000Y73736200D02*
X88290400Y61137800D01*
X75692000Y77487400D02*
X75692000Y73736200D01*
G04 #@! TD*
M02*
