M48
; DRILL file {KiCad 8.0.5} date 2025-04-20T22:27:01-0700
; FORMAT={-:-/ absolute / metric / decimal}
; #@! TF.CreationDate,2025-04-20T22:27:01-07:00
; #@! TF.GenerationSoftware,Kicad,Pcbnew,8.0.5
; #@! TF.FileFunction,Plated,1,2,PTH
FMAT,2
METRIC
; #@! TA.AperFunction,Plated,PTH,ViaDrill
T1C0.400
; #@! TA.AperFunction,Plated,PTH,ComponentDrill
T2C0.500
; #@! TA.AperFunction,Plated,PTH,ComponentDrill
T3C0.800
; #@! TA.AperFunction,Plated,PTH,ComponentDrill
T4C1.000
; #@! TA.AperFunction,Plated,PTH,ComponentDrill
T5C1.100
; #@! TA.AperFunction,Plated,PTH,ComponentDrill
T6C1.300
%
G90
G05
T1
X18.542Y79.045
X48.728Y65.035
X59.65Y65.035
X88.29Y61.138
X101.346Y84.633
X112.464Y21.929
X116.23Y32.08
X119.558Y32.055
T3
X3.759Y91.745
X3.759Y51.745
X6.299Y91.745
X6.858Y86.665
X6.858Y84.125
X6.858Y81.585
X6.858Y79.045
X6.858Y76.505
X6.858Y73.965
X6.858Y71.425
X6.858Y68.885
X8.839Y91.745
X8.839Y51.745
X11.379Y91.745
X14.224Y58.725
X14.224Y51.105
X14.478Y86.665
X14.478Y84.125
X14.478Y81.585
X14.478Y79.045
X14.478Y76.505
X14.478Y73.965
X14.478Y71.425
X14.478Y68.885
X14.478Y65.035
X14.478Y62.535
X16.935Y91.745
X16.935Y51.745
X19.475Y91.745
X22.015Y91.745
X22.015Y51.745
X24.555Y91.745
X27.432Y86.665
X27.432Y84.125
X27.432Y81.585
X27.432Y79.045
X27.432Y76.505
X27.432Y73.965
X27.432Y71.425
X27.432Y68.885
X27.432Y58.725
X27.432Y51.105
X30.112Y91.745
X30.112Y51.745
X32.652Y91.745
X35.052Y86.665
X35.052Y84.125
X35.052Y81.585
X35.052Y79.045
X35.052Y76.505
X35.052Y73.965
X35.052Y71.425
X35.052Y68.885
X35.052Y65.035
X35.052Y62.535
X35.192Y91.745
X35.192Y51.745
X37.732Y91.745
X40.386Y58.725
X40.386Y51.105
X43.288Y91.745
X43.288Y51.745
X45.828Y91.745
X48.368Y91.745
X48.368Y51.745
X50.908Y91.745
X53.848Y58.725
X53.848Y51.105
X56.464Y91.745
X56.464Y51.745
X59.004Y91.745
X61.544Y91.745
X61.544Y51.745
X64.084Y91.745
X66.802Y70.155
X66.802Y62.535
X67.056Y58.725
X67.056Y51.105
X69.64Y91.745
X69.64Y51.745
X72.18Y91.745
X74.72Y91.745
X74.72Y51.745
X77.26Y91.745
X80.01Y58.725
X80.01Y51.105
X82.817Y91.745
X82.817Y51.745
X85.357Y91.745
X85.598Y86.665
X85.598Y84.125
X85.598Y81.585
X85.598Y79.045
X85.598Y76.505
X85.598Y73.965
X85.598Y71.425
X85.598Y68.885
X87.897Y91.745
X87.897Y51.745
X90.437Y91.745
X93.218Y86.665
X93.218Y84.125
X93.218Y81.585
X93.218Y79.045
X93.218Y76.505
X93.218Y73.965
X93.218Y71.425
X93.218Y68.885
X93.218Y65.035
X93.218Y62.535
X93.218Y58.725
X93.218Y51.105
X95.993Y91.745
X95.993Y51.745
X98.533Y91.745
X101.073Y91.745
X101.073Y51.745
X103.613Y91.745
X106.426Y86.665
X106.426Y84.125
X106.426Y81.585
X106.426Y79.045
X106.426Y76.505
X106.426Y73.965
X106.426Y71.425
X106.426Y68.885
X106.426Y64.821
X106.426Y62.321
X106.426Y58.725
X106.426Y51.105
X109.169Y91.745
X109.169Y51.745
X111.709Y91.745
X114.046Y86.665
X114.046Y84.125
X114.046Y81.585
X114.046Y79.045
X114.046Y76.505
X114.046Y73.965
X114.046Y71.425
X114.046Y68.885
X114.046Y64.781
X114.046Y62.281
X114.249Y91.745
X114.249Y51.745
X116.789Y91.745
T4
X5.069Y35.628
X7.569Y35.628
X10.069Y35.628
X10.201Y19.754
X12.701Y19.754
X15.201Y19.754
X18.245Y35.628
X20.745Y35.628
X23.245Y35.628
X31.422Y35.628
X33.922Y35.628
X34.013Y19.754
X36.422Y35.628
X36.513Y19.754
X39.013Y19.754
X42.101Y80.05
X42.101Y77.51
X44.598Y35.628
X44.641Y80.05
X44.641Y77.51
X44.983Y28.829
X44.983Y26.289
X44.983Y23.749
X44.983Y21.209
X44.983Y18.669
X47.098Y35.628
X47.181Y80.05
X47.181Y77.51
X47.523Y28.829
X47.523Y26.289
X47.523Y23.749
X47.523Y21.209
X47.523Y18.669
X49.598Y35.628
X49.721Y80.05
X49.721Y77.51
X52.261Y80.05
X52.261Y77.51
X57.774Y35.628
X57.826Y19.754
X60.274Y35.628
X60.326Y19.754
X62.774Y35.628
X62.826Y19.754
X68.097Y80.053
X68.097Y77.513
X70.637Y80.053
X70.637Y77.513
X70.95Y35.628
X72.87Y28.755
X72.87Y26.215
X72.87Y23.675
X72.87Y21.135
X72.87Y18.595
X73.177Y80.053
X73.177Y77.513
X73.45Y35.628
X75.41Y28.755
X75.41Y26.215
X75.41Y23.675
X75.41Y21.135
X75.41Y18.595
X75.717Y80.053
X75.717Y77.513
X75.95Y35.628
X78.257Y80.053
X78.257Y77.513
X81.638Y19.754
X84.127Y35.628
X84.138Y19.754
X86.627Y35.628
X86.638Y19.754
X89.127Y35.628
X97.303Y35.628
X99.803Y35.628
X102.303Y35.628
X105.451Y19.754
X107.951Y19.754
X110.451Y19.754
X110.479Y35.628
X112.979Y35.628
X115.395Y26.012
X115.395Y23.472
X115.395Y20.932
X115.395Y18.392
X115.395Y15.852
X115.479Y35.628
X117.935Y26.012
X117.935Y23.472
X117.935Y20.932
X117.935Y18.392
X117.935Y15.852
T6
X24.486Y24.435
X24.486Y21.895
X24.486Y19.355
X96.019Y24.435
X96.019Y21.895
X96.019Y19.355
T2
G00X7.095Y106.012
M15
G01X8.095Y106.012
M16
G05
G00X7.095Y97.712
M15
G01X8.095Y97.712
M16
G05
G00X7.095Y94.612
M15
G01X8.095Y94.612
M16
G05
G00X7.12Y12.921
M15
G01X8.12Y12.921
M16
G05
G00X7.12Y4.621
M15
G01X8.12Y4.621
M16
G05
G00X7.12Y1.521
M15
G01X8.12Y1.521
M16
G05
G00X18.832Y12.921
M15
G01X19.832Y12.921
M16
G05
G00X18.832Y4.621
M15
G01X19.832Y4.621
M16
G05
G00X18.832Y1.521
M15
G01X19.832Y1.521
M16
G05
G00X20.271Y106.012
M15
G01X21.271Y106.012
M16
G05
G00X20.271Y97.712
M15
G01X21.271Y97.712
M16
G05
G00X20.271Y94.612
M15
G01X21.271Y94.612
M16
G05
G00X30.544Y12.921
M15
G01X31.544Y12.921
M16
G05
G00X30.544Y4.621
M15
G01X31.544Y4.621
M16
G05
G00X30.544Y1.521
M15
G01X31.544Y1.521
M16
G05
G00X33.447Y106.012
M15
G01X34.447Y106.012
M16
G05
G00X33.447Y97.712
M15
G01X34.447Y97.712
M16
G05
G00X33.447Y94.612
M15
G01X34.447Y94.612
M16
G05
G00X42.257Y12.921
M15
G01X43.257Y12.921
M16
G05
G00X42.257Y4.621
M15
G01X43.257Y4.621
M16
G05
G00X42.257Y1.521
M15
G01X43.257Y1.521
M16
G05
G00X46.623Y106.012
M15
G01X47.623Y106.012
M16
G05
G00X46.623Y97.712
M15
G01X47.623Y97.712
M16
G05
G00X46.623Y94.612
M15
G01X47.623Y94.612
M16
G05
G00X53.969Y12.921
M15
G01X54.969Y12.921
M16
G05
G00X53.969Y4.621
M15
G01X54.969Y4.621
M16
G05
G00X53.969Y1.521
M15
G01X54.969Y1.521
M16
G05
G00X59.8Y106.012
M15
G01X60.8Y106.012
M16
G05
G00X59.8Y97.712
M15
G01X60.8Y97.712
M16
G05
G00X59.8Y94.612
M15
G01X60.8Y94.612
M16
G05
G00X65.681Y12.921
M15
G01X66.681Y12.921
M16
G05
G00X65.681Y4.621
M15
G01X66.681Y4.621
M16
G05
G00X65.681Y1.521
M15
G01X66.681Y1.521
M16
G05
G00X72.976Y106.012
M15
G01X73.976Y106.012
M16
G05
G00X72.976Y97.712
M15
G01X73.976Y97.712
M16
G05
G00X72.976Y94.612
M15
G01X73.976Y94.612
M16
G05
G00X77.393Y12.921
M15
G01X78.393Y12.921
M16
G05
G00X77.393Y4.621
M15
G01X78.393Y4.621
M16
G05
G00X77.393Y1.521
M15
G01X78.393Y1.521
M16
G05
G00X86.152Y106.012
M15
G01X87.152Y106.012
M16
G05
G00X86.152Y97.712
M15
G01X87.152Y97.712
M16
G05
G00X86.152Y94.612
M15
G01X87.152Y94.612
M16
G05
G00X89.106Y12.921
M15
G01X90.106Y12.921
M16
G05
G00X89.106Y4.621
M15
G01X90.106Y4.621
M16
G05
G00X89.106Y1.521
M15
G01X90.106Y1.521
M16
G05
G00X99.328Y106.012
M15
G01X100.328Y106.012
M16
G05
G00X99.328Y97.712
M15
G01X100.328Y97.712
M16
G05
G00X99.328Y94.612
M15
G01X100.328Y94.612
M16
G05
G00X100.818Y12.921
M15
G01X101.818Y12.921
M16
G05
G00X100.818Y4.621
M15
G01X101.818Y4.621
M16
G05
G00X100.818Y1.521
M15
G01X101.818Y1.521
M16
G05
G00X112.505Y106.012
M15
G01X113.505Y106.012
M16
G05
G00X112.505Y97.712
M15
G01X113.505Y97.712
M16
G05
G00X112.505Y94.612
M15
G01X113.505Y94.612
M16
G05
G00X112.53Y12.921
M15
G01X113.53Y12.921
M16
G05
G00X112.53Y4.621
M15
G01X113.53Y4.621
M16
G05
G00X112.53Y1.521
M15
G01X113.53Y1.521
M16
G05
T5
G00X2.77Y41.777
M15
G01X2.77Y43.477
M16
G05
G00X7.901Y26.904
M15
G01X7.901Y27.604
M16
G05
G00X12.37Y41.777
M15
G01X12.37Y43.477
M16
G05
G00X15.946Y41.777
M15
G01X15.946Y43.477
M16
G05
G00X17.501Y26.904
M15
G01X17.501Y27.604
M16
G05
G00X25.546Y41.777
M15
G01X25.546Y43.477
M16
G05
G00X29.122Y41.777
M15
G01X29.122Y43.477
M16
G05
G00X31.713Y26.904
M15
G01X31.713Y27.604
M16
G05
G00X38.722Y41.777
M15
G01X38.722Y43.477
M16
G05
G00X41.313Y26.904
M15
G01X41.313Y27.604
M16
G05
G00X42.299Y41.777
M15
G01X42.299Y43.477
M16
G05
G00X51.899Y41.777
M15
G01X51.899Y43.477
M16
G05
G00X55.475Y41.777
M15
G01X55.475Y43.477
M16
G05
G00X55.526Y26.904
M15
G01X55.526Y27.604
M16
G05
G00X65.075Y41.777
M15
G01X65.075Y43.477
M16
G05
G00X65.126Y26.904
M15
G01X65.126Y27.604
M16
G05
G00X68.651Y41.777
M15
G01X68.651Y43.477
M16
G05
G00X78.251Y41.777
M15
G01X78.251Y43.477
M16
G05
G00X79.338Y26.904
M15
G01X79.338Y27.604
M16
G05
G00X81.827Y41.777
M15
G01X81.827Y43.477
M16
G05
G00X88.938Y26.904
M15
G01X88.938Y27.604
M16
G05
G00X91.427Y41.777
M15
G01X91.427Y43.477
M16
G05
G00X95.004Y41.777
M15
G01X95.004Y43.477
M16
G05
G00X103.151Y26.904
M15
G01X103.151Y27.604
M16
G05
G00X104.604Y41.777
M15
G01X104.604Y43.477
M16
G05
G00X108.18Y41.777
M15
G01X108.18Y43.477
M16
G05
G00X112.751Y26.904
M15
G01X112.751Y27.604
M16
G05
G00X117.78Y41.777
M15
G01X117.78Y43.477
M16
G05
M30
