G04 #@! TF.GenerationSoftware,KiCad,Pcbnew,8.0.5*
G04 #@! TF.CreationDate,2025-04-20T22:26:55-07:00*
G04 #@! TF.ProjectId,Tap-O-Matic,5461702d-4f2d-44d6-9174-69632e6b6963,rev?*
G04 #@! TF.SameCoordinates,Original*
G04 #@! TF.FileFunction,Legend,Bot*
G04 #@! TF.FilePolarity,Positive*
%FSLAX46Y46*%
G04 Gerber Fmt 4.6, Leading zero omitted, Abs format (unit mm)*
G04 Created by KiCad (PCBNEW 8.0.5) date 2025-04-20 22:26:55*
%MOMM*%
%LPD*%
G01*
G04 APERTURE LIST*
%ADD10C,1.000000*%
%ADD11C,0.150000*%
%ADD12C,0.120000*%
G04 APERTURE END LIST*
D10*
X113722153Y11372188D02*
X118929153Y11372188D01*
D11*
X118323777Y12786761D02*
X117561873Y12786761D01*
X116561873Y12405808D02*
X117133301Y12405808D01*
X116847587Y12405808D02*
X116847587Y13405808D01*
X116847587Y13405808D02*
X116942825Y13262951D01*
X116942825Y13262951D02*
X117038063Y13167713D01*
X117038063Y13167713D02*
X117133301Y13120094D01*
X116180920Y13310570D02*
X116133301Y13358189D01*
X116133301Y13358189D02*
X116038063Y13405808D01*
X116038063Y13405808D02*
X115799968Y13405808D01*
X115799968Y13405808D02*
X115704730Y13358189D01*
X115704730Y13358189D02*
X115657111Y13310570D01*
X115657111Y13310570D02*
X115609492Y13215332D01*
X115609492Y13215332D02*
X115609492Y13120094D01*
X115609492Y13120094D02*
X115657111Y12977237D01*
X115657111Y12977237D02*
X116228539Y12405808D01*
X116228539Y12405808D02*
X115609492Y12405808D01*
X115323777Y13405808D02*
X114990444Y12405808D01*
X114990444Y12405808D02*
X114657111Y13405808D01*
X70944047Y10652962D02*
X70610714Y10652962D01*
X70467857Y10129152D02*
X70944047Y10129152D01*
X70944047Y10129152D02*
X70944047Y11129152D01*
X70944047Y11129152D02*
X70467857Y11129152D01*
X70134523Y10129152D02*
X69610714Y10795819D01*
X70134523Y10795819D02*
X69610714Y10129152D01*
X69372618Y10795819D02*
X68991666Y10795819D01*
X69229761Y11129152D02*
X69229761Y10272010D01*
X69229761Y10272010D02*
X69182142Y10176772D01*
X69182142Y10176772D02*
X69086904Y10129152D01*
X69086904Y10129152D02*
X68991666Y10129152D01*
X68277380Y10176772D02*
X68372618Y10129152D01*
X68372618Y10129152D02*
X68563094Y10129152D01*
X68563094Y10129152D02*
X68658332Y10176772D01*
X68658332Y10176772D02*
X68705951Y10272010D01*
X68705951Y10272010D02*
X68705951Y10652962D01*
X68705951Y10652962D02*
X68658332Y10748200D01*
X68658332Y10748200D02*
X68563094Y10795819D01*
X68563094Y10795819D02*
X68372618Y10795819D01*
X68372618Y10795819D02*
X68277380Y10748200D01*
X68277380Y10748200D02*
X68229761Y10652962D01*
X68229761Y10652962D02*
X68229761Y10557724D01*
X68229761Y10557724D02*
X68705951Y10462486D01*
X67801189Y10795819D02*
X67801189Y10129152D01*
X67801189Y10700581D02*
X67753570Y10748200D01*
X67753570Y10748200D02*
X67658332Y10795819D01*
X67658332Y10795819D02*
X67515475Y10795819D01*
X67515475Y10795819D02*
X67420237Y10748200D01*
X67420237Y10748200D02*
X67372618Y10652962D01*
X67372618Y10652962D02*
X67372618Y10129152D01*
X66467856Y10129152D02*
X66467856Y11129152D01*
X66467856Y10176772D02*
X66563094Y10129152D01*
X66563094Y10129152D02*
X66753570Y10129152D01*
X66753570Y10129152D02*
X66848808Y10176772D01*
X66848808Y10176772D02*
X66896427Y10224391D01*
X66896427Y10224391D02*
X66944046Y10319629D01*
X66944046Y10319629D02*
X66944046Y10605343D01*
X66944046Y10605343D02*
X66896427Y10700581D01*
X66896427Y10700581D02*
X66848808Y10748200D01*
X66848808Y10748200D02*
X66753570Y10795819D01*
X66753570Y10795819D02*
X66563094Y10795819D01*
X66563094Y10795819D02*
X66467856Y10748200D01*
X65610713Y10176772D02*
X65705951Y10129152D01*
X65705951Y10129152D02*
X65896427Y10129152D01*
X65896427Y10129152D02*
X65991665Y10176772D01*
X65991665Y10176772D02*
X66039284Y10272010D01*
X66039284Y10272010D02*
X66039284Y10652962D01*
X66039284Y10652962D02*
X65991665Y10748200D01*
X65991665Y10748200D02*
X65896427Y10795819D01*
X65896427Y10795819D02*
X65705951Y10795819D01*
X65705951Y10795819D02*
X65610713Y10748200D01*
X65610713Y10748200D02*
X65563094Y10652962D01*
X65563094Y10652962D02*
X65563094Y10557724D01*
X65563094Y10557724D02*
X66039284Y10462486D01*
X64705951Y10129152D02*
X64705951Y11129152D01*
X64705951Y10176772D02*
X64801189Y10129152D01*
X64801189Y10129152D02*
X64991665Y10129152D01*
X64991665Y10129152D02*
X65086903Y10176772D01*
X65086903Y10176772D02*
X65134522Y10224391D01*
X65134522Y10224391D02*
X65182141Y10319629D01*
X65182141Y10319629D02*
X65182141Y10605343D01*
X65182141Y10605343D02*
X65134522Y10700581D01*
X65134522Y10700581D02*
X65086903Y10748200D01*
X65086903Y10748200D02*
X64991665Y10795819D01*
X64991665Y10795819D02*
X64801189Y10795819D01*
X64801189Y10795819D02*
X64705951Y10748200D01*
X63610712Y11129152D02*
X63039284Y11129152D01*
X63324998Y10129152D02*
X63324998Y11129152D01*
X62705950Y10129152D02*
X62705950Y10795819D01*
X62705950Y11129152D02*
X62753569Y11081533D01*
X62753569Y11081533D02*
X62705950Y11033914D01*
X62705950Y11033914D02*
X62658331Y11081533D01*
X62658331Y11081533D02*
X62705950Y11129152D01*
X62705950Y11129152D02*
X62705950Y11033914D01*
X62229760Y10129152D02*
X62229760Y10795819D01*
X62229760Y10700581D02*
X62182141Y10748200D01*
X62182141Y10748200D02*
X62086903Y10795819D01*
X62086903Y10795819D02*
X61944046Y10795819D01*
X61944046Y10795819D02*
X61848808Y10748200D01*
X61848808Y10748200D02*
X61801189Y10652962D01*
X61801189Y10652962D02*
X61801189Y10129152D01*
X61801189Y10652962D02*
X61753570Y10748200D01*
X61753570Y10748200D02*
X61658332Y10795819D01*
X61658332Y10795819D02*
X61515475Y10795819D01*
X61515475Y10795819D02*
X61420236Y10748200D01*
X61420236Y10748200D02*
X61372617Y10652962D01*
X61372617Y10652962D02*
X61372617Y10129152D01*
X60515475Y10176772D02*
X60610713Y10129152D01*
X60610713Y10129152D02*
X60801189Y10129152D01*
X60801189Y10129152D02*
X60896427Y10176772D01*
X60896427Y10176772D02*
X60944046Y10272010D01*
X60944046Y10272010D02*
X60944046Y10652962D01*
X60944046Y10652962D02*
X60896427Y10748200D01*
X60896427Y10748200D02*
X60801189Y10795819D01*
X60801189Y10795819D02*
X60610713Y10795819D01*
X60610713Y10795819D02*
X60515475Y10748200D01*
X60515475Y10748200D02*
X60467856Y10652962D01*
X60467856Y10652962D02*
X60467856Y10557724D01*
X60467856Y10557724D02*
X60944046Y10462486D01*
X59277379Y10129152D02*
X59277379Y11129152D01*
X59277379Y11129152D02*
X58944046Y10414867D01*
X58944046Y10414867D02*
X58610713Y11129152D01*
X58610713Y11129152D02*
X58610713Y10129152D01*
X57705951Y10129152D02*
X57705951Y10652962D01*
X57705951Y10652962D02*
X57753570Y10748200D01*
X57753570Y10748200D02*
X57848808Y10795819D01*
X57848808Y10795819D02*
X58039284Y10795819D01*
X58039284Y10795819D02*
X58134522Y10748200D01*
X57705951Y10176772D02*
X57801189Y10129152D01*
X57801189Y10129152D02*
X58039284Y10129152D01*
X58039284Y10129152D02*
X58134522Y10176772D01*
X58134522Y10176772D02*
X58182141Y10272010D01*
X58182141Y10272010D02*
X58182141Y10367248D01*
X58182141Y10367248D02*
X58134522Y10462486D01*
X58134522Y10462486D02*
X58039284Y10510105D01*
X58039284Y10510105D02*
X57801189Y10510105D01*
X57801189Y10510105D02*
X57705951Y10557724D01*
X56801189Y10176772D02*
X56896427Y10129152D01*
X56896427Y10129152D02*
X57086903Y10129152D01*
X57086903Y10129152D02*
X57182141Y10176772D01*
X57182141Y10176772D02*
X57229760Y10224391D01*
X57229760Y10224391D02*
X57277379Y10319629D01*
X57277379Y10319629D02*
X57277379Y10605343D01*
X57277379Y10605343D02*
X57229760Y10700581D01*
X57229760Y10700581D02*
X57182141Y10748200D01*
X57182141Y10748200D02*
X57086903Y10795819D01*
X57086903Y10795819D02*
X56896427Y10795819D01*
X56896427Y10795819D02*
X56801189Y10748200D01*
X56372617Y10129152D02*
X56372617Y11129152D01*
X55944046Y10129152D02*
X55944046Y10652962D01*
X55944046Y10652962D02*
X55991665Y10748200D01*
X55991665Y10748200D02*
X56086903Y10795819D01*
X56086903Y10795819D02*
X56229760Y10795819D01*
X56229760Y10795819D02*
X56324998Y10748200D01*
X56324998Y10748200D02*
X56372617Y10700581D01*
X55467855Y10129152D02*
X55467855Y10795819D01*
X55467855Y11129152D02*
X55515474Y11081533D01*
X55515474Y11081533D02*
X55467855Y11033914D01*
X55467855Y11033914D02*
X55420236Y11081533D01*
X55420236Y11081533D02*
X55467855Y11129152D01*
X55467855Y11129152D02*
X55467855Y11033914D01*
X54991665Y10795819D02*
X54991665Y10129152D01*
X54991665Y10700581D02*
X54944046Y10748200D01*
X54944046Y10748200D02*
X54848808Y10795819D01*
X54848808Y10795819D02*
X54705951Y10795819D01*
X54705951Y10795819D02*
X54610713Y10748200D01*
X54610713Y10748200D02*
X54563094Y10652962D01*
X54563094Y10652962D02*
X54563094Y10129152D01*
X53705951Y10176772D02*
X53801189Y10129152D01*
X53801189Y10129152D02*
X53991665Y10129152D01*
X53991665Y10129152D02*
X54086903Y10176772D01*
X54086903Y10176772D02*
X54134522Y10272010D01*
X54134522Y10272010D02*
X54134522Y10652962D01*
X54134522Y10652962D02*
X54086903Y10748200D01*
X54086903Y10748200D02*
X53991665Y10795819D01*
X53991665Y10795819D02*
X53801189Y10795819D01*
X53801189Y10795819D02*
X53705951Y10748200D01*
X53705951Y10748200D02*
X53658332Y10652962D01*
X53658332Y10652962D02*
X53658332Y10557724D01*
X53658332Y10557724D02*
X54134522Y10462486D01*
X52610712Y11129152D02*
X52277379Y10129152D01*
X52277379Y10129152D02*
X51944046Y11129152D01*
X51086903Y10129152D02*
X51658331Y10129152D01*
X51372617Y10129152D02*
X51372617Y11129152D01*
X51372617Y11129152D02*
X51467855Y10986295D01*
X51467855Y10986295D02*
X51563093Y10891057D01*
X51563093Y10891057D02*
X51658331Y10843438D01*
X50658331Y10224391D02*
X50610712Y10176772D01*
X50610712Y10176772D02*
X50658331Y10129152D01*
X50658331Y10129152D02*
X50705950Y10176772D01*
X50705950Y10176772D02*
X50658331Y10224391D01*
X50658331Y10224391D02*
X50658331Y10129152D01*
X49991665Y11129152D02*
X49896427Y11129152D01*
X49896427Y11129152D02*
X49801189Y11081533D01*
X49801189Y11081533D02*
X49753570Y11033914D01*
X49753570Y11033914D02*
X49705951Y10938676D01*
X49705951Y10938676D02*
X49658332Y10748200D01*
X49658332Y10748200D02*
X49658332Y10510105D01*
X49658332Y10510105D02*
X49705951Y10319629D01*
X49705951Y10319629D02*
X49753570Y10224391D01*
X49753570Y10224391D02*
X49801189Y10176772D01*
X49801189Y10176772D02*
X49896427Y10129152D01*
X49896427Y10129152D02*
X49991665Y10129152D01*
X49991665Y10129152D02*
X50086903Y10176772D01*
X50086903Y10176772D02*
X50134522Y10224391D01*
X50134522Y10224391D02*
X50182141Y10319629D01*
X50182141Y10319629D02*
X50229760Y10510105D01*
X50229760Y10510105D02*
X50229760Y10748200D01*
X50229760Y10748200D02*
X50182141Y10938676D01*
X50182141Y10938676D02*
X50134522Y11033914D01*
X50134522Y11033914D02*
X50086903Y11081533D01*
X50086903Y11081533D02*
X49991665Y11129152D01*
X66586905Y8519208D02*
X66586905Y9519208D01*
X66586905Y9043018D02*
X66015477Y9043018D01*
X66015477Y8519208D02*
X66015477Y9519208D01*
X65110715Y8519208D02*
X65110715Y9043018D01*
X65110715Y9043018D02*
X65158334Y9138256D01*
X65158334Y9138256D02*
X65253572Y9185875D01*
X65253572Y9185875D02*
X65444048Y9185875D01*
X65444048Y9185875D02*
X65539286Y9138256D01*
X65110715Y8566828D02*
X65205953Y8519208D01*
X65205953Y8519208D02*
X65444048Y8519208D01*
X65444048Y8519208D02*
X65539286Y8566828D01*
X65539286Y8566828D02*
X65586905Y8662066D01*
X65586905Y8662066D02*
X65586905Y8757304D01*
X65586905Y8757304D02*
X65539286Y8852542D01*
X65539286Y8852542D02*
X65444048Y8900161D01*
X65444048Y8900161D02*
X65205953Y8900161D01*
X65205953Y8900161D02*
X65110715Y8947780D01*
X64634524Y8519208D02*
X64634524Y9185875D01*
X64634524Y8995399D02*
X64586905Y9090637D01*
X64586905Y9090637D02*
X64539286Y9138256D01*
X64539286Y9138256D02*
X64444048Y9185875D01*
X64444048Y9185875D02*
X64348810Y9185875D01*
X64015476Y8519208D02*
X64015476Y9185875D01*
X64015476Y8995399D02*
X63967857Y9090637D01*
X63967857Y9090637D02*
X63920238Y9138256D01*
X63920238Y9138256D02*
X63825000Y9185875D01*
X63825000Y9185875D02*
X63729762Y9185875D01*
X63491666Y9185875D02*
X63253571Y8519208D01*
X63015476Y9185875D02*
X63253571Y8519208D01*
X63253571Y8519208D02*
X63348809Y8281113D01*
X63348809Y8281113D02*
X63396428Y8233494D01*
X63396428Y8233494D02*
X63491666Y8185875D01*
X61301190Y8519208D02*
X61634523Y8995399D01*
X61872618Y8519208D02*
X61872618Y9519208D01*
X61872618Y9519208D02*
X61491666Y9519208D01*
X61491666Y9519208D02*
X61396428Y9471589D01*
X61396428Y9471589D02*
X61348809Y9423970D01*
X61348809Y9423970D02*
X61301190Y9328732D01*
X61301190Y9328732D02*
X61301190Y9185875D01*
X61301190Y9185875D02*
X61348809Y9090637D01*
X61348809Y9090637D02*
X61396428Y9043018D01*
X61396428Y9043018D02*
X61491666Y8995399D01*
X61491666Y8995399D02*
X61872618Y8995399D01*
X60872618Y8519208D02*
X60872618Y9185875D01*
X60872618Y9519208D02*
X60920237Y9471589D01*
X60920237Y9471589D02*
X60872618Y9423970D01*
X60872618Y9423970D02*
X60824999Y9471589D01*
X60824999Y9471589D02*
X60872618Y9519208D01*
X60872618Y9519208D02*
X60872618Y9423970D01*
X59967857Y8566828D02*
X60063095Y8519208D01*
X60063095Y8519208D02*
X60253571Y8519208D01*
X60253571Y8519208D02*
X60348809Y8566828D01*
X60348809Y8566828D02*
X60396428Y8614447D01*
X60396428Y8614447D02*
X60444047Y8709685D01*
X60444047Y8709685D02*
X60444047Y8995399D01*
X60444047Y8995399D02*
X60396428Y9090637D01*
X60396428Y9090637D02*
X60348809Y9138256D01*
X60348809Y9138256D02*
X60253571Y9185875D01*
X60253571Y9185875D02*
X60063095Y9185875D01*
X60063095Y9185875D02*
X59967857Y9138256D01*
X59539285Y8519208D02*
X59539285Y9519208D01*
X59110714Y8519208D02*
X59110714Y9043018D01*
X59110714Y9043018D02*
X59158333Y9138256D01*
X59158333Y9138256D02*
X59253571Y9185875D01*
X59253571Y9185875D02*
X59396428Y9185875D01*
X59396428Y9185875D02*
X59491666Y9138256D01*
X59491666Y9138256D02*
X59539285Y9090637D01*
X58205952Y8519208D02*
X58205952Y9043018D01*
X58205952Y9043018D02*
X58253571Y9138256D01*
X58253571Y9138256D02*
X58348809Y9185875D01*
X58348809Y9185875D02*
X58539285Y9185875D01*
X58539285Y9185875D02*
X58634523Y9138256D01*
X58205952Y8566828D02*
X58301190Y8519208D01*
X58301190Y8519208D02*
X58539285Y8519208D01*
X58539285Y8519208D02*
X58634523Y8566828D01*
X58634523Y8566828D02*
X58682142Y8662066D01*
X58682142Y8662066D02*
X58682142Y8757304D01*
X58682142Y8757304D02*
X58634523Y8852542D01*
X58634523Y8852542D02*
X58539285Y8900161D01*
X58539285Y8900161D02*
X58301190Y8900161D01*
X58301190Y8900161D02*
X58205952Y8947780D01*
X57729761Y8519208D02*
X57729761Y9185875D01*
X57729761Y8995399D02*
X57682142Y9090637D01*
X57682142Y9090637D02*
X57634523Y9138256D01*
X57634523Y9138256D02*
X57539285Y9185875D01*
X57539285Y9185875D02*
X57444047Y9185875D01*
X56682142Y8519208D02*
X56682142Y9519208D01*
X56682142Y8566828D02*
X56777380Y8519208D01*
X56777380Y8519208D02*
X56967856Y8519208D01*
X56967856Y8519208D02*
X57063094Y8566828D01*
X57063094Y8566828D02*
X57110713Y8614447D01*
X57110713Y8614447D02*
X57158332Y8709685D01*
X57158332Y8709685D02*
X57158332Y8995399D01*
X57158332Y8995399D02*
X57110713Y9090637D01*
X57110713Y9090637D02*
X57063094Y9138256D01*
X57063094Y9138256D02*
X56967856Y9185875D01*
X56967856Y9185875D02*
X56777380Y9185875D01*
X56777380Y9185875D02*
X56682142Y9138256D01*
X56253570Y8566828D02*
X56158332Y8519208D01*
X56158332Y8519208D02*
X55967856Y8519208D01*
X55967856Y8519208D02*
X55872618Y8566828D01*
X55872618Y8566828D02*
X55824999Y8662066D01*
X55824999Y8662066D02*
X55824999Y8709685D01*
X55824999Y8709685D02*
X55872618Y8804923D01*
X55872618Y8804923D02*
X55967856Y8852542D01*
X55967856Y8852542D02*
X56110713Y8852542D01*
X56110713Y8852542D02*
X56205951Y8900161D01*
X56205951Y8900161D02*
X56253570Y8995399D01*
X56253570Y8995399D02*
X56253570Y9043018D01*
X56253570Y9043018D02*
X56205951Y9138256D01*
X56205951Y9138256D02*
X56110713Y9185875D01*
X56110713Y9185875D02*
X55967856Y9185875D01*
X55967856Y9185875D02*
X55872618Y9138256D01*
X55253570Y8519208D02*
X55348808Y8566828D01*
X55348808Y8566828D02*
X55396427Y8614447D01*
X55396427Y8614447D02*
X55444046Y8709685D01*
X55444046Y8709685D02*
X55444046Y8995399D01*
X55444046Y8995399D02*
X55396427Y9090637D01*
X55396427Y9090637D02*
X55348808Y9138256D01*
X55348808Y9138256D02*
X55253570Y9185875D01*
X55253570Y9185875D02*
X55110713Y9185875D01*
X55110713Y9185875D02*
X55015475Y9138256D01*
X55015475Y9138256D02*
X54967856Y9090637D01*
X54967856Y9090637D02*
X54920237Y8995399D01*
X54920237Y8995399D02*
X54920237Y8709685D01*
X54920237Y8709685D02*
X54967856Y8614447D01*
X54967856Y8614447D02*
X55015475Y8566828D01*
X55015475Y8566828D02*
X55110713Y8519208D01*
X55110713Y8519208D02*
X55253570Y8519208D01*
X54491665Y9185875D02*
X54491665Y8519208D01*
X54491665Y9090637D02*
X54444046Y9138256D01*
X54444046Y9138256D02*
X54348808Y9185875D01*
X54348808Y9185875D02*
X54205951Y9185875D01*
X54205951Y9185875D02*
X54110713Y9138256D01*
X54110713Y9138256D02*
X54063094Y9043018D01*
X54063094Y9043018D02*
X54063094Y8519208D01*
X96127580Y63951466D02*
X96175200Y63999085D01*
X96175200Y63999085D02*
X96222819Y64141942D01*
X96222819Y64141942D02*
X96222819Y64237180D01*
X96222819Y64237180D02*
X96175200Y64380037D01*
X96175200Y64380037D02*
X96079961Y64475275D01*
X96079961Y64475275D02*
X95984723Y64522894D01*
X95984723Y64522894D02*
X95794247Y64570513D01*
X95794247Y64570513D02*
X95651390Y64570513D01*
X95651390Y64570513D02*
X95460914Y64522894D01*
X95460914Y64522894D02*
X95365676Y64475275D01*
X95365676Y64475275D02*
X95270438Y64380037D01*
X95270438Y64380037D02*
X95222819Y64237180D01*
X95222819Y64237180D02*
X95222819Y64141942D01*
X95222819Y64141942D02*
X95270438Y63999085D01*
X95270438Y63999085D02*
X95318057Y63951466D01*
X96222819Y62999085D02*
X96222819Y63570513D01*
X96222819Y63284799D02*
X95222819Y63284799D01*
X95222819Y63284799D02*
X95365676Y63380037D01*
X95365676Y63380037D02*
X95460914Y63475275D01*
X95460914Y63475275D02*
X95508533Y63570513D01*
X37961580Y63951466D02*
X38009200Y63999085D01*
X38009200Y63999085D02*
X38056819Y64141942D01*
X38056819Y64141942D02*
X38056819Y64237180D01*
X38056819Y64237180D02*
X38009200Y64380037D01*
X38009200Y64380037D02*
X37913961Y64475275D01*
X37913961Y64475275D02*
X37818723Y64522894D01*
X37818723Y64522894D02*
X37628247Y64570513D01*
X37628247Y64570513D02*
X37485390Y64570513D01*
X37485390Y64570513D02*
X37294914Y64522894D01*
X37294914Y64522894D02*
X37199676Y64475275D01*
X37199676Y64475275D02*
X37104438Y64380037D01*
X37104438Y64380037D02*
X37056819Y64237180D01*
X37056819Y64237180D02*
X37056819Y64141942D01*
X37056819Y64141942D02*
X37104438Y63999085D01*
X37104438Y63999085D02*
X37152057Y63951466D01*
X37152057Y63570513D02*
X37104438Y63522894D01*
X37104438Y63522894D02*
X37056819Y63427656D01*
X37056819Y63427656D02*
X37056819Y63189561D01*
X37056819Y63189561D02*
X37104438Y63094323D01*
X37104438Y63094323D02*
X37152057Y63046704D01*
X37152057Y63046704D02*
X37247295Y62999085D01*
X37247295Y62999085D02*
X37342533Y62999085D01*
X37342533Y62999085D02*
X37485390Y63046704D01*
X37485390Y63046704D02*
X38056819Y63618132D01*
X38056819Y63618132D02*
X38056819Y62999085D01*
X17387580Y63951466D02*
X17435200Y63999085D01*
X17435200Y63999085D02*
X17482819Y64141942D01*
X17482819Y64141942D02*
X17482819Y64237180D01*
X17482819Y64237180D02*
X17435200Y64380037D01*
X17435200Y64380037D02*
X17339961Y64475275D01*
X17339961Y64475275D02*
X17244723Y64522894D01*
X17244723Y64522894D02*
X17054247Y64570513D01*
X17054247Y64570513D02*
X16911390Y64570513D01*
X16911390Y64570513D02*
X16720914Y64522894D01*
X16720914Y64522894D02*
X16625676Y64475275D01*
X16625676Y64475275D02*
X16530438Y64380037D01*
X16530438Y64380037D02*
X16482819Y64237180D01*
X16482819Y64237180D02*
X16482819Y64141942D01*
X16482819Y64141942D02*
X16530438Y63999085D01*
X16530438Y63999085D02*
X16578057Y63951466D01*
X16482819Y63618132D02*
X16482819Y62999085D01*
X16482819Y62999085D02*
X16863771Y63332418D01*
X16863771Y63332418D02*
X16863771Y63189561D01*
X16863771Y63189561D02*
X16911390Y63094323D01*
X16911390Y63094323D02*
X16959009Y63046704D01*
X16959009Y63046704D02*
X17054247Y62999085D01*
X17054247Y62999085D02*
X17292342Y62999085D01*
X17292342Y62999085D02*
X17387580Y63046704D01*
X17387580Y63046704D02*
X17435200Y63094323D01*
X17435200Y63094323D02*
X17482819Y63189561D01*
X17482819Y63189561D02*
X17482819Y63475275D01*
X17482819Y63475275D02*
X17435200Y63570513D01*
X17435200Y63570513D02*
X17387580Y63618132D01*
X90169904Y67099980D02*
X90169904Y66290457D01*
X90169904Y66290457D02*
X90122285Y66195219D01*
X90122285Y66195219D02*
X90074666Y66147600D01*
X90074666Y66147600D02*
X89979428Y66099980D01*
X89979428Y66099980D02*
X89788952Y66099980D01*
X89788952Y66099980D02*
X89693714Y66147600D01*
X89693714Y66147600D02*
X89646095Y66195219D01*
X89646095Y66195219D02*
X89598476Y66290457D01*
X89598476Y66290457D02*
X89598476Y67099980D01*
X89217523Y67099980D02*
X88598476Y67099980D01*
X88598476Y67099980D02*
X88931809Y66719028D01*
X88931809Y66719028D02*
X88788952Y66719028D01*
X88788952Y66719028D02*
X88693714Y66671409D01*
X88693714Y66671409D02*
X88646095Y66623790D01*
X88646095Y66623790D02*
X88598476Y66528552D01*
X88598476Y66528552D02*
X88598476Y66290457D01*
X88598476Y66290457D02*
X88646095Y66195219D01*
X88646095Y66195219D02*
X88693714Y66147600D01*
X88693714Y66147600D02*
X88788952Y66099980D01*
X88788952Y66099980D02*
X89074666Y66099980D01*
X89074666Y66099980D02*
X89169904Y66147600D01*
X89169904Y66147600D02*
X89217523Y66195219D01*
X11429904Y67099980D02*
X11429904Y66290457D01*
X11429904Y66290457D02*
X11382285Y66195219D01*
X11382285Y66195219D02*
X11334666Y66147600D01*
X11334666Y66147600D02*
X11239428Y66099980D01*
X11239428Y66099980D02*
X11048952Y66099980D01*
X11048952Y66099980D02*
X10953714Y66147600D01*
X10953714Y66147600D02*
X10906095Y66195219D01*
X10906095Y66195219D02*
X10858476Y66290457D01*
X10858476Y66290457D02*
X10858476Y67099980D01*
X9953714Y66766647D02*
X9953714Y66099980D01*
X10191809Y67147600D02*
X10429904Y66433314D01*
X10429904Y66433314D02*
X9810857Y66433314D01*
X110997904Y67099980D02*
X110997904Y66290457D01*
X110997904Y66290457D02*
X110950285Y66195219D01*
X110950285Y66195219D02*
X110902666Y66147600D01*
X110902666Y66147600D02*
X110807428Y66099980D01*
X110807428Y66099980D02*
X110616952Y66099980D01*
X110616952Y66099980D02*
X110521714Y66147600D01*
X110521714Y66147600D02*
X110474095Y66195219D01*
X110474095Y66195219D02*
X110426476Y66290457D01*
X110426476Y66290457D02*
X110426476Y67099980D01*
X109474095Y67099980D02*
X109950285Y67099980D01*
X109950285Y67099980D02*
X109997904Y66623790D01*
X109997904Y66623790D02*
X109950285Y66671409D01*
X109950285Y66671409D02*
X109855047Y66719028D01*
X109855047Y66719028D02*
X109616952Y66719028D01*
X109616952Y66719028D02*
X109521714Y66671409D01*
X109521714Y66671409D02*
X109474095Y66623790D01*
X109474095Y66623790D02*
X109426476Y66528552D01*
X109426476Y66528552D02*
X109426476Y66290457D01*
X109426476Y66290457D02*
X109474095Y66195219D01*
X109474095Y66195219D02*
X109521714Y66147600D01*
X109521714Y66147600D02*
X109616952Y66099980D01*
X109616952Y66099980D02*
X109855047Y66099980D01*
X109855047Y66099980D02*
X109950285Y66147600D01*
X109950285Y66147600D02*
X109997904Y66195219D01*
X32003904Y67099980D02*
X32003904Y66290457D01*
X32003904Y66290457D02*
X31956285Y66195219D01*
X31956285Y66195219D02*
X31908666Y66147600D01*
X31908666Y66147600D02*
X31813428Y66099980D01*
X31813428Y66099980D02*
X31622952Y66099980D01*
X31622952Y66099980D02*
X31527714Y66147600D01*
X31527714Y66147600D02*
X31480095Y66195219D01*
X31480095Y66195219D02*
X31432476Y66290457D01*
X31432476Y66290457D02*
X31432476Y67099980D01*
X31003904Y67004742D02*
X30956285Y67052361D01*
X30956285Y67052361D02*
X30861047Y67099980D01*
X30861047Y67099980D02*
X30622952Y67099980D01*
X30622952Y67099980D02*
X30527714Y67052361D01*
X30527714Y67052361D02*
X30480095Y67004742D01*
X30480095Y67004742D02*
X30432476Y66909504D01*
X30432476Y66909504D02*
X30432476Y66814266D01*
X30432476Y66814266D02*
X30480095Y66671409D01*
X30480095Y66671409D02*
X31051523Y66099980D01*
X31051523Y66099980D02*
X30432476Y66099980D01*
X104235580Y63737466D02*
X104283200Y63785085D01*
X104283200Y63785085D02*
X104330819Y63927942D01*
X104330819Y63927942D02*
X104330819Y64023180D01*
X104330819Y64023180D02*
X104283200Y64166037D01*
X104283200Y64166037D02*
X104187961Y64261275D01*
X104187961Y64261275D02*
X104092723Y64308894D01*
X104092723Y64308894D02*
X103902247Y64356513D01*
X103902247Y64356513D02*
X103759390Y64356513D01*
X103759390Y64356513D02*
X103568914Y64308894D01*
X103568914Y64308894D02*
X103473676Y64261275D01*
X103473676Y64261275D02*
X103378438Y64166037D01*
X103378438Y64166037D02*
X103330819Y64023180D01*
X103330819Y64023180D02*
X103330819Y63927942D01*
X103330819Y63927942D02*
X103378438Y63785085D01*
X103378438Y63785085D02*
X103426057Y63737466D01*
X103330819Y62832704D02*
X103330819Y63308894D01*
X103330819Y63308894D02*
X103807009Y63356513D01*
X103807009Y63356513D02*
X103759390Y63308894D01*
X103759390Y63308894D02*
X103711771Y63213656D01*
X103711771Y63213656D02*
X103711771Y62975561D01*
X103711771Y62975561D02*
X103759390Y62880323D01*
X103759390Y62880323D02*
X103807009Y62832704D01*
X103807009Y62832704D02*
X103902247Y62785085D01*
X103902247Y62785085D02*
X104140342Y62785085D01*
X104140342Y62785085D02*
X104235580Y62832704D01*
X104235580Y62832704D02*
X104283200Y62880323D01*
X104283200Y62880323D02*
X104330819Y62975561D01*
X104330819Y62975561D02*
X104330819Y63213656D01*
X104330819Y63213656D02*
X104283200Y63308894D01*
X104283200Y63308894D02*
X104235580Y63356513D01*
X116955580Y63697466D02*
X117003200Y63745085D01*
X117003200Y63745085D02*
X117050819Y63887942D01*
X117050819Y63887942D02*
X117050819Y63983180D01*
X117050819Y63983180D02*
X117003200Y64126037D01*
X117003200Y64126037D02*
X116907961Y64221275D01*
X116907961Y64221275D02*
X116812723Y64268894D01*
X116812723Y64268894D02*
X116622247Y64316513D01*
X116622247Y64316513D02*
X116479390Y64316513D01*
X116479390Y64316513D02*
X116288914Y64268894D01*
X116288914Y64268894D02*
X116193676Y64221275D01*
X116193676Y64221275D02*
X116098438Y64126037D01*
X116098438Y64126037D02*
X116050819Y63983180D01*
X116050819Y63983180D02*
X116050819Y63887942D01*
X116050819Y63887942D02*
X116098438Y63745085D01*
X116098438Y63745085D02*
X116146057Y63697466D01*
X116384152Y62840323D02*
X117050819Y62840323D01*
X116003200Y63078418D02*
X116717485Y63316513D01*
X116717485Y63316513D02*
X116717485Y62697466D01*
X117474947Y28887157D02*
X117474947Y28172872D01*
X117474947Y28172872D02*
X117522566Y28030015D01*
X117522566Y28030015D02*
X117617804Y27934777D01*
X117617804Y27934777D02*
X117760661Y27887157D01*
X117760661Y27887157D02*
X117855899Y27887157D01*
X116474947Y27887157D02*
X117046375Y27887157D01*
X116760661Y27887157D02*
X116760661Y28887157D01*
X116760661Y28887157D02*
X116855899Y28744300D01*
X116855899Y28744300D02*
X116951137Y28649062D01*
X116951137Y28649062D02*
X117046375Y28601443D01*
X115617804Y28887157D02*
X115808280Y28887157D01*
X115808280Y28887157D02*
X115903518Y28839538D01*
X115903518Y28839538D02*
X115951137Y28791919D01*
X115951137Y28791919D02*
X116046375Y28649062D01*
X116046375Y28649062D02*
X116093994Y28458586D01*
X116093994Y28458586D02*
X116093994Y28077634D01*
X116093994Y28077634D02*
X116046375Y27982396D01*
X116046375Y27982396D02*
X115998756Y27934777D01*
X115998756Y27934777D02*
X115903518Y27887157D01*
X115903518Y27887157D02*
X115713042Y27887157D01*
X115713042Y27887157D02*
X115617804Y27934777D01*
X115617804Y27934777D02*
X115570185Y27982396D01*
X115570185Y27982396D02*
X115522566Y28077634D01*
X115522566Y28077634D02*
X115522566Y28315729D01*
X115522566Y28315729D02*
X115570185Y28410967D01*
X115570185Y28410967D02*
X115617804Y28458586D01*
X115617804Y28458586D02*
X115713042Y28506205D01*
X115713042Y28506205D02*
X115903518Y28506205D01*
X115903518Y28506205D02*
X115998756Y28458586D01*
X115998756Y28458586D02*
X116046375Y28410967D01*
X116046375Y28410967D02*
X116093994Y28315729D01*
X73202819Y34965304D02*
X74012342Y34965304D01*
X74012342Y34965304D02*
X74107580Y34917685D01*
X74107580Y34917685D02*
X74155200Y34870066D01*
X74155200Y34870066D02*
X74202819Y34774828D01*
X74202819Y34774828D02*
X74202819Y34584352D01*
X74202819Y34584352D02*
X74155200Y34489114D01*
X74155200Y34489114D02*
X74107580Y34441495D01*
X74107580Y34441495D02*
X74012342Y34393876D01*
X74012342Y34393876D02*
X73202819Y34393876D01*
X74202819Y33393876D02*
X74202819Y33965304D01*
X74202819Y33679590D02*
X73202819Y33679590D01*
X73202819Y33679590D02*
X73345676Y33774828D01*
X73345676Y33774828D02*
X73440914Y33870066D01*
X73440914Y33870066D02*
X73488533Y33965304D01*
D12*
G04 #@! TO.C,C1*
X91798000Y61764800D02*
X91798000Y65804800D01*
X92423000Y65804800D02*
X91798000Y65804800D01*
X92423000Y61764800D02*
X91798000Y61764800D01*
X94638000Y65804800D02*
X94013000Y65804800D01*
X94638000Y61764800D02*
X94013000Y61764800D01*
X94638000Y61764800D02*
X94638000Y65804800D01*
G04 #@! TO.C,C2*
X33632000Y61764800D02*
X33632000Y65804800D01*
X34257000Y65804800D02*
X33632000Y65804800D01*
X34257000Y61764800D02*
X33632000Y61764800D01*
X36472000Y65804800D02*
X35847000Y65804800D01*
X36472000Y61764800D02*
X35847000Y61764800D01*
X36472000Y61764800D02*
X36472000Y65804800D01*
G04 #@! TO.C,C3*
X13058000Y61764800D02*
X13058000Y65804800D01*
X13683000Y65804800D02*
X13058000Y65804800D01*
X13683000Y61764800D02*
X13058000Y61764800D01*
X15898000Y65804800D02*
X15273000Y65804800D01*
X15898000Y61764800D02*
X15273000Y61764800D01*
X15898000Y61764800D02*
X15898000Y65804800D01*
G04 #@! TO.C,U3*
X84268000Y88054800D02*
X94548000Y88054800D01*
X84268000Y67494800D02*
X84268000Y88054800D01*
X86758000Y87994800D02*
X92058000Y87994800D01*
X86758000Y67554800D02*
X86758000Y87994800D01*
X88408000Y67554800D02*
X86758000Y67554800D01*
X92058000Y87994800D02*
X92058000Y67554800D01*
X92058000Y67554800D02*
X90408000Y67554800D01*
X94548000Y88054800D02*
X94548000Y67494800D01*
X94548000Y67494800D02*
X84268000Y67494800D01*
X88408000Y67554800D02*
G75*
G02*
X90408000Y67554800I1000000J0D01*
G01*
G04 #@! TO.C,U4*
X5528000Y88054800D02*
X15808000Y88054800D01*
X5528000Y67494800D02*
X5528000Y88054800D01*
X8018000Y87994800D02*
X13318000Y87994800D01*
X8018000Y67554800D02*
X8018000Y87994800D01*
X9668000Y67554800D02*
X8018000Y67554800D01*
X13318000Y87994800D02*
X13318000Y67554800D01*
X13318000Y67554800D02*
X11668000Y67554800D01*
X15808000Y88054800D02*
X15808000Y67494800D01*
X15808000Y67494800D02*
X5528000Y67494800D01*
X9668000Y67554800D02*
G75*
G02*
X11668000Y67554800I1000000J0D01*
G01*
G04 #@! TO.C,U5*
X105096000Y88054800D02*
X115376000Y88054800D01*
X105096000Y67494800D02*
X105096000Y88054800D01*
X107586000Y87994800D02*
X112886000Y87994800D01*
X107586000Y67554800D02*
X107586000Y87994800D01*
X109236000Y67554800D02*
X107586000Y67554800D01*
X112886000Y87994800D02*
X112886000Y67554800D01*
X112886000Y67554800D02*
X111236000Y67554800D01*
X115376000Y88054800D02*
X115376000Y67494800D01*
X115376000Y67494800D02*
X105096000Y67494800D01*
X109236000Y67554800D02*
G75*
G02*
X111236000Y67554800I1000000J0D01*
G01*
G04 #@! TO.C,U2*
X26102000Y88054800D02*
X36382000Y88054800D01*
X26102000Y67494800D02*
X26102000Y88054800D01*
X28592000Y87994800D02*
X33892000Y87994800D01*
X28592000Y67554800D02*
X28592000Y87994800D01*
X30242000Y67554800D02*
X28592000Y67554800D01*
X33892000Y87994800D02*
X33892000Y67554800D01*
X33892000Y67554800D02*
X32242000Y67554800D01*
X36382000Y88054800D02*
X36382000Y67494800D01*
X36382000Y67494800D02*
X26102000Y67494800D01*
X30242000Y67554800D02*
G75*
G02*
X32242000Y67554800I1000000J0D01*
G01*
G04 #@! TO.C,C5*
X105006000Y65590800D02*
X105006000Y61550800D01*
X105006000Y65590800D02*
X105631000Y65590800D01*
X105006000Y61550800D02*
X105631000Y61550800D01*
X107221000Y65590800D02*
X107846000Y65590800D01*
X107221000Y61550800D02*
X107846000Y61550800D01*
X107846000Y65590800D02*
X107846000Y61550800D01*
G04 #@! TO.C,C4*
X112626000Y61510800D02*
X112626000Y65550800D01*
X113251000Y65550800D02*
X112626000Y65550800D01*
X113251000Y61510800D02*
X112626000Y61510800D01*
X115466000Y65550800D02*
X114841000Y65550800D01*
X115466000Y61510800D02*
X114841000Y61510800D01*
X115466000Y61510800D02*
X115466000Y65550800D01*
G04 #@! TO.C,J16*
X114065424Y27341977D02*
X114065424Y14521977D01*
X116665424Y27341977D02*
X114065424Y27341977D01*
X116665424Y24741977D02*
X116665424Y27341977D01*
X119265424Y27341977D02*
X117935424Y27341977D01*
X119265424Y26011977D02*
X119265424Y27341977D01*
X119265424Y24741977D02*
X116665424Y24741977D01*
X119265424Y24741977D02*
X119265424Y14521977D01*
X119265424Y14521977D02*
X114065424Y14521977D01*
G04 #@! TO.C,U1*
X40770800Y81380000D02*
X40770800Y76180000D01*
X43653400Y17339000D02*
X43653400Y30159000D01*
X46253400Y19939000D02*
X46253400Y17339000D01*
X46253400Y17339000D02*
X43653400Y17339000D01*
X48853400Y30159000D02*
X43653400Y30159000D01*
X48853400Y19939000D02*
X46253400Y19939000D01*
X48853400Y19939000D02*
X48853400Y30159000D01*
X48853400Y18669000D02*
X48853400Y17339000D01*
X48853400Y17339000D02*
X47523400Y17339000D01*
X50990800Y81380000D02*
X40770800Y81380000D01*
X50990800Y81380000D02*
X50990800Y78780000D01*
X50990800Y78780000D02*
X53590800Y78780000D01*
X52260800Y81380000D02*
X53590800Y81380000D01*
X53590800Y81380000D02*
X53590800Y80050000D01*
X53590800Y78780000D02*
X53590800Y76180000D01*
X53590800Y76180000D02*
X40770800Y76180000D01*
X66767400Y81382800D02*
X66767400Y76182800D01*
X71540000Y17264800D02*
X71540000Y30084800D01*
X74140000Y19864800D02*
X74140000Y17264800D01*
X74140000Y17264800D02*
X71540000Y17264800D01*
X76740000Y30084800D02*
X71540000Y30084800D01*
X76740000Y19864800D02*
X74140000Y19864800D01*
X76740000Y19864800D02*
X76740000Y30084800D01*
X76740000Y18594800D02*
X76740000Y17264800D01*
X76740000Y17264800D02*
X75410000Y17264800D01*
X76987400Y81382800D02*
X66767400Y81382800D01*
X76987400Y81382800D02*
X76987400Y78782800D01*
X76987400Y78782800D02*
X79587400Y78782800D01*
X78257400Y81382800D02*
X79587400Y81382800D01*
X79587400Y81382800D02*
X79587400Y80052800D01*
X79587400Y78782800D02*
X79587400Y76182800D01*
X79587400Y76182800D02*
X66767400Y76182800D01*
G04 #@! TD*
M02*
